<?xml version="1.0" standalone="no"?>
<!DOCTYPE svg PUBLIC "-//W3C//DTD SVG 1.1//EN" "http://www.w3.org/Graphics/SVG/1.1/DTD/svg11.dtd" >
<svg>
<metadata>
Created by FontForge 20090622 at Mon Sep 16 19:35:37 2019
 By deploy user
Copyright 2017-2019 The Inter project authors
</metadata>
<defs>
<font id="LinikSans-Regular" horiz-adv-x="0" >
  <font-face 
    font-family="Linik Sans"
    font-weight="400"
    font-stretch="normal"
    units-per-em="2816"
    panose-1="2 11 5 2 3 0 0 0 0 4"
    ascent="2252"
    descent="-564"
    x-height="1536"
    cap-height="2048"
    bbox="-2080 -1084 4650 3072"
    underline-thickness="192"
    underline-position="-368"
    unicode-range="U+0020-U+1F16B"
  />
<missing-glyph horiz-adv-x="2800" 
d="M248 -640v512h2304v-512h-2304zM248 64v512h2304v-512h-2304zM248 768v512h2304v-512h-2304zM248 1472v512h2304v-512h-2304zM248 2176v512h2304v-512h-2304z" />
    <glyph glyph-name=".notdef" horiz-adv-x="2800" 
d="M248 -640v512h2304v-512h-2304zM248 64v512h2304v-512h-2304zM248 768v512h2304v-512h-2304zM248 1472v512h2304v-512h-2304zM248 2176v512h2304v-512h-2304z" />
    <glyph glyph-name=".null" 
 />
    <glyph glyph-name="space" unicode=" " horiz-adv-x="792" 
 />
    <glyph glyph-name="exclam" unicode="!" horiz-adv-x="784" 
d="M528 2048l-20 -1472h-232l-20 1472h272zM392 -16q-74 0 -127 53t-53 127t53 127t127 53t127 -53t53 -127t-53 -127t-127 -53z" />
    <glyph glyph-name="quotedbl" unicode="&#x22;" horiz-adv-x="1136" 
d="M420 2048v-704h-220v704h220zM932 2048v-704h-220v704h220z" />
    <glyph glyph-name="numbersign" unicode="#" horiz-adv-x="1776" 
d="M980 0l93 568h-520l-93 -568h-200l93 568h-305l32 200h306l84 512h-302l32 200h303l93 568h200l-93 -568h520l93 568h200l-93 -568h305l-32 -200h-306l-84 -512h302l-32 -200h-303l-93 -568h-200zM586 768h520l84 512h-520z" />
    <glyph glyph-name="dollar" unicode="$" horiz-adv-x="1796" 
d="M816 -256v223q-297 23 -467 172.5t-189 388.5h256q17 -154 128 -237t272 -99v757l-80 23q-161 46 -277 117.5t-179.5 174t-63.5 240.5q0 157 78.5 278.5t213.5 196t308 92.5v233h164v-230q276 -22 446 -168.5t182 -369.5h-240q-19 137 -123 218.5t-265 98.5v-711l80 -22
q65 -16 141.5 -43t153 -69t140 -103.5t102.5 -147.5t39 -201q0 -234 -169.5 -398t-486.5 -191v-223h-164zM980 192q122 14 215.5 63t147 127t53.5 178q0 77 -33 131t-90 93t-130 66.5t-155 49.5l-8 2v-710zM816 1186v664q-167 -24 -263.5 -114t-96.5 -220q0 -76 34.5 -131
t88.5 -94t116.5 -64t120.5 -41z" />
    <glyph glyph-name="percent" unicode="%" horiz-adv-x="2288" 
d="M1256 384v108q0 112 46.5 205.5t136 150t217.5 56.5q130 0 218 -56.5t133 -150t45 -205.5v-108q0 -112 -45.5 -205.5t-134 -150t-216.5 -56.5q-130 0 -219 56.5t-135 150t-46 205.5zM236 1556v108q0 112 46.5 205.5t136 150t217.5 56.5q130 0 218 -56.5t133 -150
t45 -205.5v-108q0 -112 -45.5 -205.5t-134 -150t-216.5 -56.5q-130 0 -219 56.5t-135 150t-46 205.5zM312 0l1408 2048h228l-1408 -2048h-228zM1460 492v-108q0 -62 19 -117t62 -89t115 -34q70 0 112 34t61 89t19 117v108q0 62 -18 117t-60 89t-114 34q-70 0 -113 -34
t-63 -89t-20 -117zM440 1664v-108q0 -62 19 -117t62 -89t115 -34q70 0 112 34t61 89t19 117v108q0 62 -18 117t-60 89t-114 34q-70 0 -113 -34t-63 -89t-20 -117z" />
    <glyph glyph-name="ampersand" unicode="&#x26;" horiz-adv-x="1800" 
d="M796 -28q-202 0 -348 74t-225 203t-79 295q0 124 51 221t142 181t211 166q-71 84 -125 162.5t-84.5 158.5t-30.5 171q0 207 135.5 335.5t360.5 128.5q154 0 265 -59.5t171 -157t60 -211.5q0 -98 -33 -178t-94 -148t-145 -130l-150 -112l445 -543q40 77 62.5 169.5
t22.5 197.5h228q0 -143 -24.5 -248t-62 -179.5t-76.5 -123.5l283 -345h-284l-145 174q-103 -102 -246.5 -152t-284.5 -50zM1186 345l-490 591l-76 -56q-91 -69 -143 -135t-72.5 -119.5t-20.5 -81.5q0 -96 50 -179t141 -134t213 -51q107 0 209.5 42.5t188.5 122.5zM733 1248
l135 100q58 37 101 78t67 92.5t24 121.5q0 52 -31 103.5t-87 86t-130 34.5q-78 0 -137.5 -39.5t-93 -100t-33.5 -124.5q0 -57 25.5 -115t67 -117t92.5 -120z" />
    <glyph glyph-name="quotesingle" unicode="'" horiz-adv-x="624" 
d="M420 2048v-704h-220v704h220z" />
    <glyph glyph-name="parenleft" unicode="(" horiz-adv-x="1020" 
d="M300 864q0 378 98 696t282 584h208q-147 -209 -245.5 -566t-98.5 -714t98.5 -714t245.5 -566h-208q-184 266 -282 584t-98 696z" />
    <glyph glyph-name="parenright" unicode=")" horiz-adv-x="1020" 
d="M720 864q0 -378 -98 -696t-282 -584h-208q148 209 246 566t98 714t-98 714t-246 566h208q184 -266 282 -584t98 -696z" />
    <glyph glyph-name="asterisk" unicode="*" horiz-adv-x="1408" 
d="M608 896l16 440l-372 -236l-96 168l392 204l-392 204l96 168l372 -236l-16 440h192l-16 -440l372 236l96 -168l-392 -204l392 -204l-96 -168l-372 236l16 -440h-192z" />
    <glyph glyph-name="plus" unicode="+" horiz-adv-x="1808" 
d="M792 164v528h-528v224h528v528h224v-528h528v-224h-528v-528h-224z" />
    <glyph glyph-name="comma" unicode="," horiz-adv-x="776" 
d="M556 280l-16 -108q-29 -179 -86.5 -370.5t-97.5 -301.5h-180q2 10 5 22q22 105 53.5 277.5t53.5 368.5l12 112h256z" />
    <glyph glyph-name="hyphen" unicode="-" horiz-adv-x="1296" 
d="M1096 988v-220h-896v220h896z" />
    <glyph glyph-name="period" unicode="." horiz-adv-x="776" 
d="M388 -16q-74 0 -127 53t-53 127t53 127t127 53t127 -53t53 -127t-53 -127t-127 -53z" />
    <glyph glyph-name="slash" unicode="/" horiz-adv-x="1004" 
d="M940 2144l-660 -2452h-216l660 2452h216z" />
    <glyph glyph-name="zero" unicode="0" horiz-adv-x="1951" 
d="M976 -28q-339 0 -525.5 275t-186.5 777q0 498 188 775t524 277t524 -277t188 -775q0 -502 -186.5 -777t-525.5 -275zM976 192q224 0 348 216t124 616q0 360 -102 574l-639 -1295q110 -111 269 -111zM604 455l638 1295q-110 110 -266 110q-222 0 -347 -218.5t-125 -617.5
q0 -358 100 -569z" />
    <glyph glyph-name="one" unicode="1" horiz-adv-x="1951" 
d="M1248 2048v-2048h-248v1788h-12l-500 -332v252l512 340h248z" />
    <glyph glyph-name="two" unicode="2" horiz-adv-x="1951" 
d="M336 0v180l676 740q118 128 195.5 225.5t115 183t37.5 179.5q0 108 -51.5 187t-140.5 122t-200 43q-178 0 -283 -106.5t-105 -281.5h-236q0 180 83 316t226.5 212t322.5 76q180 0 319 -76t218 -205t79 -287q0 -113 -40.5 -220t-140.5 -240.5t-275 -319.5l-460 -492v-16
h952v-220h-1292z" />
    <glyph glyph-name="three" unicode="3" horiz-adv-x="1951" 
d="M276 512h252q20 -156 143 -238t301 -82q128 0 230 43t162 128.5t60 212.5q0 83 -29 158.5t-91 134.5t-162 93t-242 34h-164v200l512 616v16h-872v220h1212v-180l-548 -664v-16q178 -9 319.5 -90t225 -216t83.5 -306q0 -175 -89.5 -311.5t-247 -214.5t-363.5 -78
q-182 0 -335 64t-248 184.5t-109 291.5z" />
    <glyph glyph-name="four" unicode="4" horiz-adv-x="1951" 
d="M236 420v204l820 1424h244l-800 -1392v-16h700v640h236v-640h280v-220h-280v-420h-236v420h-964z" />
    <glyph glyph-name="five" unicode="5" horiz-adv-x="1951" 
d="M968 -28q-176 0 -317 70t-225.5 191.5t-93.5 278.5h240q18 -141 128.5 -230.5t267.5 -89.5q126 0 224.5 59t155 162.5t56.5 234.5q0 134 -58.5 239.5t-160 166t-233.5 62.5q-97 0 -193.5 -28.5t-162.5 -75.5l-232 28l124 1008h1064v-220h-856l-72 -604h12
q64 51 158.5 83.5t197.5 32.5q188 0 335.5 -89.5t232 -244.5t84.5 -354q0 -196 -87.5 -349.5t-240.5 -242t-348 -88.5z" />
    <glyph glyph-name="six" unicode="6" horiz-adv-x="1951" 
d="M988 -28q-102 1 -203.5 30t-192.5 95.5t-162 178.5t-112.5 276.5t-41.5 391.5q0 364 90 617.5t257 386t397 132.5q172 0 306.5 -69t219 -191t110.5 -284h-244q-23 95 -74 167.5t-130.5 114.5t-187.5 42q-238 0 -373.5 -206t-138.5 -586h16q85 128 215.5 200t288.5 72
q176 0 322 -87.5t234 -241t88 -351.5q0 -190 -84.5 -347.5t-238 -249t-361.5 -91.5zM988 192q126 0 226.5 63t159 169t58.5 236q0 127 -56.5 231.5t-155 166.5t-224.5 62q-127 0 -229 -65t-161.5 -170t-61.5 -229q1 -124 58 -229t157.5 -170t228.5 -65z" />
    <glyph glyph-name="seven" unicode="7" horiz-adv-x="1951" 
d="M448 0l916 1812v16h-1056v220h1312v-232l-912 -1816h-260z" />
    <glyph glyph-name="eight" unicode="8" horiz-adv-x="1951" 
d="M972 -28q-206 0 -363.5 73.5t-245 202t-87.5 296.5q2 199 112.5 342t283.5 178v12q-149 41 -234.5 165t-85.5 291q1 157 80 279.5t219.5 193.5t320.5 71q178 0 318 -71t219.5 -193.5t82.5 -279.5q-3 -167 -88.5 -291t-231.5 -165v-12q170 -35 280.5 -178t115.5 -342
q-2 -168 -90 -296.5t-244.5 -202t-361.5 -73.5zM972 192q208 0 328 98.5t124 265.5q-5 176 -131.5 286t-320.5 110q-197 0 -323.5 -110t-128.5 -286q1 -167 121 -265.5t331 -98.5zM972 1164q165 0 270.5 95.5t109.5 256.5q-4 158 -107 251t-273 93q-172 0 -275.5 -93
t-104.5 -251q1 -161 106.5 -256.5t273.5 -95.5z" />
    <glyph glyph-name="nine" unicode="9" horiz-adv-x="1951" 
d="M332 1420q0 190 83.5 338t229 233t331.5 85q188 0 334 -87.5t228 -239t82 -349.5q0 -140 -65.5 -307.5t-230.5 -412.5l-460 -680h-272l540 788q-74 -28 -152 -28q-186 0 -332.5 86t-231 235t-84.5 339zM568 1420q0 -195 114 -317.5t294 -122.5t294 122t114 314
q0 195 -114 319.5t-294 124.5q-120 0 -212 -56.5t-144 -156t-52 -227.5z" />
    <glyph glyph-name="colon" unicode=":" horiz-adv-x="776" 
d="M388 -16q-74 0 -127 53t-53 127t53 127t127 53t127 -53t53 -127t-53 -127t-127 -53zM388 1124q-74 0 -127 53t-53 127t53 127t127 53t127 -53t53 -127t-53 -127t-127 -53z" />
    <glyph glyph-name="semicolon" unicode=";" horiz-adv-x="776" 
d="M560 280l-16 -108q-29 -179 -86.5 -370.5t-97.5 -301.5h-180q2 10 5 22q22 105 53.5 277.5t53.5 368.5l12 112h256zM416 1124q-74 0 -127 53t-53 127t53 127t127 53t127 -53t53 -127t-53 -127t-127 -53z" />
    <glyph glyph-name="less" unicode="&#x3c;" horiz-adv-x="1808" 
d="M260 720v160l1288 656v-256l-980 -472v-16l980 -472v-256z" />
    <glyph glyph-name="equal" unicode="=" horiz-adv-x="1808" 
d="M328 396v216h1152v-216h-1152zM328 988v216h1152v-216h-1152z" />
    <glyph glyph-name="greater" unicode="&#x3e;" horiz-adv-x="1808" 
d="M1548 720l-1288 -656v256l980 472v16l-980 472v256l1288 -656v-160z" />
    <glyph glyph-name="question" unicode="?" horiz-adv-x="1428" 
d="M524 576v12q2 188 40 302.5t108 185.5t168 128q59 35 106 85t74.5 115t27.5 144q0 98 -46 170t-123 111t-171 39q-82 0 -158 -34t-126.5 -107t-59.5 -191h-252q17 257 185 398.5t411 141.5q176 0 306.5 -70t202 -192t71.5 -278q0 -166 -73.5 -284t-206.5 -198
q-130 -78 -186.5 -181t-57.5 -285v-12h-240zM652 -16q-74 0 -127 53t-53 127t53 127t127 53t127 -53t53 -127t-53 -127t-127 -53z" />
    <glyph glyph-name="at" unicode="@" horiz-adv-x="2636" 
d="M1368 1972q224 0 404.5 -60t317 -165t227.5 -243t137 -297t46 -323q0 -116 -8 -236t-33.5 -228.5t-76 -194t-135 -135.5t-211.5 -50q-70 0 -154 22t-148 73t-78 137h-12q-35 -91 -130.5 -156.5t-265.5 -63.5q-174 8 -291.5 98.5t-177 243t-59.5 342.5q0 180 69.5 318.5
t188.5 221.5t270 100q153 12 256.5 -31.5t127.5 -112.5h12v112h212v-904q0 -56 21 -104.5t62 -78t101 -29.5q102 0 156.5 70t75 216t20.5 374q0 134 -36.5 264.5t-110 244.5t-185.5 201t-262.5 136.5t-341.5 49.5q-314 0 -538 -128t-343 -367t-119 -573q0 -340 119.5 -577.5
t353 -362t575.5 -124.5q107 0 210.5 20t184.5 43.5t122 38.5q4 1 7 2l56 -184q-99 -41 -267 -76.5t-321 -35.5q-408 0 -689 147.5t-426 430t-145 686.5q0 390 147 669.5t423 429t662 149.5zM1288 1180q-114 0 -194.5 -59.5t-123 -158t-42.5 -214.5q0 -96 18.5 -184.5
t60 -157.5t109 -109.5t164.5 -40.5q201 0 288.5 121.5t87.5 370.5q0 168 -42 262t-124 132t-202 38z" />
    <glyph glyph-name="A" unicode="A" horiz-adv-x="1904" 
d="M332 0h-260l752 2048h256l752 -2048h-260l-206 580h-828zM616 800h672l-328 924h-16z" />
    <glyph glyph-name="B" unicode="B" horiz-adv-x="1832" 
d="M248 0v2048h716q161 0 279 -42.5t195.5 -117t115.5 -173t38 -211.5q0 -132 -46.5 -218t-121.5 -136.5t-164 -73.5v-20q72 -5 144 -39.5t132.5 -99.5t98 -158t37.5 -215q0 -154 -70 -277t-221 -195t-393 -72h-740zM496 220h492q162 0 260.5 43.5t143 117t44.5 163.5
q0 104 -53 192.5t-151 142t-232 53.5h-504v-712zM496 1148h460q112 0 202.5 44t144 124t53.5 188q0 90 -41.5 163.5t-128 117t-222.5 43.5h-468v-680z" />
    <glyph glyph-name="C" unicode="C" horiz-adv-x="2048" 
d="M1896 1408h-248q-50 214 -211 325t-365 111q-139 0 -260 -53t-211.5 -157.5t-141.5 -257t-51 -352.5q0 -199 51 -352t141.5 -257.5t211.5 -157.5t260 -53q204 0 365 111t211 325h248q-63 -317 -289 -492.5t-535 -175.5q-196 0 -361.5 73t-287 210t-188.5 331.5t-67 437.5
t67 437.5t188.5 331.5t287 210t361.5 73q309 0 535 -175.5t289 -492.5z" />
    <glyph glyph-name="D" unicode="D" horiz-adv-x="2024" 
d="M880 0h-632v2048h660q298 0 510 -122.5t325 -351t113 -546.5q0 -320 -114 -550.5t-332 -354t-530 -123.5zM496 220h368q254 0 421 98t249 279t82 431q0 248 -81 427.5t-242 276t-401 96.5h-396v-1608z" />
    <glyph glyph-name="E" unicode="E" horiz-adv-x="1684" 
d="M248 0v2048h1236v-220h-988v-692h924v-220h-924v-696h1004v-220h-1252z" />
    <glyph glyph-name="F" unicode="F" horiz-adv-x="1652" 
d="M248 0v2048h1228v-220h-980v-692h888v-220h-888v-916h-248z" />
    <glyph glyph-name="G" unicode="G" horiz-adv-x="2112" 
d="M1080 -28q-272 0 -477.5 128t-320 364t-114.5 560q0 243 67 437.5t188.5 331.5t287 210t361.5 73q216 0 395 -84.5t298 -234.5t159 -349h-256q-63 204 -219 320t-377 116q-136 0 -256.5 -53t-212 -157.5t-143.5 -257t-52 -352.5q0 -266 89 -449t241 -277t342 -94
q178 0 314.5 77t215.5 211.5t86 311.5h-560v220h800v-1024h-208l-30 250h-10q-115 -135 -260 -206.5t-348 -71.5z" />
    <glyph glyph-name="H" unicode="H" horiz-adv-x="2084" 
d="M248 0v2048h248v-912h1092v912h248v-2048h-248v916h-1092v-916h-248z" />
    <glyph glyph-name="I" unicode="I" horiz-adv-x="1248" 
d="M136 1828v220h976v-220h-364v-1608h364v-220h-976v220h364v1608h-364z" />
    <glyph glyph-name="J" unicode="J" horiz-adv-x="1528" 
d="M1032 2048h248v-1464q0 -196 -72 -333t-203 -208t-309 -71q-168 0 -299 61.5t-206 175.5t-75 271h244q0 -130 95 -209t241 -79q161 0 248.5 100.5t87.5 291.5v1464z" />
    <glyph glyph-name="K" unicode="K" horiz-adv-x="1836" 
d="M248 0v2048h248v-1016h24l920 1016h324l-860 -924l860 -1124h-300l-712 952l-256 -288v-664h-248z" />
    <glyph glyph-name="L" unicode="L" horiz-adv-x="1584" 
d="M248 0v2048h248v-1828h952v-220h-1200z" />
    <glyph glyph-name="M" unicode="M" horiz-adv-x="2568" 
d="M248 2048h296l696 -1700h24l696 1700h296v-2048h-232v1556h-20l-640 -1556h-224l-640 1556h-20v-1556h-232v2048z" />
    <glyph glyph-name="N" unicode="N" horiz-adv-x="2120" 
d="M1872 2048v-2048h-240l-1116 1608h-20v-1608h-248v2048h240l1120 -1612h20v1612h244z" />
    <glyph glyph-name="O" unicode="O" horiz-adv-x="2144" 
d="M1976 1024q0 -243 -67 -437.5t-188.5 -331.5t-286.5 -210t-362 -73q-196 0 -361.5 73t-287 210t-188.5 331.5t-67 437.5t67 437.5t188.5 331.5t287 210t361.5 73q197 0 362 -73t286.5 -210t188.5 -331.5t67 -437.5zM1736 1024q0 200 -51 352.5t-141.5 257t-211 157.5
t-260.5 53q-139 0 -260 -53t-211.5 -157.5t-141.5 -257t-51 -352.5q0 -199 51 -352t141.5 -257.5t211.5 -157.5t260 -53q140 0 260.5 53t211 157.5t141.5 257.5t51 352z" />
    <glyph glyph-name="P" unicode="P" horiz-adv-x="1788" 
d="M248 0v2048h692q180 0 311.5 -50t217 -138.5t126.5 -206t41 -253.5t-41 -254.5t-126 -207.5t-215.5 -139.5t-309.5 -50.5h-448v-748h-248zM496 968h440q165 0 265 57t145.5 154.5t45.5 220.5t-45.5 220t-146.5 152.5t-268 55.5h-436v-860z" />
    <glyph glyph-name="Q" unicode="Q" horiz-adv-x="2144" 
d="M1976 1024q0 -288 -93 -507t-258 -354l267 -355h-272l-179 240q-168 -76 -369 -76q-196 0 -361.5 73t-287 210t-188.5 331.5t-67 437.5t67 437.5t188.5 331.5t287 210t361.5 73q197 0 362 -73t286.5 -210t188.5 -331.5t67 -437.5zM992 640h272l218 -287
q118 102 186 270.5t68 400.5q0 200 -51 352.5t-141.5 257t-211 157.5t-260.5 53q-139 0 -260 -53t-211.5 -157.5t-141.5 -257t-51 -352.5q0 -199 51 -352t141.5 -257.5t211.5 -157.5t260 -53q119 0 224 38z" />
    <glyph glyph-name="R" unicode="R" horiz-adv-x="1800" 
d="M248 0v2048h692q240 0 394 -81.5t228 -223.5t74 -323q0 -204 -94 -354.5t-289 -219.5l463 -846h-288l-432 801q-25 -1 -52 -1h-448v-800h-248zM496 1024h440q164 0 264.5 48t146 136.5t45.5 211.5t-46 215t-147 142.5t-267 50.5h-436v-804z" />
    <glyph glyph-name="S" unicode="S" horiz-adv-x="1796" 
d="M1368 1536q-21 153 -147.5 236.5t-312.5 83.5q-204 0 -328 -96.5t-124 -243.5q0 -82 40 -140.5t101 -97t129 -63t126 -39.5l208 -56q65 -16 141.5 -43t153 -69t140 -103.5t102.5 -147.5t39 -201q0 -166 -86.5 -300t-252 -213t-401.5 -79q-220 0 -380.5 71t-251.5 197.5
t-104 295.5h256q12 -116 79.5 -191.5t173 -112t227.5 -36.5q142 0 255 46.5t179 130t66 195.5q0 77 -33 131t-90 93t-130 66.5t-155 49.5l-252 72q-161 46 -277 117.5t-179.5 174t-63.5 240.5q0 172 93.5 300.5t252 200t354.5 71.5q198 0 352 -70.5t243.5 -192t96.5 -277.5
h-240z" />
    <glyph glyph-name="T" unicode="T" horiz-adv-x="1808" 
d="M136 1828v220h1536v-220h-644v-1828h-248v1828h-644z" />
    <glyph glyph-name="U" unicode="U" horiz-adv-x="2088" 
d="M1592 2048h248v-1356q0 -172 -63 -307.5t-173 -229t-254 -142.5t-306 -49t-306 49t-254 142.5t-173 229t-63 307.5v1356h248v-1356q0 -120 44 -212.5t120.5 -155.5t175.5 -95.5t208 -32.5q110 0 208.5 32.5t175 95.5t120.5 155.5t44 212.5v1356z" />
    <glyph glyph-name="V" unicode="V" horiz-adv-x="1904" 
d="M332 2048l608 -1724h24l608 1724h260l-752 -2048h-256l-752 2048h260z" />
    <glyph glyph-name="W" unicode="W" horiz-adv-x="2672" 
d="M620 0l-560 2048h252l428 -1668h20l436 1668h280l436 -1668h20l428 1668h252l-560 -2048h-256l-452 1632h-16l-452 -1632h-256z" />
    <glyph glyph-name="X" unicode="X" horiz-adv-x="1808" 
d="M368 2048l528 -852h16l528 852h292l-644 -1024l644 -1024h-292l-528 836h-16l-528 -836h-292l660 1024l-660 1024h292z" />
    <glyph glyph-name="Y" unicode="Y" horiz-adv-x="1872" 
d="M72 2048h284l568 -956h24l568 956h284l-740 -1204v-844h-248v844z" />
    <glyph glyph-name="Z" unicode="Z" horiz-adv-x="1760" 
d="M180 0v180l1104 1648h-1116v220h1412v-180l-1104 -1648h1116v-220h-1412z" />
    <glyph glyph-name="bracketleft" unicode="[" horiz-adv-x="1020" 
d="M332 -416v2560h592v-196h-368v-2168h368v-196h-592z" />
    <glyph glyph-name="backslash" unicode="\" horiz-adv-x="1008" 
d="M88 2048h232l596 -2356h-232z" />
    <glyph glyph-name="bracketright" unicode="]" horiz-adv-x="1020" 
d="M688 2144v-2560h-592v196h368v2168h-368v196h592z" />
    <glyph glyph-name="asciicircum" unicode="^" horiz-adv-x="1320" 
d="M112 1120l412 864h272l412 -864h-236l-305 652h-13l-302 -652h-240z" />
    <glyph glyph-name="underscore" unicode="_" horiz-adv-x="1272" 
d="M1276 0v-220h-1280v220h1280z" />
    <glyph glyph-name="grave" unicode="`" horiz-adv-x="1400" 
d="M960 1744h-208l-312 464h276z" />
    <glyph glyph-name="a" unicode="a" horiz-adv-x="1588" 
d="M668 -36q-146 0 -265 55.5t-189 161t-70 255.5q0 132 52.5 214.5t138.5 129.5t191.5 71t213.5 37q70 9 127 15q94 10 153.5 21t87.5 34t28 70v8q0 148 -80.5 230t-243.5 82q-112 0 -192 -34.5t-131 -87.5t-77 -110l-224 80q62 139 161.5 218t219 110.5t235.5 31.5
q59 0 134 -10t150.5 -41t140 -91t104 -158t39.5 -244v-1012h-236v208h-12q-18 -38 -54 -80t-91.5 -79.5t-132.5 -61t-178 -23.5zM704 176q140 0 236.5 55t146 142t49.5 183v216q-21 -22 -90.5 -39t-151.5 -28t-141 -18q-14 -2 -25 -3q-93 -11 -172 -38t-127.5 -79.5
t-48.5 -142.5q0 -82 42 -137t115 -83t167 -28z" />
    <glyph glyph-name="b" unicode="b" horiz-adv-x="1748" 
d="M248 0v2048h236v-756h20q6 9 12 19q20 33 51.5 74.5t80.5 80.5t122.5 64.5t177.5 25.5q194 0 342 -97t231 -275t83 -420q0 -244 -83 -422.5t-230 -276t-339 -97.5q-106 0 -181 27.5t-125.5 68.5t-83 84t-51.5 77q-4 6 -7 11h-28v-236h-228zM480 768q0 -174 51 -306.5
t149 -207t240 -74.5q148 0 247.5 78.5t150 212t50.5 297.5q0 162 -49.5 292.5t-149 207t-249.5 76.5q-144 0 -242 -72.5t-148 -202t-50 -301.5z" />
    <glyph glyph-name="c" unicode="c" horiz-adv-x="1572" 
d="M840 -32q-216 0 -372 102t-240 281t-84 409q0 234 86.5 413.5t242 281t363.5 101.5q243 0 408.5 -130.5t199.5 -349.5h-236q-18 71 -65 131.5t-123 98.5t-180 38q-207 0 -333.5 -157.5t-126.5 -418.5q0 -267 125 -427.5t335 -160.5q138 0 235.5 70.5t132.5 197.5h236
q-21 -137 -99 -245t-206.5 -171.5t-298.5 -63.5z" />
    <glyph glyph-name="d" unicode="d" horiz-adv-x="1748" 
d="M796 -32q-192 0 -339 97.5t-230 276t-83 422.5q0 242 83 420t231 275t342 97q104 0 177.5 -25.5t122.5 -64.5t80.5 -80.5t51.5 -74.5q6 -10 12 -19h20v756h236v-2048h-228v236h-28q-3 -5 -7 -11q-19 -34 -51.5 -77t-83 -84t-125.5 -68.5t-181 -27.5zM828 180
q142 0 240 74.5t149 207t51 306.5q0 172 -50 301.5t-148 202t-242 72.5q-150 0 -249.5 -76.5t-149 -207t-49.5 -292.5q0 -164 50.5 -297.5t150 -212t247.5 -78.5z" />
    <glyph glyph-name="e" unicode="e" horiz-adv-x="1640" 
d="M860 -32q-222 0 -382.5 98.5t-247 276t-86.5 413.5t86.5 416.5t242 282t363.5 101.5q120 0 237.5 -40t212.5 -129.5t152.5 -236.5t57.5 -362v-100h-1115q11 -248 141 -378t338 -130q139 0 238.5 60t145.5 180l228 -64q-56 -176 -217 -282t-395 -106zM381 892h875
q0 130 -51.5 232t-146 161t-222.5 59q-135 0 -234 -63t-156 -165.5t-65 -223.5z" />
    <glyph glyph-name="f" unicode="f" horiz-adv-x="1016" 
d="M900 1536v-200h-344v-1336h-236v1336h-248v200h248v212q0 99 36 173.5t97.5 124t139 74t159.5 24.5q87 0 142 -13.5t82 -26.5l-68 -204q-3 1 -7 2q-18 7 -48.5 14.5t-76.5 7.5q-117 0 -168.5 -59t-51.5 -173v-156h344z" />
    <glyph glyph-name="g" unicode="g" horiz-adv-x="1716" 
d="M836 -608q-171 0 -294 43.5t-205 113t-129 151.5l188 132q3 -5 7 -9q23 -33 56.5 -71t83 -72.5t121 -57t172.5 -22.5q124 0 220.5 39.5t152 122t55.5 210.5v312h-20l-6 -10q-20 -34 -51.5 -76t-81.5 -81.5t-125.5 -66t-183.5 -26.5q-186 0 -333.5 88t-233 256t-85.5 408
q0 236 83 411.5t231 272t342 96.5q105 0 179.5 -26t124.5 -65.5t82 -81t51 -75.5q6 -8 11 -16h24v244h228v-1580q0 -148 -51.5 -255t-142.5 -175.5t-211.5 -101t-258.5 -32.5zM828 236q213 0 326.5 144.5t113.5 399.5q0 166 -50 293t-148 199t-242 72q-150 0 -249.5 -76
t-149 -204t-49.5 -284q0 -160 50.5 -282.5t150 -192t247.5 -69.5z" />
    <glyph glyph-name="h" unicode="h" horiz-adv-x="1664" 
d="M452 924v-924h-236v2048h236v-752h20q53 121 162 190.5t290 69.5q157 0 275 -62.5t183.5 -191t65.5 -326.5v-976h-236v960q0 183 -94.5 283.5t-261.5 100.5q-116 0 -207.5 -49t-144 -143t-52.5 -228z" />
    <glyph glyph-name="i" unicode="i" horiz-adv-x="668" 
d="M216 0v1536h236v-1536h-236zM336 1792q-69 0 -118.5 47t-49.5 113t49.5 113t118.5 47t118.5 -47t49.5 -113t-49.5 -113t-118.5 -47z" />
    <glyph glyph-name="j" unicode="j" horiz-adv-x="668" 
d="M216 1536h236v-1648q0 -142 -48.5 -246t-146 -161t-245.5 -57h-48v220h44q108 0 158 63.5t50 180.5v1648zM332 1792q-69 0 -118.5 47t-49.5 113t49.5 113t118.5 47t118.5 -47t49.5 -113t-49.5 -113t-118.5 -47z" />
    <glyph glyph-name="k" unicode="k" horiz-adv-x="1532" 
d="M216 0v2048h236v-1196h28l672 684h292l-649 -656l697 -880h-300l-575 728l-165 -153v-575h-236z" />
    <glyph glyph-name="l" unicode="l" horiz-adv-x="728" 
d="M216 2048h236v-1648q0 -112 26 -157.5t102 -42.5q39 2 60.5 6t36.5 9q2 1 3 1l48 -204q-32 -9 -78.5 -16.5t-97.5 -7.5q-168 0 -252 92t-84 256v1712z" />
    <glyph glyph-name="m" unicode="m" horiz-adv-x="2448" 
d="M216 0v1536h228v-240h20q49 124 155.5 192t256.5 68q152 0 253.5 -68t158.5 -192h16q60 121 177.5 190.5t282.5 69.5q137 0 242.5 -57t165.5 -173.5t60 -297.5v-1028h-236v1028q0 114 -43 183.5t-114 101t-155 31.5q-108 0 -184 -44.5t-116 -122.5t-40 -177v-1000h-240
v1052q0 131 -85 211.5t-219 80.5q-92 0 -171.5 -49t-128 -135.5t-48.5 -199.5v-960h-236z" />
    <glyph glyph-name="n" unicode="n" horiz-adv-x="1648" 
d="M452 924v-924h-236v1536h228v-240h20q54 119 164 189.5t284 70.5q156 0 273 -63.5t182 -192t65 -324.5v-976h-236v960q0 181 -94 282.5t-258 101.5q-113 0 -201.5 -49t-139.5 -143t-51 -228z" />
    <glyph glyph-name="o" unicode="o" horiz-adv-x="1680" 
d="M840 -32q-208 0 -364.5 99t-244 277t-87.5 416q0 240 87.5 419t244 278t364.5 99t364.5 -99t244 -278t87.5 -419q0 -238 -87.5 -416t-244 -277t-364.5 -99zM840 180q119 0 205.5 47t143 127.5t84 185.5t27.5 220q0 116 -27.5 221t-84 186.5t-143 129t-205.5 47.5
q-118 0 -205 -47.5t-143.5 -129t-84 -186.5t-27.5 -221q0 -115 27.5 -220t84 -185.5t143.5 -127.5t205 -47z" />
    <glyph glyph-name="p" unicode="p" horiz-adv-x="1716" 
d="M216 -576v2112h228v-244h28q6 9 12 19q20 33 51.5 74.5t80.5 80.5t122.5 64.5t177.5 25.5q194 0 342 -97t231 -275t83 -420q0 -244 -83 -422.5t-230 -276t-339 -97.5q-106 0 -181 27.5t-125.5 68.5t-83 84t-51.5 77q-4 6 -7 11h-20v-812h-236zM448 768q0 -174 51 -306.5
t149 -207t240 -74.5q148 0 247.5 78.5t150 212t50.5 297.5q0 162 -49.5 292.5t-149 207t-249.5 76.5q-144 0 -242 -72.5t-148 -202t-50 -301.5z" />
    <glyph glyph-name="q" unicode="q" horiz-adv-x="1716" 
d="M1500 -576h-236v812h-20q-3 -5 -7 -11q-19 -34 -51.5 -77t-83 -84t-125.5 -68.5t-181 -27.5q-192 0 -339 97.5t-230 276t-83 422.5q0 242 83 420t231 275t342 97q104 0 177.5 -25.5t122.5 -64.5t80.5 -80.5t51.5 -74.5q6 -10 12 -19h28v244h228v-2112zM1268 768
q0 172 -50 301.5t-148 202t-242 72.5q-150 0 -249.5 -76.5t-149 -207t-49.5 -292.5q0 -164 50.5 -297.5t150 -212t247.5 -78.5q142 0 240 74.5t149 207t51 306.5z" />
    <glyph glyph-name="r" unicode="r" horiz-adv-x="1048" 
d="M216 0v1536h228v-232h16q45 116 153.5 186t246.5 70q26 0 64 -1t60 -3v-240q-14 4 -55.5 10t-88.5 6q-168 0 -278 -102t-110 -258v-972h-236z" />
    <glyph glyph-name="s" unicode="s" horiz-adv-x="1472" 
d="M1304 1192l-212 -60q-20 54 -58.5 104t-104.5 83t-169 33q-141 0 -234.5 -64.5t-93.5 -163.5q0 -88 64 -140t200 -84l228 -56q408 -95 408 -416q0 -132 -75.5 -236t-210.5 -164t-314 -60q-235 0 -388 102t-196 298l224 56q67 -248 356 -248q110 0 191 32.5t125 87
t44 120.5q0 80 -56 134.5t-172 81.5l-256 60q-211 50 -309.5 155.5t-98.5 264.5q0 130 73.5 230t201 157t289.5 57q152 0 260 -45.5t177.5 -127t106.5 -191.5z" />
    <glyph glyph-name="t" unicode="t" horiz-adv-x="1024" 
d="M884 1536v-200h-328v-896q0 -100 29.5 -149.5t76 -66t98.5 -16.5q35 0 58.5 3.5t38.5 7.5q4 0 7 1l48 -212q-24 -10 -67 -19t-109 -9q-75 0 -149 24t-134 73.5t-96.5 124t-36.5 174.5v960h-232v200h232v368h236v-368h328z" />
    <glyph glyph-name="u" unicode="u" horiz-adv-x="1636" 
d="M1184 628v908h236v-1536h-236v260h-16q-36 -79 -98.5 -142t-152 -100.5t-205.5 -37.5q-144 0 -256 63.5t-176 192t-64 324.5v976h236v-960q0 -168 94.5 -268t241.5 -100q66 0 135.5 25t128.5 77t95.5 131t36.5 187z" />
    <glyph glyph-name="v" unicode="v" horiz-adv-x="1568" 
d="M1472 1536l-568 -1536h-240l-568 1536h256l424 -1224h16l424 1224h256z" />
    <glyph glyph-name="w" unicode="w" horiz-adv-x="2288" 
d="M564 0l-468 1536h248l332 -1176h16l328 1176h252l324 -1172h16l332 1172h248l-468 -1536h-232l-336 1180h-24l-336 -1180h-232z" />
    <glyph glyph-name="x" unicode="x" horiz-adv-x="1520" 
d="M392 1536l368 -628l368 628h272l-496 -768l496 -768h-272l-368 596l-368 -596h-272l488 768l-488 768h272z" />
    <glyph glyph-name="y" unicode="y" horiz-adv-x="1568" 
d="M360 -596q-60 0 -106.5 9t-65.5 19l60 208q128 -37 215.5 1.5t148.5 206.5l52 144l-568 1544h256l424 -1224h16l424 1224h256l-660 -1784q-128 -348 -452 -348z" />
    <glyph glyph-name="z" unicode="z" horiz-adv-x="1524" 
d="M172 0v180l872 1120v16h-844v220h1148v-188l-848 -1112v-16h876v-220h-1204z" />
    <glyph glyph-name="braceleft" unicode="{" horiz-adv-x="1020" 
d="M924 -416q-196 0 -309.5 57.5t-162 176t-48.5 302.5v320q0 164 -66.5 234t-233.5 70v240q167 0 233.5 70t66.5 234v320q0 184 48.5 302.5t162 176t309.5 57.5v-196q-116 0 -182.5 -36t-94 -111.5t-27.5 -192.5v-400q0 -81 -22.5 -147.5t-83.5 -112.5t-174 -69v-30
q113 -23 174 -69t83.5 -112t22.5 -148v-400q0 -117 27.5 -192t94 -111.5t182.5 -36.5v-196z" />
    <glyph glyph-name="bar" unicode="|" horiz-adv-x="920" 
d="M560 2708v-3368h-200v3368h200z" />
    <glyph glyph-name="braceright" unicode="}" horiz-adv-x="1020" 
d="M96 2144q196 0 309.5 -57.5t162 -176t48.5 -302.5v-320q0 -164 66.5 -234t233.5 -70v-240q-167 0 -233.5 -70t-66.5 -234v-320q0 -184 -48.5 -302.5t-162 -176t-309.5 -57.5v196q116 0 182.5 36.5t94 111.5t27.5 192v400q0 82 22.5 148t83.5 112t174 69v30
q-113 23 -174 69t-83.5 112.5t-22.5 147.5v400q0 117 -27.5 192.5t-94 111.5t-182.5 36v196z" />
    <glyph glyph-name="asciitilde" unicode="~" horiz-adv-x="1808" 
d="M197 608q-1 165 55 266.5t147.5 147.5t193.5 46t187.5 -44.5t192.5 -139.5q71 -63 117 -89.5t99 -26.5q86 0 135.5 62t48.5 182h216q1 -165 -54.5 -266.5t-147.5 -147.5t-194 -46t-187.5 44.5t-192.5 139.5q-71 63 -117 89.5t-99 26.5q-54 0 -96 -24.5t-65.5 -78.5
t-22.5 -141h-216z" />
    <glyph glyph-name="uni00A0" unicode="&#xa0;" horiz-adv-x="792" 
 />
    <glyph glyph-name="exclamdown" unicode="&#xa1;" horiz-adv-x="784" 
d="M528 -520h-272l20 1472h232zM392 1544q74 0 127 -53t53 -127t-53 -127t-127 -53t-127 53t-53 127t53 127t127 53z" />
    <glyph glyph-name="cent" unicode="&#xa2;" horiz-adv-x="1572" 
d="M744 -256v230q-284 39 -442 253t-158 533q0 325 162 538.5t438 251.5v230h164v-227q219 -23 362 -149t174 -328h-236q-24 96 -99.5 169t-200.5 94v-1154q114 17 192 84.5t108 178.5h236q-29 -193 -168.5 -323.5t-367.5 -153.5v-227h-164zM744 190v1144
q-168 -38 -266 -187t-98 -379q0 -235 97 -387.5t267 -190.5z" />
    <glyph glyph-name="sterling" unicode="&#xa3;" horiz-adv-x="1776" 
d="M1540 0h-1356v220h80q45 0 74 35.5t44.5 89.5t21.5 111.5t4 103.5l-8 236h-224v228h217l-13 404q-5 218 81 362t228.5 215t298.5 71q143 0 260 -51.5t197 -138.5t111.5 -195t3.5 -223l-232 64q12 104 -32.5 176.5t-125 110t-170.5 37.5q-72 0 -141 -25.5t-125 -77.5
t-89 -133t-33 -192l15 -404h481v-228h-473l9 -236q5 -101 -12 -189t-63 -151h971v-220z" />
    <glyph glyph-name="currency" unicode="&#xa4;" horiz-adv-x="2036" 
d="M196 836q0 149 42.5 281t119.5 239l-194 200l160 168l195 -198q103 81 228.5 125.5t264.5 44.5q141 0 268 -45.5t231 -128.5l197 202l164 -168l-201 -203q76 -108 118.5 -238.5t42.5 -278.5q0 -141 -39 -267.5t-109 -232.5l188 -188l-164 -168l-178 183
q-107 -91 -239 -141t-279 -50q-145 0 -275.5 49t-236.5 138l-176 -179l-160 168l182 184q-72 106 -111 234t-39 270zM416 836q0 -176 80.5 -322.5t216 -234t299.5 -87.5t298.5 87.5t214 234t79.5 322.5q0 178 -79.5 324t-214 233t-298.5 87t-299.5 -87t-216 -233t-80.5 -324
z" />
    <glyph glyph-name="yen" unicode="&#xa5;" horiz-adv-x="1544" 
d="M316 2048l447 -972h18l447 972h276l-512 -1028h352v-180h-442l-6 -12v-204h448v-180h-448v-444h-248v444h-448v180h448v204l-6 12h-442v180h352l-512 1028h276z" />
    <glyph glyph-name="brokenbar" unicode="&#xa6;" horiz-adv-x="748" 
d="M264 552h220v-936h-220v936zM484 2048v-932h-220v932h220z" />
    <glyph glyph-name="section" unicode="&#xa7;" horiz-adv-x="1552" 
d="M1272 1564h-228q0 86 -29 154t-89 107t-154 39q-90 0 -147.5 -33t-85 -83t-27.5 -100q0 -60 34 -112.5t83.5 -94t98.5 -69.5l388 -228q40 -22 89.5 -59t95.5 -90.5t76.5 -125.5t30.5 -165q0 -111 -81.5 -215.5t-198.5 -144.5v-4q72 -63 106 -145.5t34 -178.5
q0 -111 -42 -192.5t-113 -134.5t-162.5 -79t-190.5 -26q-158 0 -281 62.5t-193 178t-70 275.5h232q0 -98 40.5 -166t111 -103t160.5 -35q74 0 138 24t103 73t39 123q0 75 -33 125.5t-81.5 86t-97.5 62.5l-4 2l-388 224q-40 22 -89.5 59.5t-95.5 92t-76.5 127t-30.5 165.5
q0 108 77.5 215.5t202.5 148.5v8q-64 63 -102 141.5t-38 174.5q0 124 63 220.5t173 152t252 55.5q154 0 266 -65.5t173 -181t61 -265.5zM1188 704q0 58 -27 106.5t-69.5 87t-91.5 66.5l-392 228q-46 25 -102.5 0.5t-99 -86.5t-42.5 -146q0 -64 27 -112t70.5 -85t94.5 -67
l372 -216q33 -18 76.5 -8.5t85 41t70 81t28.5 110.5z" />
    <glyph glyph-name="dieresis" unicode="&#xa8;" horiz-adv-x="1664" 
d="M544 1792q-63 0 -111.5 48.5t-48.5 111.5q0 69 48.5 114.5t111.5 45.5q69 0 114.5 -45.5t45.5 -114.5q0 -63 -45.5 -111.5t-114.5 -48.5zM1120 1792q-63 0 -111.5 48.5t-48.5 111.5q0 69 48.5 114.5t111.5 45.5q69 0 114.5 -45.5t45.5 -114.5q0 -63 -45.5 -111.5
t-114.5 -48.5z" />
    <glyph glyph-name="copyright" unicode="&#xa9;" horiz-adv-x="2288" 
d="M168 1004q0 218 76.5 405t210.5 326.5t311 218t378 78.5q203 0 380 -78.5t310.5 -218t209.5 -326.5t76 -405q0 -219 -76 -407t-209.5 -328t-310.5 -218.5t-380 -78.5q-201 0 -378 78.5t-311 218.5t-210.5 328t-76.5 407zM336 1004q0 -183 63.5 -339.5t174 -273
t257.5 -182t313 -65.5q224 0 407.5 113.5t292 308t108.5 438.5q0 242 -108.5 436t-292 307t-407.5 113q-166 0 -313 -65t-257.5 -181.5t-174 -272t-63.5 -337.5zM1372 820h216q0 -144 -56.5 -240t-160 -144t-243.5 -48q-148 0 -255.5 67t-166 187t-58.5 278v164
q0 158 58.5 278t166 187t255.5 67q140 0 243.5 -48t160 -144t56.5 -240h-212q0 132 -64 190t-184 58q-88 0 -147.5 -44.5t-90 -123t-30.5 -180.5v-164q0 -102 30.5 -180.5t90 -123t147.5 -44.5q120 0 182 56.5t62 191.5z" />
    <glyph glyph-name="ordfeminine" unicode="&#xaa;" horiz-adv-x="1264" 
d="M810 1066q-42 -47 -111 -80.5t-167 -33.5q-165 0 -254.5 85.5t-89.5 226.5q0 153 117.5 236.5t354.5 83.5h140v68q0 174 -160 176q-90 0 -141 -35t-51 -101l-236 20q0 92 53 164.5t149 114t226 41.5q120 0 210 -42.5t140 -127t50 -210.5v-432q0 -66 7.5 -127t28.5 -121
h-244q-14 44 -22 94zM800 1424h-140q-80 0 -130.5 -21.5t-74 -56t-23.5 -74.5q0 -57 38 -88.5t122 -31.5q56 0 113 25t95 60v187z" />
    <glyph glyph-name="guillemotleft" unicode="&#xab;" horiz-adv-x="1520" 
d="M800 220h-208l-404 600v28l404 600h208l-380 -614zM1312 220h-208l-404 600v28l404 600h208l-380 -614z" />
    <glyph glyph-name="logicalnot" unicode="&#xac;" horiz-adv-x="1520" 
d="M1336 1108v-592h-276v356h-872v236h1148z" />
    <glyph glyph-name="uni00AD" unicode="&#xad;" horiz-adv-x="1296" 
d="M1096 988v-220h-896v220h896z" />
    <glyph glyph-name="registered" unicode="&#xae;" horiz-adv-x="2288" 
d="M168 1004q0 218 76.5 405t210.5 326.5t311 218t378 78.5q203 0 380 -78.5t310.5 -218t209.5 -326.5t76 -405q0 -219 -76 -407t-209.5 -328t-310.5 -218.5t-380 -78.5q-201 0 -378 78.5t-311 218.5t-210.5 328t-76.5 407zM336 1004q0 -183 63.5 -339.5t174 -273
t257.5 -182t313 -65.5q224 0 407.5 113.5t292 308t108.5 438.5q0 242 -108.5 436t-292 307t-407.5 113q-166 0 -313 -65t-257.5 -181.5t-174 -272t-63.5 -337.5zM1164 900h-216v-464h-208v1168h388q136 0 235.5 -39t154 -117t54.5 -196q0 -172 -174 -258q93 -39 131.5 -114
t38.5 -172v-76q0 -102 24 -176v-20h-212q-14 37 -17 101.5t-3 94.5v76q0 96 -44 144t-152 48zM948 1084h208q56 0 104.5 18.5t78 54t29.5 87.5q0 99 -54 137.5t-186 38.5h-180v-336z" />
    <glyph glyph-name="macron" unicode="&#xaf;" horiz-adv-x="1264" 
d="M1100 2048v-200h-936v200h936z" />
    <glyph glyph-name="degree" unicode="&#xb0;" horiz-adv-x="1280" 
d="M640 1144q-127 0 -231.5 62t-166.5 166.5t-62 231.5t62 231.5t166.5 166.5t231.5 62t231.5 -62t166.5 -166.5t62 -231.5t-62 -231.5t-166.5 -166.5t-231.5 -62zM640 1344q108 0 184 76t76 184t-76 184t-184 76t-184 -76t-76 -184t76 -184t184 -76z" />
    <glyph glyph-name="plusminus" unicode="&#xb1;" horiz-adv-x="1808" 
d="M260 904v224h532v408h224v-408h532v-224h-532v-408h-224v408h-532zM260 96v224h1288v-224h-1288z" />
    <glyph glyph-name="uni00B2" unicode="&#xb2;" horiz-adv-x="1184" 
d="M140 1024v156l468 416q105 91 158.5 158.5t53.5 145.5q0 90 -69 143t-171 53q-108 0 -174 -57.5t-66 -150.5h-208q0 114 58 199.5t160 133t234 47.5t232 -47.5t156 -130t56 -186.5q0 -123 -76 -225.5t-240 -242.5l-260 -228v-8h612v-176h-924z" />
    <glyph glyph-name="uni00B3" unicode="&#xb3;" horiz-adv-x="1212" 
d="M604 1008q-207 0 -342 99t-142 261h220q5 -82 79 -131t185 -49q117 0 192.5 54t75.5 138t-80.5 138t-215.5 54h-100v160h100q111 0 185.5 50t74.5 134q0 78 -63 129t-165 51t-174 -49.5t-78 -134.5h-208q7 161 137.5 258.5t322.5 97.5q195 0 317.5 -96.5t122.5 -243.5
q0 -72 -34 -127t-91.5 -90t-130.5 -47v-8q148 -23 226 -102t78 -190q0 -153 -138 -254.5t-354 -101.5z" />
    <glyph glyph-name="acute" unicode="&#xb4;" horiz-adv-x="1400" 
d="M440 1744l244 464h276l-312 -464h-208z" />
    <glyph glyph-name="mu" unicode="&#xb5;" horiz-adv-x="1752" 
d="M216 -576v2112h236v-908q0 -187 116 -303.5t308 -116.5t308 117t116 303v908h236v-1536h-236v228h-12q-64 -122 -174 -185t-238 -63t-237.5 63t-174.5 185h-12v-804h-236z" />
    <glyph glyph-name="paragraph" unicode="&#xb6;" horiz-adv-x="1688" 
d="M1192 0v1828h-248v-1068h-116q-218 0 -369 83.5t-229 229t-78 331.5q0 184 78 329.5t229 230t369 84.5h612v-2048h-248z" />
    <glyph glyph-name="periodcentered" unicode="&#xb7;" horiz-adv-x="784" 
d="M392 876q-74 0 -127 53t-53 127t53 127t127 53t127 -53t53 -127t-53 -127t-127 -53z" />
    <glyph glyph-name="cedilla" unicode="&#xb8;" horiz-adv-x="752" 
d="M280 8h196l-16 -80q53 -8 100 -34t77.5 -75t30.5 -127q0 -86 -47.5 -152t-141 -103t-231.5 -37l-8 156q62 0 111 13t77 41t28 74q0 69 -51.5 95t-164.5 33z" />
    <glyph glyph-name="uni00B9" unicode="&#xb9;" horiz-adv-x="848" 
d="M612 2252v-1228h-212v956h-12q-14 -19 -50.5 -43t-94 -42.5t-135.5 -18.5v172q90 4 156 39.5t103 82t41 82.5h204z" />
    <glyph glyph-name="ordmasculine" unicode="&#xba;" horiz-adv-x="1264" 
d="M156 1436v108q0 142 58 252t165 173t253 63q148 0 254.5 -63t164 -173t57.5 -252v-108q0 -142 -57 -251t-163 -171t-252 -62q-148 0 -255.5 62t-166 171t-58.5 251zM396 1544v-108q0 -82 26.5 -146t80 -101t133.5 -37q78 0 129.5 37t77 101t25.5 146v108
q0 80 -25.5 144.5t-78 102t-132.5 37.5q-78 0 -130.5 -37.5t-79 -102t-26.5 -144.5z" />
    <glyph glyph-name="guillemotright" unicode="&#xbb;" horiz-adv-x="1520" 
d="M700 220l380 614l-380 614h208l404 -600v-28l-404 -600h-208zM188 220l380 614l-380 614h208l404 -600v-28l-404 -600h-208z" />
    <glyph glyph-name="onequarter" unicode="&#xbc;" horiz-adv-x="2476" 
d="M1456 196v164l524 728h260v-724h152v-168h-152v-196h-200v196h-584zM384 0l1408 2048h228l-1408 -2048h-228zM564 2048v-1088h-208v832h-12q-12 -17 -44.5 -39t-84 -39.5t-119.5 -17.5v168q76 0 135 30t92.5 72.5t36.5 81.5h204zM2044 364v496h-8l-364 -492v-4h372z" />
    <glyph glyph-name="onehalf" unicode="&#xbd;" horiz-adv-x="2608" 
d="M384 0l1408 2048h228l-1408 -2048h-228zM1652 0v152l428 360q96 79 140 136t44 120q0 78 -61 125t-151 47t-151 -49.5t-61 -130.5h-200q0 153 115 248.5t301 95.5q124 0 215.5 -44t142 -119t50.5 -169q0 -108 -66.5 -199.5t-221.5 -216.5l-220 -180v-8h548v-168h-852z
M564 2048v-1088h-208v832h-12q-12 -17 -44.5 -39t-84 -39.5t-119.5 -17.5v168q76 0 135 30t92.5 72.5t36.5 81.5h204z" />
    <glyph glyph-name="threequarters" unicode="&#xbe;" horiz-adv-x="2660" 
d="M1640 196v164l524 728h260v-724h152v-168h-152v-196h-200v196h-584zM548 944q-128 0 -228.5 43t-158 118t-57.5 171h212q0 -69 66.5 -114.5t165.5 -45.5t163.5 47.5t64.5 116.5q0 72 -71 116t-185 44h-88v148h88q99 0 165.5 43.5t66.5 112.5q0 66 -57 111t-147 45
t-153 -45.5t-63 -114.5h-204q6 144 123 234t297 90t294 -86t114 -218q0 -93 -65 -154.5t-175 -77.5v-8q136 -19 208 -88t72 -168q0 -138 -125 -229t-323 -91zM568 0l1408 2048h228l-1408 -2048h-228zM2228 364v496h-8l-364 -492v-4h372z" />
    <glyph glyph-name="questiondown" unicode="&#xbf;" horiz-adv-x="1428" 
d="M904 956v-12q-2 -188 -40 -302.5t-108 -185.5t-168 -128q-59 -35 -106 -85t-74.5 -114.5t-27.5 -144.5q0 -98 46 -170t123 -111t171 -39q82 0 158 34t126.5 107t59.5 191h252q-17 -257 -185 -398.5t-411 -141.5q-176 0 -306.5 70t-202 192t-71.5 278q0 166 73.5 284
t206.5 198q130 78 186.5 181t57.5 285v12h240zM776 1548q74 0 127 -53t53 -127t-53 -127t-127 -53t-127 53t-53 127t53 127t127 53z" />
    <glyph glyph-name="Agrave" unicode="&#xc0;" horiz-adv-x="1904" 
d="M332 0h-260l752 2048h256l752 -2048h-260l-206 580h-828zM616 800h672l-328 924h-16zM1060 2256h-208l-312 464h276z" />
    <glyph glyph-name="Aacute" unicode="&#xc1;" horiz-adv-x="1904" 
d="M332 0h-260l752 2048h256l752 -2048h-260l-206 580h-828zM616 800h672l-328 924h-16zM844 2256l244 464h276l-312 -464h-208z" />
    <glyph glyph-name="Acircumflex" unicode="&#xc2;" horiz-adv-x="1904" 
d="M332 0h-260l752 2048h256l752 -2048h-260l-206 580h-828zM616 800h672l-328 924h-16zM744 2232h-224v16l324 416h216l324 -416v-16h-224l-208 280z" />
    <glyph glyph-name="Atilde" unicode="&#xc3;" horiz-adv-x="1904" 
d="M332 0h-260l752 2048h256l752 -2048h-260l-206 580h-828zM616 800h672l-328 924h-16zM644 2252l-184 8q0 153 87.5 250.5t216.5 97.5q58 0 102.5 -20t84.5 -45t82 -44t95 -19q57 0 96.5 44.5t39.5 107.5l180 -16q0 -104 -40 -180.5t-109 -118t-155 -41.5q-72 0 -118 21
t-83 48q-34 23 -71.5 41t-91.5 18q-57 0 -94.5 -44.5t-37.5 -107.5z" />
    <glyph glyph-name="Adieresis" unicode="&#xc4;" horiz-adv-x="1904" 
d="M332 0h-260l752 2048h256l752 -2048h-260l-206 580h-828zM616 800h672l-328 924h-16zM664 2304q-63 0 -111.5 48.5t-48.5 111.5q0 69 48.5 114.5t111.5 45.5q69 0 114.5 -45.5t45.5 -114.5q0 -63 -45.5 -111.5t-114.5 -48.5zM1240 2304q-63 0 -111.5 48.5t-48.5 111.5
q0 69 48.5 114.5t111.5 45.5q69 0 114.5 -45.5t45.5 -114.5q0 -63 -45.5 -111.5t-114.5 -48.5z" />
    <glyph glyph-name="Aring" unicode="&#xc5;" horiz-adv-x="1904" 
d="M332 0h-260l752 2048h256l752 -2048h-260l-206 580h-828zM952 2184q-137 0 -234.5 91.5t-97.5 220.5t97.5 220.5t234.5 91.5t234.5 -91.5t97.5 -220.5t-97.5 -220.5t-234.5 -91.5zM616 800h672l-328 924h-16zM952 2336q68 0 116 46.5t48 113.5t-48 113.5t-116 46.5
t-116 -46.5t-48 -113.5t48 -113.5t116 -46.5z" />
    <glyph glyph-name="AE" unicode="&#xc6;" horiz-adv-x="2788" 
d="M72 0l992 2048h1524v-220h-988v-692h924v-220h-924v-696h1004v-220h-1252v580h-735l-273 -580h-272zM720 800h632v1028h-148z" />
    <glyph glyph-name="Ccedilla" unicode="&#xc7;" horiz-adv-x="2048" 
d="M1896 1408h-248q-50 214 -211 325t-365 111q-139 0 -260 -53t-211.5 -157.5t-141.5 -257t-51 -352.5q0 -199 51 -352t141.5 -257.5t211.5 -157.5t260 -53q204 0 365 111t211 325h248q-57 -294 -254.5 -465.5t-480.5 -198.5l-13 -64q53 -8 100 -34t77.5 -75t30.5 -127
q0 -86 -47.5 -152t-141 -103t-231.5 -37l-8 156q62 0 111 13t77 41t28 74q0 69 -51.5 95t-164.5 33l37 182q-236 27 -414.5 160t-280.5 359t-102 527q0 243 67 437.5t188.5 331.5t287 210t361.5 73q309 0 535 -175.5t289 -492.5z" />
    <glyph glyph-name="Egrave" unicode="&#xc8;" horiz-adv-x="1684" 
d="M248 0v2048h1236v-220h-988v-692h924v-220h-924v-696h1004v-220h-1252zM972 2256h-208l-312 464h276z" />
    <glyph glyph-name="Eacute" unicode="&#xc9;" horiz-adv-x="1684" 
d="M248 0v2048h1236v-220h-988v-692h924v-220h-924v-696h1004v-220h-1252zM756 2256l244 464h276l-312 -464h-208z" />
    <glyph glyph-name="Ecircumflex" unicode="&#xca;" horiz-adv-x="1684" 
d="M248 0v2048h1236v-220h-988v-692h924v-220h-924v-696h1004v-220h-1252zM656 2232h-224v16l324 416h216l324 -416v-16h-224l-208 280z" />
    <glyph glyph-name="Edieresis" unicode="&#xcb;" horiz-adv-x="1684" 
d="M248 0v2048h1236v-220h-988v-692h924v-220h-924v-696h1004v-220h-1252zM576 2304q-63 0 -111.5 48.5t-48.5 111.5q0 69 48.5 114.5t111.5 45.5q69 0 114.5 -45.5t45.5 -114.5q0 -63 -45.5 -111.5t-114.5 -48.5zM1152 2304q-63 0 -111.5 48.5t-48.5 111.5q0 69 48.5 114.5
t111.5 45.5q69 0 114.5 -45.5t45.5 -114.5q0 -63 -45.5 -111.5t-114.5 -48.5z" />
    <glyph glyph-name="Igrave" unicode="&#xcc;" horiz-adv-x="1248" 
d="M136 1828v220h976v-220h-364v-1608h364v-220h-976v220h364v1608h-364zM732 2256h-208l-312 464h276z" />
    <glyph glyph-name="Iacute" unicode="&#xcd;" horiz-adv-x="1248" 
d="M136 1828v220h976v-220h-364v-1608h364v-220h-976v220h364v1608h-364zM516 2256l244 464h276l-312 -464h-208z" />
    <glyph glyph-name="Icircumflex" unicode="&#xce;" horiz-adv-x="1248" 
d="M136 1828v220h976v-220h-364v-1608h364v-220h-976v220h364v1608h-364zM416 2232h-224v16l324 416h216l324 -416v-16h-224l-208 280z" />
    <glyph glyph-name="Idieresis" unicode="&#xcf;" horiz-adv-x="1248" 
d="M136 1828v220h976v-220h-364v-1608h364v-220h-976v220h364v1608h-364zM336 2304q-63 0 -111.5 48.5t-48.5 111.5q0 69 48.5 114.5t111.5 45.5q69 0 114.5 -45.5t45.5 -114.5q0 -63 -45.5 -111.5t-114.5 -48.5zM912 2304q-63 0 -111.5 48.5t-48.5 111.5q0 69 48.5 114.5
t111.5 45.5q69 0 114.5 -45.5t45.5 -114.5q0 -63 -45.5 -111.5t-114.5 -48.5z" />
    <glyph glyph-name="Eth" unicode="&#xd0;" horiz-adv-x="2024" 
d="M880 0h-632v964h-316v184h316v900h660q298 0 510 -122.5t325 -351t113 -546.5q0 -320 -114 -550.5t-332 -354t-530 -123.5zM496 220h368q254 0 421 98t249 279t82 431q0 248 -81 427.5t-242 276t-401 96.5h-396v-680h316v-184h-316v-744z" />
    <glyph glyph-name="Ntilde" unicode="&#xd1;" horiz-adv-x="2120" 
d="M1872 2048v-2048h-240l-1116 1608h-20v-1608h-248v2048h240l1120 -1612h20v1612h244zM752 2232l-184 8q0 153 87.5 250.5t216.5 97.5q58 0 102.5 -20t84.5 -45t82 -44t95 -19q57 0 96.5 44.5t39.5 107.5l180 -16q0 -104 -40 -180.5t-109 -118t-155 -41.5q-72 0 -118 21
t-83 48q-34 23 -71.5 41t-91.5 18q-57 0 -94.5 -44.5t-37.5 -107.5z" />
    <glyph glyph-name="Ograve" unicode="&#xd2;" horiz-adv-x="2144" 
d="M1976 1024q0 -243 -67 -437.5t-188.5 -331.5t-286.5 -210t-362 -73q-196 0 -361.5 73t-287 210t-188.5 331.5t-67 437.5t67 437.5t188.5 331.5t287 210t361.5 73q197 0 362 -73t286.5 -210t188.5 -331.5t67 -437.5zM1736 1024q0 200 -51 352.5t-141.5 257t-211 157.5
t-260.5 53q-139 0 -260 -53t-211.5 -157.5t-141.5 -257t-51 -352.5q0 -199 51 -352t141.5 -257.5t211.5 -157.5t260 -53q140 0 260.5 53t211 157.5t141.5 257.5t51 352zM1180 2256h-208l-312 464h276z" />
    <glyph glyph-name="Oacute" unicode="&#xd3;" horiz-adv-x="2144" 
d="M1976 1024q0 -243 -67 -437.5t-188.5 -331.5t-286.5 -210t-362 -73q-196 0 -361.5 73t-287 210t-188.5 331.5t-67 437.5t67 437.5t188.5 331.5t287 210t361.5 73q197 0 362 -73t286.5 -210t188.5 -331.5t67 -437.5zM1736 1024q0 200 -51 352.5t-141.5 257t-211 157.5
t-260.5 53q-139 0 -260 -53t-211.5 -157.5t-141.5 -257t-51 -352.5q0 -199 51 -352t141.5 -257.5t211.5 -157.5t260 -53q140 0 260.5 53t211 157.5t141.5 257.5t51 352zM964 2256l244 464h276l-312 -464h-208z" />
    <glyph glyph-name="Ocircumflex" unicode="&#xd4;" horiz-adv-x="2144" 
d="M1976 1024q0 -243 -67 -437.5t-188.5 -331.5t-286.5 -210t-362 -73q-196 0 -361.5 73t-287 210t-188.5 331.5t-67 437.5t67 437.5t188.5 331.5t287 210t361.5 73q197 0 362 -73t286.5 -210t188.5 -331.5t67 -437.5zM1736 1024q0 200 -51 352.5t-141.5 257t-211 157.5
t-260.5 53q-139 0 -260 -53t-211.5 -157.5t-141.5 -257t-51 -352.5q0 -199 51 -352t141.5 -257.5t211.5 -157.5t260 -53q140 0 260.5 53t211 157.5t141.5 257.5t51 352zM864 2232h-224v16l324 416h216l324 -416v-16h-224l-208 280z" />
    <glyph glyph-name="Otilde" unicode="&#xd5;" horiz-adv-x="2144" 
d="M1976 1024q0 -243 -67 -437.5t-188.5 -331.5t-286.5 -210t-362 -73q-196 0 -361.5 73t-287 210t-188.5 331.5t-67 437.5t67 437.5t188.5 331.5t287 210t361.5 73q197 0 362 -73t286.5 -210t188.5 -331.5t67 -437.5zM1736 1024q0 200 -51 352.5t-141.5 257t-211 157.5
t-260.5 53q-139 0 -260 -53t-211.5 -157.5t-141.5 -257t-51 -352.5q0 -199 51 -352t141.5 -257.5t211.5 -157.5t260 -53q140 0 260.5 53t211 157.5t141.5 257.5t51 352zM764 2252l-184 8q0 153 87.5 250.5t216.5 97.5q58 0 102.5 -20t84.5 -45t82 -44t95 -19q57 0 96.5 44.5
t39.5 107.5l180 -16q0 -104 -40 -180.5t-109 -118t-155 -41.5q-72 0 -118 21t-83 48q-34 23 -71.5 41t-91.5 18q-57 0 -94.5 -44.5t-37.5 -107.5z" />
    <glyph glyph-name="Odieresis" unicode="&#xd6;" horiz-adv-x="2144" 
d="M1976 1024q0 -243 -67 -437.5t-188.5 -331.5t-286.5 -210t-362 -73q-196 0 -361.5 73t-287 210t-188.5 331.5t-67 437.5t67 437.5t188.5 331.5t287 210t361.5 73q197 0 362 -73t286.5 -210t188.5 -331.5t67 -437.5zM1736 1024q0 200 -51 352.5t-141.5 257t-211 157.5
t-260.5 53q-139 0 -260 -53t-211.5 -157.5t-141.5 -257t-51 -352.5q0 -199 51 -352t141.5 -257.5t211.5 -157.5t260 -53q140 0 260.5 53t211 157.5t141.5 257.5t51 352zM784 2304q-63 0 -111.5 48.5t-48.5 111.5q0 69 48.5 114.5t111.5 45.5q69 0 114.5 -45.5t45.5 -114.5
q0 -63 -45.5 -111.5t-114.5 -48.5zM1360 2304q-63 0 -111.5 48.5t-48.5 111.5q0 69 48.5 114.5t111.5 45.5q69 0 114.5 -45.5t45.5 -114.5q0 -63 -45.5 -111.5t-114.5 -48.5z" />
    <glyph glyph-name="multiply" unicode="&#xd7;" horiz-adv-x="1808" 
d="M1392 160l-488 488l-488 -488l-152 152l488 488l-488 488l152 152l488 -488l488 488l152 -152l-488 -488l488 -488z" />
    <glyph glyph-name="Oslash" unicode="&#xd8;" horiz-adv-x="2144" 
d="M432 -84l-152 104l152 225q-125 138 -194.5 335t-69.5 444q0 243 67 437.5t188.5 331.5t287 210t361.5 73q282 0 497 -148l135 200l152 -104l-147 -218q126 -137 196.5 -335t70.5 -447q0 -243 -67 -437.5t-188.5 -331.5t-286.5 -210t-362 -73q-283 0 -500 151zM1736 1024
q0 185 -43.5 329t-122.5 248l-866 -1282q163 -115 368 -115q140 0 260.5 53t211 157.5t141.5 257.5t51 352zM571 451l865 1281q-161 112 -364 112q-139 0 -260 -53t-211.5 -157.5t-141.5 -257t-51 -352.5q0 -183 43 -326.5t120 -246.5z" />
    <glyph glyph-name="Ugrave" unicode="&#xd9;" horiz-adv-x="2088" 
d="M1592 2048h248v-1356q0 -172 -63 -307.5t-173 -229t-254 -142.5t-306 -49t-306 49t-254 142.5t-173 229t-63 307.5v1356h248v-1356q0 -120 44 -212.5t120.5 -155.5t175.5 -95.5t208 -32.5q110 0 208.5 32.5t175 95.5t120.5 155.5t44 212.5v1356zM1152 2256h-208l-312 464
h276z" />
    <glyph glyph-name="Uacute" unicode="&#xda;" horiz-adv-x="2088" 
d="M1592 2048h248v-1356q0 -172 -63 -307.5t-173 -229t-254 -142.5t-306 -49t-306 49t-254 142.5t-173 229t-63 307.5v1356h248v-1356q0 -120 44 -212.5t120.5 -155.5t175.5 -95.5t208 -32.5q110 0 208.5 32.5t175 95.5t120.5 155.5t44 212.5v1356zM936 2256l244 464h276
l-312 -464h-208z" />
    <glyph glyph-name="Ucircumflex" unicode="&#xdb;" horiz-adv-x="2088" 
d="M1592 2048h248v-1356q0 -172 -63 -307.5t-173 -229t-254 -142.5t-306 -49t-306 49t-254 142.5t-173 229t-63 307.5v1356h248v-1356q0 -120 44 -212.5t120.5 -155.5t175.5 -95.5t208 -32.5q110 0 208.5 32.5t175 95.5t120.5 155.5t44 212.5v1356zM836 2232h-224v16
l324 416h216l324 -416v-16h-224l-208 280z" />
    <glyph glyph-name="Udieresis" unicode="&#xdc;" horiz-adv-x="2088" 
d="M1592 2048h248v-1356q0 -172 -63 -307.5t-173 -229t-254 -142.5t-306 -49t-306 49t-254 142.5t-173 229t-63 307.5v1356h248v-1356q0 -120 44 -212.5t120.5 -155.5t175.5 -95.5t208 -32.5q110 0 208.5 32.5t175 95.5t120.5 155.5t44 212.5v1356zM756 2304
q-63 0 -111.5 48.5t-48.5 111.5q0 69 48.5 114.5t111.5 45.5q69 0 114.5 -45.5t45.5 -114.5q0 -63 -45.5 -111.5t-114.5 -48.5zM1332 2304q-63 0 -111.5 48.5t-48.5 111.5q0 69 48.5 114.5t111.5 45.5q69 0 114.5 -45.5t45.5 -114.5q0 -63 -45.5 -111.5t-114.5 -48.5z" />
    <glyph glyph-name="Yacute" unicode="&#xdd;" horiz-adv-x="1872" 
d="M72 2048h284l568 -956h24l568 956h284l-740 -1204v-844h-248v844zM828 2256l244 464h276l-312 -464h-208z" />
    <glyph glyph-name="Thorn" unicode="&#xde;" horiz-adv-x="1776" 
d="M232 2048h248v-424h396q218 0 369 -79.5t229 -213t78 -295.5t-78 -295.5t-229 -213t-369 -79.5h-396v-448h-248v2048zM480 668h396q213 0 326.5 95t113.5 269t-113.5 273t-326.5 99h-396v-736z" />
    <glyph glyph-name="germandbls" unicode="&#xdf;" horiz-adv-x="1716" 
d="M248 0v1524q0 171 75.5 295t209 190.5t307.5 66.5q170 0 305 -64t213 -182t78 -282q0 -117 -41 -209.5t-113.5 -156.5t-169.5 -98v-20q131 -14 230.5 -78t156.5 -171.5t57 -250.5q0 -162 -74 -289.5t-208 -201t-314 -73.5h-224v220h228q163 0 259.5 96.5t96.5 247.5
q0 106 -48.5 188t-137 129t-210.5 47h-180v224h128q101 0 174.5 51.5t113.5 134t40 174.5q0 96 -43 174t-123 124t-190 46q-155 0 -257.5 -92.5t-102.5 -239.5v-1524h-236z" />
    <glyph glyph-name="agrave" unicode="&#xe0;" horiz-adv-x="1588" 
d="M668 -36q-146 0 -265 55.5t-189 161t-70 255.5q0 132 52.5 214.5t138.5 129.5t191.5 71t213.5 37q70 9 127 15q94 10 153.5 21t87.5 34t28 70v8q0 148 -80.5 230t-243.5 82q-112 0 -192 -34.5t-131 -87.5t-77 -110l-224 80q62 139 161.5 218t219 110.5t235.5 31.5
q59 0 134 -10t150.5 -41t140 -91t104 -158t39.5 -244v-1012h-236v208h-12q-18 -38 -54 -80t-91.5 -79.5t-132.5 -61t-178 -23.5zM704 176q140 0 236.5 55t146 142t49.5 183v216q-21 -22 -90.5 -39t-151.5 -28t-141 -18q-14 -2 -25 -3q-93 -11 -172 -38t-127.5 -79.5
t-48.5 -142.5q0 -82 42 -137t115 -83t167 -28zM928 1744h-208l-312 464h276z" />
    <glyph glyph-name="aacute" unicode="&#xe1;" horiz-adv-x="1588" 
d="M668 -36q-146 0 -265 55.5t-189 161t-70 255.5q0 132 52.5 214.5t138.5 129.5t191.5 71t213.5 37q70 9 127 15q94 10 153.5 21t87.5 34t28 70v8q0 148 -80.5 230t-243.5 82q-112 0 -192 -34.5t-131 -87.5t-77 -110l-224 80q62 139 161.5 218t219 110.5t235.5 31.5
q59 0 134 -10t150.5 -41t140 -91t104 -158t39.5 -244v-1012h-236v208h-12q-18 -38 -54 -80t-91.5 -79.5t-132.5 -61t-178 -23.5zM704 176q140 0 236.5 55t146 142t49.5 183v216q-21 -22 -90.5 -39t-151.5 -28t-141 -18q-14 -2 -25 -3q-93 -11 -172 -38t-127.5 -79.5
t-48.5 -142.5q0 -82 42 -137t115 -83t167 -28zM712 1744l244 464h276l-312 -464h-208z" />
    <glyph glyph-name="acircumflex" unicode="&#xe2;" horiz-adv-x="1588" 
d="M668 -36q-146 0 -265 55.5t-189 161t-70 255.5q0 132 52.5 214.5t138.5 129.5t191.5 71t213.5 37q70 9 127 15q94 10 153.5 21t87.5 34t28 70v8q0 148 -80.5 230t-243.5 82q-112 0 -192 -34.5t-131 -87.5t-77 -110l-224 80q62 139 161.5 218t219 110.5t235.5 31.5
q59 0 134 -10t150.5 -41t140 -91t104 -158t39.5 -244v-1012h-236v208h-12q-18 -38 -54 -80t-91.5 -79.5t-132.5 -61t-178 -23.5zM704 176q140 0 236.5 55t146 142t49.5 183v216q-21 -22 -90.5 -39t-151.5 -28t-141 -18q-14 -2 -25 -3q-93 -11 -172 -38t-127.5 -79.5
t-48.5 -142.5q0 -82 42 -137t115 -83t167 -28zM612 1720h-224v16l324 416h216l324 -416v-16h-224l-208 280z" />
    <glyph glyph-name="atilde" unicode="&#xe3;" horiz-adv-x="1588" 
d="M668 -36q-146 0 -265 55.5t-189 161t-70 255.5q0 132 52.5 214.5t138.5 129.5t191.5 71t213.5 37q70 9 127 15q94 10 153.5 21t87.5 34t28 70v8q0 148 -80.5 230t-243.5 82q-112 0 -192 -34.5t-131 -87.5t-77 -110l-224 80q62 139 161.5 218t219 110.5t235.5 31.5
q59 0 134 -10t150.5 -41t140 -91t104 -158t39.5 -244v-1012h-236v208h-12q-18 -38 -54 -80t-91.5 -79.5t-132.5 -61t-178 -23.5zM704 176q140 0 236.5 55t146 142t49.5 183v216q-21 -22 -90.5 -39t-151.5 -28t-141 -18q-14 -2 -25 -3q-93 -11 -172 -38t-127.5 -79.5
t-48.5 -142.5q0 -82 42 -137t115 -83t167 -28zM512 1720l-184 8q0 153 87.5 250.5t216.5 97.5q58 0 102.5 -20t84.5 -45t82 -44t95 -19q57 0 96.5 44.5t39.5 107.5l180 -16q0 -104 -40 -180.5t-109 -118t-155 -41.5q-72 0 -118 21t-83 48q-34 23 -71.5 41t-91.5 18
q-57 0 -94.5 -44.5t-37.5 -107.5z" />
    <glyph glyph-name="adieresis" unicode="&#xe4;" horiz-adv-x="1588" 
d="M668 -36q-146 0 -265 55.5t-189 161t-70 255.5q0 132 52.5 214.5t138.5 129.5t191.5 71t213.5 37q70 9 127 15q94 10 153.5 21t87.5 34t28 70v8q0 148 -80.5 230t-243.5 82q-112 0 -192 -34.5t-131 -87.5t-77 -110l-224 80q62 139 161.5 218t219 110.5t235.5 31.5
q59 0 134 -10t150.5 -41t140 -91t104 -158t39.5 -244v-1012h-236v208h-12q-18 -38 -54 -80t-91.5 -79.5t-132.5 -61t-178 -23.5zM704 176q140 0 236.5 55t146 142t49.5 183v216q-21 -22 -90.5 -39t-151.5 -28t-141 -18q-14 -2 -25 -3q-93 -11 -172 -38t-127.5 -79.5
t-48.5 -142.5q0 -82 42 -137t115 -83t167 -28zM532 1792q-63 0 -111.5 48.5t-48.5 111.5q0 69 48.5 114.5t111.5 45.5q69 0 114.5 -45.5t45.5 -114.5q0 -63 -45.5 -111.5t-114.5 -48.5zM1108 1792q-63 0 -111.5 48.5t-48.5 111.5q0 69 48.5 114.5t111.5 45.5
q69 0 114.5 -45.5t45.5 -114.5q0 -63 -45.5 -111.5t-114.5 -48.5z" />
    <glyph glyph-name="aring" unicode="&#xe5;" horiz-adv-x="1588" 
d="M668 -36q-146 0 -265 55.5t-189 161t-70 255.5q0 132 52.5 214.5t138.5 129.5t191.5 71t213.5 37q70 9 127 15q94 10 153.5 21t87.5 34t28 70v8q0 148 -80.5 230t-243.5 82q-112 0 -192 -34.5t-131 -87.5t-77 -110l-224 80q62 139 161.5 218t219 110.5t235.5 31.5
q59 0 134 -10t150.5 -41t140 -91t104 -158t39.5 -244v-1012h-236v208h-12q-18 -38 -54 -80t-91.5 -79.5t-132.5 -61t-178 -23.5zM820 1708q-102 0 -184.5 45t-131 122t-48.5 173t48.5 176t131 128t184.5 48t183.5 -48t129 -128t47.5 -176q0 -144 -103.5 -242t-256.5 -98z
M704 176q140 0 236.5 55t146 142t49.5 183v216q-21 -22 -90.5 -39t-151.5 -28t-141 -18q-14 -2 -25 -3q-93 -11 -172 -38t-127.5 -79.5t-48.5 -142.5q0 -82 42 -137t115 -83t167 -28zM820 1860q84 0 138 58t54 130q0 50 -24.5 95t-68 73t-99.5 28t-99.5 -28t-68 -73
t-24.5 -95q0 -72 54 -130t138 -58z" />
    <glyph glyph-name="ae" unicode="&#xe6;" horiz-adv-x="2604" 
d="M1824 -32q-208 0 -359 84t-225 228h-8q-31 -87 -113 -158.5t-199.5 -114.5t-251.5 -43q-146 0 -265 55.5t-189 161t-70 255.5q0 132 52.5 214.5t139 130t191.5 71.5t213 36l122 15q96 10 156.5 21t89 34t28.5 70v8q0 147 -81 229.5t-243 82.5q-112 0 -192 -34.5
t-131 -87.5t-77 -110l-224 80q62 139 161.5 218t219 110.5t235.5 31.5q73 0 168.5 -17t184.5 -70t149 -158q82 117 206.5 181t287.5 64q120 0 237.5 -40t212.5 -129.5t152.5 -236.5t57.5 -362v-100h-1115q11 -247 142 -377.5t337 -130.5q139 0 238.5 60t145.5 180l228 -64
q-56 -176 -217 -282t-395 -106zM704 176q140 0 236.5 55t146 142t49.5 183v216q-21 -22 -90.5 -39t-151.5 -28t-141 -18q-14 -2 -25 -3q-93 -11 -172 -38t-127.5 -79.5t-48.5 -142.5q0 -82 42 -137t115 -83t167 -28zM1345 892h875q0 130 -51.5 232t-146 161t-222.5 59
q-134 0 -233.5 -63.5t-156 -165.5t-65.5 -223z" />
    <glyph glyph-name="ccedilla" unicode="&#xe7;" horiz-adv-x="1572" 
d="M917 -28l-9 -44q53 -8 100 -34t77.5 -75t30.5 -127q0 -86 -47.5 -152t-141 -103t-231.5 -37l-8 156q62 0 111 13t77 41t28 74q0 69 -51.5 95t-164.5 33l34 165q-274 46 -426 258.5t-152 524.5q0 234 86.5 413.5t242 281t363.5 101.5q243 0 408.5 -130.5t199.5 -349.5
h-236q-18 71 -65 131.5t-123 98.5t-180 38q-207 0 -333.5 -157.5t-126.5 -418.5q0 -267 125 -427.5t335 -160.5q138 0 235.5 70.5t132.5 197.5h236q-29 -192 -166 -321.5t-361 -154.5z" />
    <glyph glyph-name="egrave" unicode="&#xe8;" horiz-adv-x="1640" 
d="M860 -32q-222 0 -382.5 98.5t-247 276t-86.5 413.5t86.5 416.5t242 282t363.5 101.5q120 0 237.5 -40t212.5 -129.5t152.5 -236.5t57.5 -362v-100h-1115q11 -248 141 -378t338 -130q139 0 238.5 60t145.5 180l228 -64q-56 -176 -217 -282t-395 -106zM381 892h875
q0 130 -51.5 232t-146 161t-222.5 59q-135 0 -234 -63t-156 -165.5t-65 -223.5zM932 1744h-208l-312 464h276z" />
    <glyph glyph-name="eacute" unicode="&#xe9;" horiz-adv-x="1640" 
d="M860 -32q-222 0 -382.5 98.5t-247 276t-86.5 413.5t86.5 416.5t242 282t363.5 101.5q120 0 237.5 -40t212.5 -129.5t152.5 -236.5t57.5 -362v-100h-1115q11 -248 141 -378t338 -130q139 0 238.5 60t145.5 180l228 -64q-56 -176 -217 -282t-395 -106zM381 892h875
q0 130 -51.5 232t-146 161t-222.5 59q-135 0 -234 -63t-156 -165.5t-65 -223.5zM716 1744l244 464h276l-312 -464h-208z" />
    <glyph glyph-name="ecircumflex" unicode="&#xea;" horiz-adv-x="1640" 
d="M860 -32q-222 0 -382.5 98.5t-247 276t-86.5 413.5t86.5 416.5t242 282t363.5 101.5q120 0 237.5 -40t212.5 -129.5t152.5 -236.5t57.5 -362v-100h-1115q11 -248 141 -378t338 -130q139 0 238.5 60t145.5 180l228 -64q-56 -176 -217 -282t-395 -106zM381 892h875
q0 130 -51.5 232t-146 161t-222.5 59q-135 0 -234 -63t-156 -165.5t-65 -223.5zM616 1720h-224v16l324 416h216l324 -416v-16h-224l-208 280z" />
    <glyph glyph-name="edieresis" unicode="&#xeb;" horiz-adv-x="1640" 
d="M860 -32q-222 0 -382.5 98.5t-247 276t-86.5 413.5t86.5 416.5t242 282t363.5 101.5q120 0 237.5 -40t212.5 -129.5t152.5 -236.5t57.5 -362v-100h-1115q11 -248 141 -378t338 -130q139 0 238.5 60t145.5 180l228 -64q-56 -176 -217 -282t-395 -106zM381 892h875
q0 130 -51.5 232t-146 161t-222.5 59q-135 0 -234 -63t-156 -165.5t-65 -223.5zM536 1792q-63 0 -111.5 48.5t-48.5 111.5q0 69 48.5 114.5t111.5 45.5q69 0 114.5 -45.5t45.5 -114.5q0 -63 -45.5 -111.5t-114.5 -48.5zM1112 1792q-63 0 -111.5 48.5t-48.5 111.5
q0 69 48.5 114.5t111.5 45.5q69 0 114.5 -45.5t45.5 -114.5q0 -63 -45.5 -111.5t-114.5 -48.5z" />
    <glyph glyph-name="igrave" unicode="&#xec;" horiz-adv-x="668" 
d="M216 0v1536h236v-1536h-236zM444 1744h-208l-312 464h276z" />
    <glyph glyph-name="iacute" unicode="&#xed;" horiz-adv-x="668" 
d="M216 0v1536h236v-1536h-236zM228 1744l244 464h276l-312 -464h-208z" />
    <glyph glyph-name="icircumflex" unicode="&#xee;" horiz-adv-x="668" 
d="M216 0v1536h236v-1536h-236zM128 1720h-224v16l324 416h216l324 -416v-16h-224l-208 280z" />
    <glyph glyph-name="idieresis" unicode="&#xef;" horiz-adv-x="668" 
d="M216 0v1536h236v-1536h-236zM48 1792q-63 0 -111.5 48.5t-48.5 111.5q0 69 48.5 114.5t111.5 45.5q69 0 114.5 -45.5t45.5 -114.5q0 -63 -45.5 -111.5t-114.5 -48.5zM624 1792q-63 0 -111.5 48.5t-48.5 111.5q0 69 48.5 114.5t111.5 45.5q69 0 114.5 -45.5t45.5 -114.5
q0 -63 -45.5 -111.5t-114.5 -48.5z" />
    <glyph glyph-name="eth" unicode="&#xf0;" horiz-adv-x="1632" 
d="M1328 1948l-281 -136q127 -132 226.5 -294t157 -354t57.5 -412q0 -248 -84 -423.5t-235 -268t-353 -92.5q-206 0 -357 95t-233 261t-82 380q0 218 82 384t221 259t309 93q116 0 203 -40t147 -99.5t94 -120.5h20q-41 122 -126 262.5t-230 281.5l-356 -172l-68 148l287 139
q-117 89 -271 169l104 168q185 -94 360 -244l340 164zM816 180q146 0 245 68t149 183t50 257q0 98 -25 196t-78.5 179.5t-137.5 131t-203 49.5q-109 0 -191 -43.5t-136.5 -118.5t-81.5 -172.5t-27 -205.5q0 -102 25 -196t77.5 -168t135.5 -117t198 -43z" />
    <glyph glyph-name="ntilde" unicode="&#xf1;" horiz-adv-x="1648" 
d="M452 924v-924h-236v1536h228v-240h20q54 119 164 189.5t284 70.5q156 0 273 -63.5t182 -192t65 -324.5v-976h-236v960q0 181 -94 282.5t-258 101.5q-113 0 -201.5 -49t-139.5 -143t-51 -228zM516 1720l-184 8q0 153 87.5 250.5t216.5 97.5q58 0 102.5 -20t84.5 -45
t82 -44t95 -19q57 0 96.5 44.5t39.5 107.5l180 -16q0 -104 -40 -180.5t-109 -118t-155 -41.5q-72 0 -118 21t-83 48q-34 23 -71.5 41t-91.5 18q-57 0 -94.5 -44.5t-37.5 -107.5z" />
    <glyph glyph-name="ograve" unicode="&#xf2;" horiz-adv-x="1680" 
d="M840 -32q-208 0 -364.5 99t-244 277t-87.5 416q0 240 87.5 419t244 278t364.5 99t364.5 -99t244 -278t87.5 -419q0 -238 -87.5 -416t-244 -277t-364.5 -99zM840 180q119 0 205.5 47t143 127.5t84 185.5t27.5 220q0 116 -27.5 221t-84 186.5t-143 129t-205.5 47.5
q-118 0 -205 -47.5t-143.5 -129t-84 -186.5t-27.5 -221q0 -115 27.5 -220t84 -185.5t143.5 -127.5t205 -47zM948 1744h-208l-312 464h276z" />
    <glyph glyph-name="oacute" unicode="&#xf3;" horiz-adv-x="1680" 
d="M840 -32q-208 0 -364.5 99t-244 277t-87.5 416q0 240 87.5 419t244 278t364.5 99t364.5 -99t244 -278t87.5 -419q0 -238 -87.5 -416t-244 -277t-364.5 -99zM840 180q119 0 205.5 47t143 127.5t84 185.5t27.5 220q0 116 -27.5 221t-84 186.5t-143 129t-205.5 47.5
q-118 0 -205 -47.5t-143.5 -129t-84 -186.5t-27.5 -221q0 -115 27.5 -220t84 -185.5t143.5 -127.5t205 -47zM732 1744l244 464h276l-312 -464h-208z" />
    <glyph glyph-name="ocircumflex" unicode="&#xf4;" horiz-adv-x="1680" 
d="M840 -32q-208 0 -364.5 99t-244 277t-87.5 416q0 240 87.5 419t244 278t364.5 99t364.5 -99t244 -278t87.5 -419q0 -238 -87.5 -416t-244 -277t-364.5 -99zM840 180q119 0 205.5 47t143 127.5t84 185.5t27.5 220q0 116 -27.5 221t-84 186.5t-143 129t-205.5 47.5
q-118 0 -205 -47.5t-143.5 -129t-84 -186.5t-27.5 -221q0 -115 27.5 -220t84 -185.5t143.5 -127.5t205 -47zM632 1720h-224v16l324 416h216l324 -416v-16h-224l-208 280z" />
    <glyph glyph-name="otilde" unicode="&#xf5;" horiz-adv-x="1680" 
d="M840 -32q-208 0 -364.5 99t-244 277t-87.5 416q0 240 87.5 419t244 278t364.5 99t364.5 -99t244 -278t87.5 -419q0 -238 -87.5 -416t-244 -277t-364.5 -99zM840 180q119 0 205.5 47t143 127.5t84 185.5t27.5 220q0 116 -27.5 221t-84 186.5t-143 129t-205.5 47.5
q-118 0 -205 -47.5t-143.5 -129t-84 -186.5t-27.5 -221q0 -115 27.5 -220t84 -185.5t143.5 -127.5t205 -47zM604 1720l-184 8q0 153 87.5 250.5t216.5 97.5q58 0 102.5 -20t84.5 -45t82 -44t95 -19q57 0 96.5 44.5t39.5 107.5l180 -16q0 -104 -40 -180.5t-109 -118
t-155 -41.5q-72 0 -118 21t-83 48q-34 23 -71.5 41t-91.5 18q-57 0 -94.5 -44.5t-37.5 -107.5z" />
    <glyph glyph-name="odieresis" unicode="&#xf6;" horiz-adv-x="1680" 
d="M840 -32q-208 0 -364.5 99t-244 277t-87.5 416q0 240 87.5 419t244 278t364.5 99t364.5 -99t244 -278t87.5 -419q0 -238 -87.5 -416t-244 -277t-364.5 -99zM840 180q119 0 205.5 47t143 127.5t84 185.5t27.5 220q0 116 -27.5 221t-84 186.5t-143 129t-205.5 47.5
q-118 0 -205 -47.5t-143.5 -129t-84 -186.5t-27.5 -221q0 -115 27.5 -220t84 -185.5t143.5 -127.5t205 -47zM552 1792q-63 0 -111.5 48.5t-48.5 111.5q0 69 48.5 114.5t111.5 45.5q69 0 114.5 -45.5t45.5 -114.5q0 -63 -45.5 -111.5t-114.5 -48.5zM1128 1792
q-63 0 -111.5 48.5t-48.5 111.5q0 69 48.5 114.5t111.5 45.5q69 0 114.5 -45.5t45.5 -114.5q0 -63 -45.5 -111.5t-114.5 -48.5z" />
    <glyph glyph-name="divide" unicode="&#xf7;" horiz-adv-x="1808" 
d="M1544 912v-224h-1280v224h1280zM904 1140q-75 0 -127.5 52.5t-52.5 127.5q0 72 52.5 124t127.5 52q72 0 124 -52t52 -124q0 -75 -52 -127.5t-124 -52.5zM904 104q-75 0 -127.5 52.5t-52.5 127.5q0 72 52.5 124t127.5 52q72 0 124 -52t52 -124q0 -75 -52 -127.5
t-124 -52.5z" />
    <glyph glyph-name="oslash" unicode="&#xf8;" horiz-adv-x="1680" 
d="M380 -84l-152 104l110 163q-93 105 -143.5 251.5t-50.5 325.5q0 240 87.5 419t244 278t364.5 99q204 0 360 -96l100 148l152 -104l-110 -163q93 -105 143.5 -252t50.5 -329q0 -238 -87.5 -416t-244 -277t-364.5 -99q-204 0 -360 96zM840 180q119 0 205.5 47t143 127.5
t84 185.5t27.5 220q0 106 -23 203.5t-71 176.5l-603 -894q96 -66 237 -66zM473 383l604 894q-96 67 -237 67q-118 0 -205 -47.5t-143.5 -129t-84 -186.5t-27.5 -221q0 -106 23 -202.5t70 -174.5z" />
    <glyph glyph-name="ugrave" unicode="&#xf9;" horiz-adv-x="1636" 
d="M1184 628v908h236v-1536h-236v260h-16q-36 -79 -98.5 -142t-152 -100.5t-205.5 -37.5q-144 0 -256 63.5t-176 192t-64 324.5v976h236v-960q0 -168 94.5 -268t241.5 -100q66 0 135.5 25t128.5 77t95.5 131t36.5 187zM928 1744h-208l-312 464h276z" />
    <glyph glyph-name="uacute" unicode="&#xfa;" horiz-adv-x="1636" 
d="M1184 628v908h236v-1536h-236v260h-16q-36 -79 -98.5 -142t-152 -100.5t-205.5 -37.5q-144 0 -256 63.5t-176 192t-64 324.5v976h236v-960q0 -168 94.5 -268t241.5 -100q66 0 135.5 25t128.5 77t95.5 131t36.5 187zM712 1744l244 464h276l-312 -464h-208z" />
    <glyph glyph-name="ucircumflex" unicode="&#xfb;" horiz-adv-x="1636" 
d="M1184 628v908h236v-1536h-236v260h-16q-36 -79 -98.5 -142t-152 -100.5t-205.5 -37.5q-144 0 -256 63.5t-176 192t-64 324.5v976h236v-960q0 -168 94.5 -268t241.5 -100q66 0 135.5 25t128.5 77t95.5 131t36.5 187zM612 1720h-224v16l324 416h216l324 -416v-16h-224
l-208 280z" />
    <glyph glyph-name="udieresis" unicode="&#xfc;" horiz-adv-x="1636" 
d="M1184 628v908h236v-1536h-236v260h-16q-36 -79 -98.5 -142t-152 -100.5t-205.5 -37.5q-144 0 -256 63.5t-176 192t-64 324.5v976h236v-960q0 -168 94.5 -268t241.5 -100q66 0 135.5 25t128.5 77t95.5 131t36.5 187zM532 1792q-63 0 -111.5 48.5t-48.5 111.5
q0 69 48.5 114.5t111.5 45.5q69 0 114.5 -45.5t45.5 -114.5q0 -63 -45.5 -111.5t-114.5 -48.5zM1108 1792q-63 0 -111.5 48.5t-48.5 111.5q0 69 48.5 114.5t111.5 45.5q69 0 114.5 -45.5t45.5 -114.5q0 -63 -45.5 -111.5t-114.5 -48.5z" />
    <glyph glyph-name="yacute" unicode="&#xfd;" horiz-adv-x="1568" 
d="M360 -596q-60 0 -106.5 9t-65.5 19l60 208q128 -37 215.5 1.5t148.5 206.5l52 144l-568 1544h256l424 -1224h16l424 1224h256l-660 -1784q-128 -348 -452 -348zM676 1744l244 464h276l-312 -464h-208z" />
    <glyph glyph-name="thorn" unicode="&#xfe;" horiz-adv-x="1716" 
d="M216 2048h236v-756h20q6 9 12 19q20 33 51.5 74.5t80.5 80.5t122.5 64.5t177.5 25.5q194 0 342 -97t231 -275t83 -420q0 -244 -83 -422.5t-230 -276t-339 -97.5q-106 0 -181 27.5t-125.5 68.5t-83 84t-51.5 77q-4 6 -7 11h-20v-812h-236v2624zM1336 768
q0 162 -49.5 292.5t-149 207t-249.5 76.5q-144 0 -242 -72.5t-148 -202t-50 -301.5q0 -174 51 -306.5t149 -207t240 -74.5q148 0 247.5 78.5t150 212t50.5 297.5z" />
    <glyph glyph-name="ydieresis" unicode="&#xff;" horiz-adv-x="1568" 
d="M360 -596q-60 0 -106.5 9t-65.5 19l60 208q128 -37 215.5 1.5t148.5 206.5l52 144l-568 1544h256l424 -1224h16l424 1224h256l-660 -1784q-128 -348 -452 -348zM496 1792q-63 0 -111.5 48.5t-48.5 111.5q0 69 48.5 114.5t111.5 45.5q69 0 114.5 -45.5t45.5 -114.5
q0 -63 -45.5 -111.5t-114.5 -48.5zM1072 1792q-63 0 -111.5 48.5t-48.5 111.5q0 69 48.5 114.5t111.5 45.5q69 0 114.5 -45.5t45.5 -114.5q0 -63 -45.5 -111.5t-114.5 -48.5z" />
    <glyph glyph-name="Amacron" unicode="&#x100;" horiz-adv-x="1904" 
d="M332 0h-260l752 2048h256l752 -2048h-260l-206 580h-828zM616 800h672l-328 924h-16zM1420 2560v-200h-936v200h936z" />
    <glyph glyph-name="amacron" unicode="&#x101;" horiz-adv-x="1588" 
d="M668 -36q-146 0 -265 55.5t-189 161t-70 255.5q0 132 52.5 214.5t138.5 129.5t191.5 71t213.5 37q70 9 127 15q94 10 153.5 21t87.5 34t28 70v8q0 148 -80.5 230t-243.5 82q-112 0 -192 -34.5t-131 -87.5t-77 -110l-224 80q62 139 161.5 218t219 110.5t235.5 31.5
q59 0 134 -10t150.5 -41t140 -91t104 -158t39.5 -244v-1012h-236v208h-12q-18 -38 -54 -80t-91.5 -79.5t-132.5 -61t-178 -23.5zM704 176q140 0 236.5 55t146 142t49.5 183v216q-21 -22 -90.5 -39t-151.5 -28t-141 -18q-14 -2 -25 -3q-93 -11 -172 -38t-127.5 -79.5
t-48.5 -142.5q0 -82 42 -137t115 -83t167 -28zM1288 2048v-200h-936v200h936z" />
    <glyph glyph-name="Abreve" unicode="&#x102;" horiz-adv-x="1904" 
d="M332 0h-260l752 2048h256l752 -2048h-260l-206 580h-828zM616 800h672l-328 924h-16zM1148 2560h220q0 -162 -112 -265t-304 -103q-189 0 -300.5 103t-111.5 265h220q0 -52 19 -96.5t61 -72t112 -27.5t113 27.5t63 72t20 96.5z" />
    <glyph glyph-name="abreve" unicode="&#x103;" horiz-adv-x="1588" 
d="M668 -36q-146 0 -265 55.5t-189 161t-70 255.5q0 132 52.5 214.5t138.5 129.5t191.5 71t213.5 37q70 9 127 15q94 10 153.5 21t87.5 34t28 70v8q0 148 -80.5 230t-243.5 82q-112 0 -192 -34.5t-131 -87.5t-77 -110l-224 80q62 139 161.5 218t219 110.5t235.5 31.5
q59 0 134 -10t150.5 -41t140 -91t104 -158t39.5 -244v-1012h-236v208h-12q-18 -38 -54 -80t-91.5 -79.5t-132.5 -61t-178 -23.5zM704 176q140 0 236.5 55t146 142t49.5 183v216q-21 -22 -90.5 -39t-151.5 -28t-141 -18q-14 -2 -25 -3q-93 -11 -172 -38t-127.5 -79.5
t-48.5 -142.5q0 -82 42 -137t115 -83t167 -28zM1016 2048h220q0 -162 -112 -265t-304 -103q-189 0 -300.5 103t-111.5 265h220q0 -52 19 -96.5t61 -72t112 -27.5t113 27.5t63 72t20 96.5z" />
    <glyph glyph-name="Aogonek" unicode="&#x104;" horiz-adv-x="1904" 
d="M332 0h-260l752 2048h256l752 -2048q-61 -44 -113.5 -91.5t-85.5 -100t-33 -112.5q0 -45 22 -70.5t82 -25.5q45 0 80 11.5t56 24.5l16 -176q-33 -22 -86.5 -41t-125.5 -19q-82 0 -146 30t-101 89t-37 145t50 172t162 164l-206 580h-828zM616 800h672l-328 924h-16z" />
    <glyph glyph-name="aogonek" unicode="&#x105;" horiz-adv-x="1588" 
d="M668 -36q-146 0 -265 55.5t-189 161t-70 255.5q0 132 52.5 214.5t138.5 129.5t191.5 71t213.5 37q70 9 127 15q94 10 153.5 21t87.5 34t28 70v8q0 148 -80.5 230t-243.5 82q-112 0 -192 -34.5t-131 -87.5t-77 -110l-224 80q62 139 161.5 218t219 110.5t235.5 31.5
q59 0 134 -10t150.5 -41t140 -91t104 -158t39.5 -244v-1012q-61 -44 -113.5 -91.5t-85.5 -100t-33 -112.5q0 -45 22 -70.5t82 -25.5q45 0 80 11.5t56 24.5l16 -176q-33 -22 -86.5 -41t-125.5 -19q-82 0 -146 30t-101 89t-37 145q0 91 55 181t181 171v192h-12
q-18 -38 -54 -80t-91.5 -79.5t-132.5 -61t-178 -23.5zM704 176q140 0 236.5 55t146 142t49.5 183v216q-21 -22 -90.5 -39t-151.5 -28t-141 -18q-14 -2 -25 -3q-93 -11 -172 -38t-127.5 -79.5t-48.5 -142.5q0 -82 42 -137t115 -83t167 -28z" />
    <glyph glyph-name="Cacute" unicode="&#x106;" horiz-adv-x="2048" 
d="M1896 1408h-248q-50 214 -211 325t-365 111q-139 0 -260 -53t-211.5 -157.5t-141.5 -257t-51 -352.5q0 -199 51 -352t141.5 -257.5t211.5 -157.5t260 -53q204 0 365 111t211 325h248q-63 -317 -289 -492.5t-535 -175.5q-196 0 -361.5 73t-287 210t-188.5 331.5t-67 437.5
t67 437.5t188.5 331.5t287 210t361.5 73q309 0 535 -175.5t289 -492.5zM964 2256l244 464h276l-312 -464h-208z" />
    <glyph glyph-name="cacute" unicode="&#x107;" horiz-adv-x="1572" 
d="M840 -32q-216 0 -372 102t-240 281t-84 409q0 234 86.5 413.5t242 281t363.5 101.5q243 0 408.5 -130.5t199.5 -349.5h-236q-18 71 -65 131.5t-123 98.5t-180 38q-207 0 -333.5 -157.5t-126.5 -418.5q0 -267 125 -427.5t335 -160.5q138 0 235.5 70.5t132.5 197.5h236
q-21 -137 -99 -245t-206.5 -171.5t-298.5 -63.5zM724 1744l244 464h276l-312 -464h-208z" />
    <glyph glyph-name="Ccircumflex" unicode="&#x108;" horiz-adv-x="2048" 
d="M1896 1408h-248q-50 214 -211 325t-365 111q-139 0 -260 -53t-211.5 -157.5t-141.5 -257t-51 -352.5q0 -199 51 -352t141.5 -257.5t211.5 -157.5t260 -53q204 0 365 111t211 325h248q-63 -317 -289 -492.5t-535 -175.5q-196 0 -361.5 73t-287 210t-188.5 331.5t-67 437.5
t67 437.5t188.5 331.5t287 210t361.5 73q309 0 535 -175.5t289 -492.5zM864 2232h-224v16l324 416h216l324 -416v-16h-224l-208 280z" />
    <glyph glyph-name="ccircumflex" unicode="&#x109;" horiz-adv-x="1572" 
d="M840 -32q-216 0 -372 102t-240 281t-84 409q0 234 86.5 413.5t242 281t363.5 101.5q243 0 408.5 -130.5t199.5 -349.5h-236q-18 71 -65 131.5t-123 98.5t-180 38q-207 0 -333.5 -157.5t-126.5 -418.5q0 -267 125 -427.5t335 -160.5q138 0 235.5 70.5t132.5 197.5h236
q-21 -137 -99 -245t-206.5 -171.5t-298.5 -63.5zM624 1720h-224v16l324 416h216l324 -416v-16h-224l-208 280z" />
    <glyph glyph-name="Cdotaccent" unicode="&#x10a;" horiz-adv-x="2048" 
d="M1896 1408h-248q-50 214 -211 325t-365 111q-139 0 -260 -53t-211.5 -157.5t-141.5 -257t-51 -352.5q0 -199 51 -352t141.5 -257.5t211.5 -157.5t260 -53q204 0 365 111t211 325h248q-63 -317 -289 -492.5t-535 -175.5q-196 0 -361.5 73t-287 210t-188.5 331.5t-67 437.5
t67 437.5t188.5 331.5t287 210t361.5 73q309 0 535 -175.5t289 -492.5zM1072 2304q-69 0 -118.5 47t-49.5 113t49.5 113t118.5 47t118.5 -47t49.5 -113t-49.5 -113t-118.5 -47z" />
    <glyph glyph-name="cdotaccent" unicode="&#x10b;" horiz-adv-x="1572" 
d="M840 -32q-216 0 -372 102t-240 281t-84 409q0 234 86.5 413.5t242 281t363.5 101.5q243 0 408.5 -130.5t199.5 -349.5h-236q-18 71 -65 131.5t-123 98.5t-180 38q-207 0 -333.5 -157.5t-126.5 -418.5q0 -267 125 -427.5t335 -160.5q138 0 235.5 70.5t132.5 197.5h236
q-21 -137 -99 -245t-206.5 -171.5t-298.5 -63.5zM832 1792q-69 0 -118.5 47t-49.5 113t49.5 113t118.5 47t118.5 -47t49.5 -113t-49.5 -113t-118.5 -47z" />
    <glyph glyph-name="Ccaron" unicode="&#x10c;" horiz-adv-x="2048" 
d="M1896 1408h-248q-50 214 -211 325t-365 111q-139 0 -260 -53t-211.5 -157.5t-141.5 -257t-51 -352.5q0 -199 51 -352t141.5 -257.5t211.5 -157.5t260 -53q204 0 365 111t211 325h248q-63 -317 -289 -492.5t-535 -175.5q-196 0 -361.5 73t-287 210t-188.5 331.5t-67 437.5
t67 437.5t188.5 331.5t287 210t361.5 73q309 0 535 -175.5t289 -492.5zM864 2664l208 -280l208 280h224v-16l-324 -416h-216l-324 416v16h224z" />
    <glyph glyph-name="ccaron" unicode="&#x10d;" horiz-adv-x="1572" 
d="M840 -32q-216 0 -372 102t-240 281t-84 409q0 234 86.5 413.5t242 281t363.5 101.5q243 0 408.5 -130.5t199.5 -349.5h-236q-18 71 -65 131.5t-123 98.5t-180 38q-207 0 -333.5 -157.5t-126.5 -418.5q0 -267 125 -427.5t335 -160.5q138 0 235.5 70.5t132.5 197.5h236
q-21 -137 -99 -245t-206.5 -171.5t-298.5 -63.5zM624 2152l208 -280l208 280h224v-16l-324 -416h-216l-324 416v16h224z" />
    <glyph glyph-name="Dcaron" unicode="&#x10e;" horiz-adv-x="2024" 
d="M880 0h-632v2048h660q298 0 510 -122.5t325 -351t113 -546.5q0 -320 -114 -550.5t-332 -354t-530 -123.5zM496 220h368q254 0 421 98t249 279t82 431q0 248 -81 427.5t-242 276t-401 96.5h-396v-1608zM640 2664l208 -280l208 280h224v-16l-324 -416h-216l-324 416v16h224
z" />
    <glyph glyph-name="dcaron" unicode="&#x10f;" horiz-adv-x="1924" 
d="M796 -32q-192 0 -339 97.5t-230 276t-83 422.5q0 242 83 420t231 275t342 97q104 0 177.5 -25.5t122.5 -64.5t80.5 -80.5t51.5 -74.5q6 -10 12 -19h20v756h236v-2048h-228v236h-28q-3 -5 -7 -11q-19 -34 -51.5 -77t-83 -84t-125.5 -68.5t-181 -27.5zM828 180
q142 0 240 74.5t149 207t51 306.5q0 172 -50 301.5t-148 202t-242 72.5q-150 0 -249.5 -76.5t-149 -207t-49.5 -292.5q0 -164 50.5 -297.5t150 -212t247.5 -78.5zM1956 2048v-124q-3 -136 -42.5 -287.5t-117.5 -272.5l-200 40q52 123 88 262.5t36 253.5v128h236z" />
    <glyph glyph-name="Dcroat" unicode="&#x110;" horiz-adv-x="2024" 
d="M880 0h-632v964h-316v184h316v900h660q298 0 510 -122.5t325 -351t113 -546.5q0 -320 -114 -550.5t-332 -354t-530 -123.5zM496 220h368q254 0 421 98t249 279t82 431q0 248 -81 427.5t-242 276t-401 96.5h-396v-680h316v-184h-316v-744z" />
    <glyph glyph-name="dcroat" unicode="&#x111;" horiz-adv-x="1748" 
d="M796 -32q-192 0 -339 97.5t-230 276t-83 422.5q0 242 83 420t231 275t342 97q104 0 177.5 -25.5t122.5 -64.5t80.5 -80.5t51.5 -74.5q6 -10 12 -19h20v376h-424v184h424v196h236v-196h220v-184h-220v-1668h-228v236h-28q-3 -5 -7 -11q-19 -34 -51.5 -77t-83 -84
t-125.5 -68.5t-181 -27.5zM828 180q142 0 240 74.5t149 207t51 306.5q0 172 -50 301.5t-148 202t-242 72.5q-150 0 -249.5 -76.5t-149 -207t-49.5 -292.5q0 -164 50.5 -297.5t150 -212t247.5 -78.5z" />
    <glyph glyph-name="Emacron" unicode="&#x112;" horiz-adv-x="1684" 
d="M248 0v2048h1236v-220h-988v-692h924v-220h-924v-696h1004v-220h-1252zM1332 2560v-200h-936v200h936z" />
    <glyph glyph-name="emacron" unicode="&#x113;" horiz-adv-x="1640" 
d="M860 -32q-222 0 -382.5 98.5t-247 276t-86.5 413.5t86.5 416.5t242 282t363.5 101.5q120 0 237.5 -40t212.5 -129.5t152.5 -236.5t57.5 -362v-100h-1115q11 -248 141 -378t338 -130q139 0 238.5 60t145.5 180l228 -64q-56 -176 -217 -282t-395 -106zM381 892h875
q0 130 -51.5 232t-146 161t-222.5 59q-135 0 -234 -63t-156 -165.5t-65 -223.5zM1292 2048v-200h-936v200h936z" />
    <glyph glyph-name="Ebreve" unicode="&#x114;" horiz-adv-x="1684" 
d="M248 0v2048h1236v-220h-988v-692h924v-220h-924v-696h1004v-220h-1252zM1060 2560h220q0 -162 -112 -265t-304 -103q-189 0 -300.5 103t-111.5 265h220q0 -52 19 -96.5t61 -72t112 -27.5t113 27.5t63 72t20 96.5z" />
    <glyph glyph-name="ebreve" unicode="&#x115;" horiz-adv-x="1640" 
d="M860 -32q-222 0 -382.5 98.5t-247 276t-86.5 413.5t86.5 416.5t242 282t363.5 101.5q120 0 237.5 -40t212.5 -129.5t152.5 -236.5t57.5 -362v-100h-1115q11 -248 141 -378t338 -130q139 0 238.5 60t145.5 180l228 -64q-56 -176 -217 -282t-395 -106zM381 892h875
q0 130 -51.5 232t-146 161t-222.5 59q-135 0 -234 -63t-156 -165.5t-65 -223.5zM1020 2048h220q0 -162 -112 -265t-304 -103q-189 0 -300.5 103t-111.5 265h220q0 -52 19 -96.5t61 -72t112 -27.5t113 27.5t63 72t20 96.5z" />
    <glyph glyph-name="Edotaccent" unicode="&#x116;" horiz-adv-x="1684" 
d="M248 0v2048h1236v-220h-988v-692h924v-220h-924v-696h1004v-220h-1252zM864 2304q-69 0 -118.5 47t-49.5 113t49.5 113t118.5 47t118.5 -47t49.5 -113t-49.5 -113t-118.5 -47z" />
    <glyph glyph-name="edotaccent" unicode="&#x117;" horiz-adv-x="1640" 
d="M860 -32q-222 0 -382.5 98.5t-247 276t-86.5 413.5t86.5 416.5t242 282t363.5 101.5q120 0 237.5 -40t212.5 -129.5t152.5 -236.5t57.5 -362v-100h-1115q11 -248 141 -378t338 -130q139 0 238.5 60t145.5 180l228 -64q-56 -176 -217 -282t-395 -106zM381 892h875
q0 130 -51.5 232t-146 161t-222.5 59q-135 0 -234 -63t-156 -165.5t-65 -223.5zM824 1792q-69 0 -118.5 47t-49.5 113t49.5 113t118.5 47t118.5 -47t49.5 -113t-49.5 -113t-118.5 -47z" />
    <glyph glyph-name="Eogonek" unicode="&#x118;" horiz-adv-x="1684" 
d="M248 0v2048h1236v-220h-988v-692h924v-220h-924v-696h1004v-220q-61 -44 -113.5 -91.5t-85.5 -100t-33 -112.5q0 -45 22 -70.5t82 -25.5q45 0 80 11.5t56 24.5l16 -176q-33 -22 -86.5 -41t-125.5 -19q-82 0 -146 30t-101 89t-37 145t50 172t162 164h-992z" />
    <glyph glyph-name="eogonek" unicode="&#x119;" horiz-adv-x="1640" 
d="M868 -600q-82 0 -146 30t-101 89t-37 145q0 80 41.5 158.5t134.5 151.5q-291 37 -453.5 246.5t-162.5 535.5q0 236 86.5 416.5t242 282t363.5 101.5q120 0 237.5 -40t212.5 -129.5t152.5 -236.5t57.5 -362v-100h-1115q11 -248 141 -378t338 -130q139 0 238.5 60
t145.5 180l228 -64q-45 -140 -157 -236.5t-278 -133.5q-57 -42 -105 -87t-78 -95.5t-30 -107.5q0 -45 22 -70.5t82 -25.5q45 0 80 11.5t56 24.5l16 -176q-33 -22 -86.5 -41t-125.5 -19zM381 892h875q0 130 -51.5 232t-146 161t-222.5 59q-135 0 -234 -63t-156 -165.5
t-65 -223.5z" />
    <glyph glyph-name="Ecaron" unicode="&#x11a;" horiz-adv-x="1684" 
d="M248 0v2048h1236v-220h-988v-692h924v-220h-924v-696h1004v-220h-1252zM656 2664l208 -280l208 280h224v-16l-324 -416h-216l-324 416v16h224z" />
    <glyph glyph-name="ecaron" unicode="&#x11b;" horiz-adv-x="1640" 
d="M860 -32q-222 0 -382.5 98.5t-247 276t-86.5 413.5t86.5 416.5t242 282t363.5 101.5q120 0 237.5 -40t212.5 -129.5t152.5 -236.5t57.5 -362v-100h-1115q11 -248 141 -378t338 -130q139 0 238.5 60t145.5 180l228 -64q-56 -176 -217 -282t-395 -106zM381 892h875
q0 130 -51.5 232t-146 161t-222.5 59q-135 0 -234 -63t-156 -165.5t-65 -223.5zM616 2152l208 -280l208 280h224v-16l-324 -416h-216l-324 416v16h224z" />
    <glyph glyph-name="Gcircumflex" unicode="&#x11c;" horiz-adv-x="2112" 
d="M1080 -28q-272 0 -477.5 128t-320 364t-114.5 560q0 243 67 437.5t188.5 331.5t287 210t361.5 73q216 0 395 -84.5t298 -234.5t159 -349h-256q-63 204 -219 320t-377 116q-136 0 -256.5 -53t-212 -157.5t-143.5 -257t-52 -352.5q0 -266 89 -449t241 -277t342 -94
q178 0 314.5 77t215.5 211.5t86 311.5h-560v220h800v-1024h-208l-30 250h-10q-115 -135 -260 -206.5t-348 -71.5zM856 2232h-224v16l324 416h216l324 -416v-16h-224l-208 280z" />
    <glyph glyph-name="gcircumflex" unicode="&#x11d;" horiz-adv-x="1716" 
d="M836 -608q-171 0 -294 43.5t-205 113t-129 151.5l188 132q3 -5 7 -9q23 -33 56.5 -71t83 -72.5t121 -57t172.5 -22.5q124 0 220.5 39.5t152 122t55.5 210.5v312h-20l-6 -10q-20 -34 -51.5 -76t-81.5 -81.5t-125.5 -66t-183.5 -26.5q-186 0 -333.5 88t-233 256t-85.5 408
q0 236 83 411.5t231 272t342 96.5q105 0 179.5 -26t124.5 -65.5t82 -81t51 -75.5q6 -8 11 -16h24v244h228v-1580q0 -148 -51.5 -255t-142.5 -175.5t-211.5 -101t-258.5 -32.5zM828 236q213 0 326.5 144.5t113.5 399.5q0 166 -50 293t-148 199t-242 72q-150 0 -249.5 -76
t-149 -204t-49.5 -284q0 -160 50.5 -282.5t150 -192t247.5 -69.5zM652 1720h-224v16l324 416h216l324 -416v-16h-224l-208 280z" />
    <glyph glyph-name="Gbreve" unicode="&#x11e;" horiz-adv-x="2112" 
d="M1080 -28q-272 0 -477.5 128t-320 364t-114.5 560q0 243 67 437.5t188.5 331.5t287 210t361.5 73q216 0 395 -84.5t298 -234.5t159 -349h-256q-63 204 -219 320t-377 116q-136 0 -256.5 -53t-212 -157.5t-143.5 -257t-52 -352.5q0 -266 89 -449t241 -277t342 -94
q178 0 314.5 77t215.5 211.5t86 311.5h-560v220h800v-1024h-208l-30 250h-10q-115 -135 -260 -206.5t-348 -71.5zM1260 2560h220q0 -162 -112 -265t-304 -103q-189 0 -300.5 103t-111.5 265h220q0 -52 19 -96.5t61 -72t112 -27.5t113 27.5t63 72t20 96.5z" />
    <glyph glyph-name="gbreve" unicode="&#x11f;" horiz-adv-x="1716" 
d="M836 -608q-171 0 -294 43.5t-205 113t-129 151.5l188 132q3 -5 7 -9q23 -33 56.5 -71t83 -72.5t121 -57t172.5 -22.5q124 0 220.5 39.5t152 122t55.5 210.5v312h-20l-6 -10q-20 -34 -51.5 -76t-81.5 -81.5t-125.5 -66t-183.5 -26.5q-186 0 -333.5 88t-233 256t-85.5 408
q0 236 83 411.5t231 272t342 96.5q105 0 179.5 -26t124.5 -65.5t82 -81t51 -75.5q6 -8 11 -16h24v244h228v-1580q0 -148 -51.5 -255t-142.5 -175.5t-211.5 -101t-258.5 -32.5zM828 236q213 0 326.5 144.5t113.5 399.5q0 166 -50 293t-148 199t-242 72q-150 0 -249.5 -76
t-149 -204t-49.5 -284q0 -160 50.5 -282.5t150 -192t247.5 -69.5zM1056 2048h220q0 -162 -112 -265t-304 -103q-189 0 -300.5 103t-111.5 265h220q0 -52 19 -96.5t61 -72t112 -27.5t113 27.5t63 72t20 96.5z" />
    <glyph glyph-name="Gdotaccent" unicode="&#x120;" horiz-adv-x="2112" 
d="M1080 -28q-272 0 -477.5 128t-320 364t-114.5 560q0 243 67 437.5t188.5 331.5t287 210t361.5 73q216 0 395 -84.5t298 -234.5t159 -349h-256q-63 204 -219 320t-377 116q-136 0 -256.5 -53t-212 -157.5t-143.5 -257t-52 -352.5q0 -266 89 -449t241 -277t342 -94
q178 0 314.5 77t215.5 211.5t86 311.5h-560v220h800v-1024h-208l-30 250h-10q-115 -135 -260 -206.5t-348 -71.5zM1064 2304q-69 0 -118.5 47t-49.5 113t49.5 113t118.5 47t118.5 -47t49.5 -113t-49.5 -113t-118.5 -47z" />
    <glyph glyph-name="gdotaccent" unicode="&#x121;" horiz-adv-x="1716" 
d="M836 -608q-171 0 -294 43.5t-205 113t-129 151.5l188 132q3 -5 7 -9q23 -33 56.5 -71t83 -72.5t121 -57t172.5 -22.5q124 0 220.5 39.5t152 122t55.5 210.5v312h-20l-6 -10q-20 -34 -51.5 -76t-81.5 -81.5t-125.5 -66t-183.5 -26.5q-186 0 -333.5 88t-233 256t-85.5 408
q0 236 83 411.5t231 272t342 96.5q105 0 179.5 -26t124.5 -65.5t82 -81t51 -75.5q6 -8 11 -16h24v244h228v-1580q0 -148 -51.5 -255t-142.5 -175.5t-211.5 -101t-258.5 -32.5zM828 236q213 0 326.5 144.5t113.5 399.5q0 166 -50 293t-148 199t-242 72q-150 0 -249.5 -76
t-149 -204t-49.5 -284q0 -160 50.5 -282.5t150 -192t247.5 -69.5zM860 1792q-69 0 -118.5 47t-49.5 113t49.5 113t118.5 47t118.5 -47t49.5 -113t-49.5 -113t-118.5 -47z" />
    <glyph glyph-name="uni0122" unicode="&#x122;" horiz-adv-x="2112" 
d="M1080 -28q-272 0 -477.5 128t-320 364t-114.5 560q0 243 67 437.5t188.5 331.5t287 210t361.5 73q216 0 395 -84.5t298 -234.5t159 -349h-256q-63 204 -219 320t-377 116q-136 0 -256.5 -53t-212 -157.5t-143.5 -257t-52 -352.5q0 -266 89 -449t241 -277t342 -94
q178 0 314.5 77t215.5 211.5t86 311.5h-560v220h800v-1024h-208l-30 250h-10q-115 -135 -260 -206.5t-348 -71.5zM1180 -128v-124q-3 -136 -42.5 -287.5t-117.5 -272.5l-200 40q52 123 88 262.5t36 253.5v128h236z" />
    <glyph glyph-name="uni0123" unicode="&#x123;" horiz-adv-x="1716" 
d="M836 -608q-171 0 -294 43.5t-205 113t-129 151.5l188 132q3 -5 7 -9q23 -33 56.5 -71t83 -72.5t121 -57t172.5 -22.5q124 0 220.5 39.5t152 122t55.5 210.5v312h-20l-6 -10q-20 -34 -51.5 -76t-81.5 -81.5t-125.5 -66t-183.5 -26.5q-186 0 -333.5 88t-233 256t-85.5 408
q0 236 83 411.5t231 272t342 96.5q105 0 179.5 -26t124.5 -65.5t82 -81t51 -75.5q6 -8 11 -16h24v244h228v-1580q0 -148 -51.5 -255t-142.5 -175.5t-211.5 -101t-258.5 -32.5zM828 236q213 0 326.5 144.5t113.5 399.5q0 166 -50 293t-148 199t-242 72q-150 0 -249.5 -76
t-149 -204t-49.5 -284q0 -160 50.5 -282.5t150 -192t247.5 -69.5zM716 1740v176q0 84 32.5 168t79.5 152.5t92 107.5l156 -124q-47 -82 -65.5 -155.5t-18.5 -160.5v-164h-276z" />
    <glyph glyph-name="Hcircumflex" unicode="&#x124;" horiz-adv-x="2084" 
d="M248 0v2048h248v-912h1092v912h248v-2048h-248v916h-1092v-916h-248zM844 2236h-224v16l324 416h216l324 -416v-16h-224l-208 280z" />
    <glyph glyph-name="hcircumflex" unicode="&#x125;" horiz-adv-x="1664" 
d="M452 924v-924h-236v2048h236v-752h20q53 121 162 190.5t290 69.5q157 0 275 -62.5t183.5 -191t65.5 -326.5v-976h-236v960q0 183 -94.5 283.5t-261.5 100.5q-116 0 -207.5 -49t-144 -143t-52.5 -228zM128 2232h-224v16l324 416h216l324 -416v-16h-224l-208 280z" />
    <glyph glyph-name="Hbar" unicode="&#x126;" horiz-adv-x="2188" 
d="M2052 1616v-208h-164v-1408h-248v916h-1092v-916h-248v1408h-164v208h164v432h248v-432h1092v432h248v-432h164zM1640 1408h-1092v-272h1092v272z" />
    <glyph glyph-name="hbar" unicode="&#x127;" horiz-adv-x="1664" 
d="M452 924v-924h-236v1700h-320v184h320v164h236v-164h324v-184h-324v-404h20q53 121 162 190.5t290 69.5q157 0 275 -62.5t183.5 -191t65.5 -326.5v-976h-236v960q0 183 -94.5 283.5t-261.5 100.5q-116 0 -207.5 -49t-144 -143t-52.5 -228z" />
    <glyph glyph-name="Itilde" unicode="&#x128;" horiz-adv-x="1248" 
d="M136 1828v220h976v-220h-364v-1608h364v-220h-976v220h364v1608h-364zM316 2232l-184 8q0 153 87.5 250.5t216.5 97.5q58 0 102.5 -20t84.5 -45t82 -44t95 -19q57 0 96.5 44.5t39.5 107.5l180 -16q0 -104 -40 -180.5t-109 -118t-155 -41.5q-72 0 -118 21t-83 48
q-34 23 -71.5 41t-91.5 18q-57 0 -94.5 -44.5t-37.5 -107.5z" />
    <glyph glyph-name="itilde" unicode="&#x129;" horiz-adv-x="784" 
d="M276 0v1536h236v-1536h-236zM156 1720l-184 8q0 153 87.5 250.5t216.5 97.5q58 0 102.5 -20t84.5 -45t82 -44t95 -19q57 0 96.5 44.5t39.5 107.5l180 -16q0 -104 -40 -180.5t-109 -118t-155 -41.5q-72 0 -118 21t-83 48q-34 23 -71.5 41t-91.5 18q-57 0 -94.5 -44.5
t-37.5 -107.5z" />
    <glyph glyph-name="Imacron" unicode="&#x12a;" horiz-adv-x="1248" 
d="M136 1828v220h976v-220h-364v-1608h364v-220h-976v220h364v1608h-364zM1092 2560v-200h-936v200h936z" />
    <glyph glyph-name="imacron" unicode="&#x12b;" horiz-adv-x="668" 
d="M216 0v1536h236v-1536h-236zM804 2048v-200h-936v200h936z" />
    <glyph glyph-name="Ibreve" unicode="&#x12c;" horiz-adv-x="1248" 
d="M136 1828v220h976v-220h-364v-1608h364v-220h-976v220h364v1608h-364zM820 2560h220q0 -162 -112 -265t-304 -103q-189 0 -300.5 103t-111.5 265h220q0 -52 19 -96.5t61 -72t112 -27.5t113 27.5t63 72t20 96.5z" />
    <glyph glyph-name="ibreve" unicode="&#x12d;" horiz-adv-x="668" 
d="M216 0v1536h236v-1536h-236zM532 2048h220q0 -162 -112 -265t-304 -103q-189 0 -300.5 103t-111.5 265h220q0 -52 19 -96.5t61 -72t112 -27.5t113 27.5t63 72t20 96.5z" />
    <glyph glyph-name="Iogonek" unicode="&#x12e;" horiz-adv-x="1248" 
d="M136 1828v220h976v-220h-364v-1608h364v-220q-61 -44 -113.5 -91.5t-85.5 -100t-33 -112.5q0 -45 22 -70.5t82 -25.5q45 0 80 11.5t56 24.5l16 -176q-33 -22 -86.5 -41t-125.5 -19q-82 0 -146 30t-101 89t-37 145t50 172t162 164h-716v220h364v1608h-364z" />
    <glyph glyph-name="iogonek" unicode="&#x12f;" horiz-adv-x="672" 
d="M264 -600q-82 0 -146 30t-101 89t-37 145q0 91 55 181t181 171v1520h236v-1536q-61 -44 -113.5 -91.5t-85.5 -100t-33 -112.5q0 -45 22 -70.5t82 -25.5q45 0 80 11.5t56 24.5l16 -176q-33 -22 -86.5 -41t-125.5 -19zM336 1792q-69 0 -118.5 47t-49.5 113t49.5 113
t118.5 47t118.5 -47t49.5 -113t-49.5 -113t-118.5 -47z" />
    <glyph glyph-name="Idotaccent" unicode="&#x130;" horiz-adv-x="1248" 
d="M136 1828v220h976v-220h-364v-1608h364v-220h-976v220h364v1608h-364zM624 2304q-69 0 -118.5 47t-49.5 113t49.5 113t118.5 47t118.5 -47t49.5 -113t-49.5 -113t-118.5 -47z" />
    <glyph glyph-name="dotlessi" unicode="&#x131;" horiz-adv-x="668" 
d="M216 0v1536h236v-1536h-236z" />
    <glyph glyph-name="IJ" unicode="&#x132;" horiz-adv-x="2776" 
d="M136 1828v220h976v-220h-364v-1608h364v-220h-976v220h364v1608h-364zM2280 2048h248v-1464q0 -196 -72 -333t-203 -208t-309 -71q-168 0 -299 61.5t-206 175.5t-75 271h244q0 -130 95 -209t241 -79q161 0 248.5 100.5t87.5 291.5v1464z" />
    <glyph glyph-name="ij" unicode="&#x133;" horiz-adv-x="1336" 
d="M884 1536h236v-1648q0 -142 -48.5 -246t-146 -161t-245.5 -57h-48v220h44q108 0 158 63.5t50 180.5v1648zM216 0v1536h236v-1536h-236zM336 1792q-69 0 -118.5 47t-49.5 113t49.5 113t118.5 47t118.5 -47t49.5 -113t-49.5 -113t-118.5 -47zM1000 1792q-69 0 -118.5 47
t-49.5 113t49.5 113t118.5 47t118.5 -47t49.5 -113t-49.5 -113t-118.5 -47z" />
    <glyph glyph-name="Jcircumflex" unicode="&#x134;" horiz-adv-x="1528" 
d="M1032 2048h248v-1464q0 -196 -72 -333t-203 -208t-309 -71q-168 0 -299 61.5t-206 175.5t-75 271h244q0 -130 95 -209t241 -79q161 0 248.5 100.5t87.5 291.5v1464zM948 2232h-224v16l324 416h216l324 -416v-16h-224l-208 280z" />
    <glyph glyph-name="jcircumflex" unicode="&#x135;" horiz-adv-x="668" 
d="M216 1536h236v-1648q0 -142 -48.5 -246t-146 -161t-245.5 -57h-48v220h44q108 0 158 63.5t50 180.5v1648zM124 1720h-224v16l324 416h216l324 -416v-16h-224l-208 280z" />
    <glyph glyph-name="uni0136" unicode="&#x136;" horiz-adv-x="1836" 
d="M248 0v2048h248v-1016h24l920 1016h324l-860 -924l860 -1124h-300l-712 952l-256 -288v-664h-248zM1040 -128v-124q-3 -136 -42.5 -287.5t-117.5 -272.5l-200 40q52 123 88 262.5t36 253.5v128h236z" />
    <glyph glyph-name="uni0137" unicode="&#x137;" horiz-adv-x="1532" 
d="M216 0v2048h236v-1196h28l672 684h292l-649 -656l697 -880h-300l-575 728l-165 -153v-575h-236zM912 -128v-124q-3 -136 -42.5 -287.5t-117.5 -272.5l-200 40q52 123 88 262.5t36 253.5v128h236z" />
    <glyph glyph-name="kgreenlandic" unicode="&#x138;" horiz-adv-x="1776" 
d="M516 1488v-624h112l532 624h332l-618 -719l662 -769h-348l-538 628h-134v-628h-276v1488h276z" />
    <glyph glyph-name="Lacute" unicode="&#x139;" horiz-adv-x="1584" 
d="M248 0v2048h248v-1828h952v-220h-1200zM264 2256l244 464h276l-312 -464h-208z" />
    <glyph glyph-name="lacute" unicode="&#x13a;" horiz-adv-x="728" 
d="M216 2048h236v-1648q0 -112 26 -157.5t102 -42.5q39 2 60.5 6t36.5 9q2 1 3 1l48 -204q-32 -9 -78.5 -16.5t-97.5 -7.5q-168 0 -252 92t-84 256v1712zM224 2256l244 464h276l-312 -464h-208z" />
    <glyph glyph-name="uni013B" unicode="&#x13b;" horiz-adv-x="1584" 
d="M248 0v2048h248v-1828h952v-220h-1200zM968 -128v-124q-3 -136 -42.5 -287.5t-117.5 -272.5l-200 40q52 123 88 262.5t36 253.5v128h236z" />
    <glyph glyph-name="uni013C" unicode="&#x13c;" horiz-adv-x="728" 
d="M216 2048h236v-1648q0 -112 26 -157.5t102 -42.5q39 2 60.5 6t36.5 9q2 1 3 1l48 -204q-32 -9 -78.5 -16.5t-97.5 -7.5q-168 0 -252 92t-84 256v1712zM540 -128v-124q-3 -136 -42.5 -287.5t-117.5 -272.5l-200 40q52 123 88 262.5t36 253.5v128h236z" />
    <glyph glyph-name="Lcaron" unicode="&#x13d;" horiz-adv-x="1584" 
d="M248 0v2048h248v-1828h952v-220h-1200zM1084 2048v-124q-3 -136 -42.5 -287.5t-117.5 -272.5l-200 40q52 123 88 262.5t36 253.5v128h236z" />
    <glyph glyph-name="lcaron" unicode="&#x13e;" horiz-adv-x="824" 
d="M216 2048h236v-1648q0 -112 26 -157.5t102 -42.5q39 2 60.5 6t36.5 9q2 1 3 1l48 -204q-32 -9 -78.5 -16.5t-97.5 -7.5q-168 0 -252 92t-84 256v1712zM856 2048v-124q-3 -136 -42.5 -287.5t-117.5 -272.5l-200 40q52 123 88 262.5t36 253.5v128h236z" />
    <glyph glyph-name="Ldot" unicode="&#x13f;" horiz-adv-x="1584" 
d="M248 0v2048h248v-1828h952v-220h-1200zM972 1012q-69 0 -118.5 47t-49.5 113t49.5 113t118.5 47t118.5 -47t49.5 -113t-49.5 -113t-118.5 -47z" />
    <glyph glyph-name="ldot" unicode="&#x140;" horiz-adv-x="888" 
d="M216 2048h236v-1648q0 -112 26 -157.5t102 -42.5q39 2 60.5 6t36.5 9q2 1 3 1l48 -204q-32 -9 -78.5 -16.5t-97.5 -7.5q-168 0 -252 92t-84 256v1712zM748 984q-69 0 -118.5 47t-49.5 113t49.5 113t118.5 47t118.5 -47t49.5 -113t-49.5 -113t-118.5 -47z" />
    <glyph glyph-name="Lslash" unicode="&#x141;" horiz-adv-x="1584" 
d="M872 1280v-180l-376 -119v-761h952v-220h-1200v903l-188 -59v180l188 59v965h248v-887z" />
    <glyph glyph-name="lslash" unicode="&#x142;" horiz-adv-x="728" 
d="M672 1280v-176l-220 -83v-621q0 -112 26 -157.5t102 -42.5q39 2 60.5 6t36.5 9q2 1 3 1l48 -204q-32 -9 -78.5 -16.5t-97.5 -7.5q-168 0 -252 92t-84 256v595l-220 -83v176l220 83v941h236v-851z" />
    <glyph glyph-name="Nacute" unicode="&#x143;" horiz-adv-x="2120" 
d="M1872 2048v-2048h-240l-1116 1608h-20v-1608h-248v2048h240l1120 -1612h20v1612h244zM952 2256l244 464h276l-312 -464h-208z" />
    <glyph glyph-name="nacute" unicode="&#x144;" horiz-adv-x="1648" 
d="M452 924v-924h-236v1536h228v-240h20q54 119 164 189.5t284 70.5q156 0 273 -63.5t182 -192t65 -324.5v-976h-236v960q0 181 -94 282.5t-258 101.5q-113 0 -201.5 -49t-139.5 -143t-51 -228zM716 1744l244 464h276l-312 -464h-208z" />
    <glyph glyph-name="uni0145" unicode="&#x145;" horiz-adv-x="2120" 
d="M1872 2048v-2048h-240l-1116 1608h-20v-1608h-248v2048h240l1120 -1612h20v1612h244zM1180 -128v-124q-3 -136 -42.5 -287.5t-117.5 -272.5l-200 40q52 123 88 262.5t36 253.5v128h236z" />
    <glyph glyph-name="uni0146" unicode="&#x146;" horiz-adv-x="1648" 
d="M452 924v-924h-236v1536h228v-240h20q54 119 164 189.5t284 70.5q156 0 273 -63.5t182 -192t65 -324.5v-976h-236v960q0 181 -94 282.5t-258 101.5q-113 0 -201.5 -49t-139.5 -143t-51 -228zM944 -128v-124q-3 -136 -42.5 -287.5t-117.5 -272.5l-200 40q52 123 88 262.5
t36 253.5v128h236z" />
    <glyph glyph-name="Ncaron" unicode="&#x147;" horiz-adv-x="2120" 
d="M1872 2048v-2048h-240l-1116 1608h-20v-1608h-248v2048h240l1120 -1612h20v1612h244zM852 2664l208 -280l208 280h224v-16l-324 -416h-216l-324 416v16h224z" />
    <glyph glyph-name="ncaron" unicode="&#x148;" horiz-adv-x="1648" 
d="M452 924v-924h-236v1536h228v-240h20q54 119 164 189.5t284 70.5q156 0 273 -63.5t182 -192t65 -324.5v-976h-236v960q0 181 -94 282.5t-258 101.5q-113 0 -201.5 -49t-139.5 -143t-51 -228zM616 2152l208 -280l208 280h224v-16l-324 -416h-216l-324 416v16h224z" />
    <glyph glyph-name="Eng" unicode="&#x14a;" horiz-adv-x="2120" 
d="M1632 0l-1116 1608h-20v-1608h-248v2048h240l1120 -1612h20v1612h244v-2212q0 -132 -55.5 -224t-148 -140t-204.5 -48q-36 0 -72 1.5t-64 10.5v204q34 -8 76 -8q64 0 115.5 18.5t82 64t30.5 125.5v160z" />
    <glyph glyph-name="eng" unicode="&#x14b;" horiz-adv-x="1648" 
d="M452 924v-924h-236v1536h228v-240h20q54 119 164 189.5t284 70.5q156 0 273 -63.5t182 -192t65 -324.5v-1140q0 -132 -53.5 -224t-144 -140t-202.5 -48q-36 0 -72 1.5t-64 10.5v200q34 -8 76 -8q64 0 114.5 18.5t80 64t29.5 125.5v1124q0 181 -94 282.5t-258 101.5
q-113 0 -201.5 -49t-139.5 -143t-51 -228z" />
    <glyph glyph-name="Omacron" unicode="&#x14c;" horiz-adv-x="2144" 
d="M1976 1024q0 -243 -67 -437.5t-188.5 -331.5t-286.5 -210t-362 -73q-196 0 -361.5 73t-287 210t-188.5 331.5t-67 437.5t67 437.5t188.5 331.5t287 210t361.5 73q197 0 362 -73t286.5 -210t188.5 -331.5t67 -437.5zM1736 1024q0 200 -51 352.5t-141.5 257t-211 157.5
t-260.5 53q-139 0 -260 -53t-211.5 -157.5t-141.5 -257t-51 -352.5q0 -199 51 -352t141.5 -257.5t211.5 -157.5t260 -53q140 0 260.5 53t211 157.5t141.5 257.5t51 352zM1540 2560v-200h-936v200h936z" />
    <glyph glyph-name="omacron" unicode="&#x14d;" horiz-adv-x="1680" 
d="M840 -32q-208 0 -364.5 99t-244 277t-87.5 416q0 240 87.5 419t244 278t364.5 99t364.5 -99t244 -278t87.5 -419q0 -238 -87.5 -416t-244 -277t-364.5 -99zM840 180q119 0 205.5 47t143 127.5t84 185.5t27.5 220q0 116 -27.5 221t-84 186.5t-143 129t-205.5 47.5
q-118 0 -205 -47.5t-143.5 -129t-84 -186.5t-27.5 -221q0 -115 27.5 -220t84 -185.5t143.5 -127.5t205 -47zM1308 2048v-200h-936v200h936z" />
    <glyph glyph-name="Obreve" unicode="&#x14e;" horiz-adv-x="2144" 
d="M1976 1024q0 -243 -67 -437.5t-188.5 -331.5t-286.5 -210t-362 -73q-196 0 -361.5 73t-287 210t-188.5 331.5t-67 437.5t67 437.5t188.5 331.5t287 210t361.5 73q197 0 362 -73t286.5 -210t188.5 -331.5t67 -437.5zM1736 1024q0 200 -51 352.5t-141.5 257t-211 157.5
t-260.5 53q-139 0 -260 -53t-211.5 -157.5t-141.5 -257t-51 -352.5q0 -199 51 -352t141.5 -257.5t211.5 -157.5t260 -53q140 0 260.5 53t211 157.5t141.5 257.5t51 352zM1268 2560h220q0 -162 -112 -265t-304 -103q-189 0 -300.5 103t-111.5 265h220q0 -52 19 -96.5t61 -72
t112 -27.5t113 27.5t63 72t20 96.5z" />
    <glyph glyph-name="obreve" unicode="&#x14f;" horiz-adv-x="1680" 
d="M840 -32q-208 0 -364.5 99t-244 277t-87.5 416q0 240 87.5 419t244 278t364.5 99t364.5 -99t244 -278t87.5 -419q0 -238 -87.5 -416t-244 -277t-364.5 -99zM840 180q119 0 205.5 47t143 127.5t84 185.5t27.5 220q0 116 -27.5 221t-84 186.5t-143 129t-205.5 47.5
q-118 0 -205 -47.5t-143.5 -129t-84 -186.5t-27.5 -221q0 -115 27.5 -220t84 -185.5t143.5 -127.5t205 -47zM1036 2048h220q0 -162 -112 -265t-304 -103q-189 0 -300.5 103t-111.5 265h220q0 -52 19 -96.5t61 -72t112 -27.5t113 27.5t63 72t20 96.5z" />
    <glyph glyph-name="Ohungarumlaut" unicode="&#x150;" horiz-adv-x="2144" 
d="M1976 1024q0 -243 -67 -437.5t-188.5 -331.5t-286.5 -210t-362 -73q-196 0 -361.5 73t-287 210t-188.5 331.5t-67 437.5t67 437.5t188.5 331.5t287 210t361.5 73q197 0 362 -73t286.5 -210t188.5 -331.5t67 -437.5zM1736 1024q0 200 -51 352.5t-141.5 257t-211 157.5
t-260.5 53q-139 0 -260 -53t-211.5 -157.5t-141.5 -257t-51 -352.5q0 -199 51 -352t141.5 -257.5t211.5 -157.5t260 -53q140 0 260.5 53t211 157.5t141.5 257.5t51 352zM1132 2216l308 424h264l-364 -424h-208zM720 2216l224 424h260l-296 -424h-188z" />
    <glyph glyph-name="ohungarumlaut" unicode="&#x151;" horiz-adv-x="1680" 
d="M840 -32q-208 0 -364.5 99t-244 277t-87.5 416q0 240 87.5 419t244 278t364.5 99t364.5 -99t244 -278t87.5 -419q0 -238 -87.5 -416t-244 -277t-364.5 -99zM840 180q119 0 205.5 47t143 127.5t84 185.5t27.5 220q0 116 -27.5 221t-84 186.5t-143 129t-205.5 47.5
q-118 0 -205 -47.5t-143.5 -129t-84 -186.5t-27.5 -221q0 -115 27.5 -220t84 -185.5t143.5 -127.5t205 -47zM900 1704l308 424h264l-364 -424h-208zM488 1704l224 424h260l-296 -424h-188z" />
    <glyph glyph-name="OE" unicode="&#x152;" horiz-adv-x="2684" 
d="M1072 0q-270 0 -473.5 128.5t-317 359t-113.5 536.5q0 308 113.5 538.5t317 358t473.5 127.5h1412v-220h-988v-692h924v-220h-924v-696h1004v-220h-1428zM1248 220v1608h-176q-198 0 -347.5 -100t-233 -281t-83.5 -423q0 -240 83.5 -421t233 -282t347.5 -101h176z" />
    <glyph glyph-name="oe" unicode="&#x153;" horiz-adv-x="2788" 
d="M840 -32q-208 0 -364.5 99t-244 277t-87.5 416q0 240 87.5 419t244 278t364.5 99q191 0 340 -84.5t239 -237.5q90 152 236.5 237t336.5 85q120 0 237.5 -40t212.5 -129.5t152.5 -236.5t57.5 -362v-100h-1115q11 -248 141 -378t338 -130q139 0 238.5 60t145.5 180l228 -64
q-56 -176 -217 -282t-395 -106q-204 0 -356 83.5t-243 234.5q-91 -151 -238.5 -234.5t-338.5 -83.5zM840 180q119 0 205.5 47t143 127.5t84 185.5t27.5 220q0 116 -27.5 221t-84 186.5t-143 129t-205.5 47.5q-118 0 -205 -47.5t-143.5 -129t-84 -186.5t-27.5 -221
q0 -115 27.5 -220t84 -185.5t143.5 -127.5t205 -47zM1537 892h875q0 130 -51.5 232t-146 161t-222.5 59q-135 0 -234 -63t-156 -165.5t-65 -223.5z" />
    <glyph glyph-name="Racute" unicode="&#x154;" horiz-adv-x="1800" 
d="M248 0v2048h692q240 0 394 -81.5t228 -223.5t74 -323q0 -204 -94 -354.5t-289 -219.5l463 -846h-288l-432 801q-25 -1 -52 -1h-448v-800h-248zM496 1024h440q164 0 264.5 48t146 136.5t45.5 211.5t-46 215t-147 142.5t-267 50.5h-436v-804zM780 2256l244 464h276
l-312 -464h-208z" />
    <glyph glyph-name="racute" unicode="&#x155;" horiz-adv-x="1048" 
d="M216 0v1536h228v-232h16q45 116 153.5 186t246.5 70q26 0 64 -1t60 -3v-240q-14 4 -55.5 10t-88.5 6q-168 0 -278 -102t-110 -258v-972h-236zM472 1744l244 464h276l-312 -464h-208z" />
    <glyph glyph-name="uni0156" unicode="&#x156;" horiz-adv-x="1800" 
d="M248 0v2048h692q240 0 394 -81.5t228 -223.5t74 -323q0 -204 -94 -354.5t-289 -219.5l463 -846h-288l-432 801q-25 -1 -52 -1h-448v-800h-248zM496 1024h440q164 0 264.5 48t146 136.5t45.5 211.5t-46 215t-147 142.5t-267 50.5h-436v-804zM1044 -128v-124
q-3 -136 -42.5 -287.5t-117.5 -272.5l-200 40q52 123 88 262.5t36 253.5v128h236z" />
    <glyph glyph-name="uni0157" unicode="&#x157;" horiz-adv-x="1048" 
d="M216 0v1536h228v-232h16q45 116 153.5 186t246.5 70q26 0 64 -1t60 -3v-240q-14 4 -55.5 10t-88.5 6q-168 0 -278 -102t-110 -258v-972h-236zM452 -128v-124q-3 -136 -42.5 -287.5t-117.5 -272.5l-200 40q52 123 88 262.5t36 253.5v128h236z" />
    <glyph glyph-name="Rcaron" unicode="&#x158;" horiz-adv-x="1800" 
d="M248 0v2048h692q240 0 394 -81.5t228 -223.5t74 -323q0 -204 -94 -354.5t-289 -219.5l463 -846h-288l-432 801q-25 -1 -52 -1h-448v-800h-248zM496 1024h440q164 0 264.5 48t146 136.5t45.5 211.5t-46 215t-147 142.5t-267 50.5h-436v-804zM680 2664l208 -280l208 280
h224v-16l-324 -416h-216l-324 416v16h224z" />
    <glyph glyph-name="rcaron" unicode="&#x159;" horiz-adv-x="1048" 
d="M216 0v1536h228v-232h16q45 116 153.5 186t246.5 70q26 0 64 -1t60 -3v-240q-14 4 -55.5 10t-88.5 6q-168 0 -278 -102t-110 -258v-972h-236zM372 2152l208 -280l208 280h224v-16l-324 -416h-216l-324 416v16h224z" />
    <glyph glyph-name="Sacute" unicode="&#x15a;" horiz-adv-x="1796" 
d="M1368 1536q-21 153 -147.5 236.5t-312.5 83.5q-204 0 -328 -96.5t-124 -243.5q0 -82 40 -140.5t101 -97t129 -63t126 -39.5l208 -56q65 -16 141.5 -43t153 -69t140 -103.5t102.5 -147.5t39 -201q0 -166 -86.5 -300t-252 -213t-401.5 -79q-220 0 -380.5 71t-251.5 197.5
t-104 295.5h256q12 -116 79.5 -191.5t173 -112t227.5 -36.5q142 0 255 46.5t179 130t66 195.5q0 77 -33 131t-90 93t-130 66.5t-155 49.5l-252 72q-161 46 -277 117.5t-179.5 174t-63.5 240.5q0 172 93.5 300.5t252 200t354.5 71.5q198 0 352 -70.5t243.5 -192t96.5 -277.5
h-240zM788 2256l244 464h276l-312 -464h-208z" />
    <glyph glyph-name="sacute" unicode="&#x15b;" horiz-adv-x="1472" 
d="M1304 1192l-212 -60q-20 54 -58.5 104t-104.5 83t-169 33q-141 0 -234.5 -64.5t-93.5 -163.5q0 -88 64 -140t200 -84l228 -56q408 -95 408 -416q0 -132 -75.5 -236t-210.5 -164t-314 -60q-235 0 -388 102t-196 298l224 56q67 -248 356 -248q110 0 191 32.5t125 87
t44 120.5q0 80 -56 134.5t-172 81.5l-256 60q-211 50 -309.5 155.5t-98.5 264.5q0 130 73.5 230t201 157t289.5 57q152 0 260 -45.5t177.5 -127t106.5 -191.5zM652 1744l244 464h276l-312 -464h-208z" />
    <glyph glyph-name="Scircumflex" unicode="&#x15c;" horiz-adv-x="1796" 
d="M1368 1536q-21 153 -147.5 236.5t-312.5 83.5q-204 0 -328 -96.5t-124 -243.5q0 -82 40 -140.5t101 -97t129 -63t126 -39.5l208 -56q65 -16 141.5 -43t153 -69t140 -103.5t102.5 -147.5t39 -201q0 -166 -86.5 -300t-252 -213t-401.5 -79q-220 0 -380.5 71t-251.5 197.5
t-104 295.5h256q12 -116 79.5 -191.5t173 -112t227.5 -36.5q142 0 255 46.5t179 130t66 195.5q0 77 -33 131t-90 93t-130 66.5t-155 49.5l-252 72q-161 46 -277 117.5t-179.5 174t-63.5 240.5q0 172 93.5 300.5t252 200t354.5 71.5q198 0 352 -70.5t243.5 -192t96.5 -277.5
h-240zM688 2232h-224v16l324 416h216l324 -416v-16h-224l-208 280z" />
    <glyph glyph-name="scircumflex" unicode="&#x15d;" horiz-adv-x="1472" 
d="M1304 1192l-212 -60q-20 54 -58.5 104t-104.5 83t-169 33q-141 0 -234.5 -64.5t-93.5 -163.5q0 -88 64 -140t200 -84l228 -56q408 -95 408 -416q0 -132 -75.5 -236t-210.5 -164t-314 -60q-235 0 -388 102t-196 298l224 56q67 -248 356 -248q110 0 191 32.5t125 87
t44 120.5q0 80 -56 134.5t-172 81.5l-256 60q-211 50 -309.5 155.5t-98.5 264.5q0 130 73.5 230t201 157t289.5 57q152 0 260 -45.5t177.5 -127t106.5 -191.5zM552 1720h-224v16l324 416h216l324 -416v-16h-224l-208 280z" />
    <glyph glyph-name="Scedilla" unicode="&#x15e;" horiz-adv-x="1796" 
d="M1368 1536q-21 153 -147.5 236.5t-312.5 83.5q-204 0 -328 -96.5t-124 -243.5q0 -82 40 -140.5t101 -97t129 -63t126 -39.5l208 -56q65 -16 141.5 -43t153 -69t140 -103.5t102.5 -147.5t39 -201q0 -233 -169 -397.5t-483 -191.5l-8 -39q53 -8 100 -34t77.5 -75t30.5 -127
q0 -86 -47.5 -152t-141 -103t-231.5 -37l-8 156q62 0 111 13t77 41t28 74q0 69 -51.5 95t-164.5 33l32 157q-284 28 -447 176.5t-181 382.5h256q12 -116 79.5 -191.5t173 -112t227.5 -36.5q142 0 255 46.5t179 130t66 195.5q0 77 -33 131t-90 93t-130 66.5t-155 49.5
l-252 72q-161 46 -277 117.5t-179.5 174t-63.5 240.5q0 172 93.5 300.5t252 200t354.5 71.5q198 0 352 -70.5t243.5 -192t96.5 -277.5h-240z" />
    <glyph glyph-name="scedilla" unicode="&#x15f;" horiz-adv-x="1472" 
d="M1304 1192l-212 -60q-20 54 -58.5 104t-104.5 83t-169 33q-141 0 -234.5 -64.5t-93.5 -163.5q0 -88 64 -140t200 -84l228 -56q408 -95 408 -416q0 -179 -135 -303t-364 -152l-9 -45q53 -8 100 -34t77.5 -75t30.5 -127q0 -86 -47.5 -152t-141 -103t-231.5 -37l-8 156
q62 0 111 13t77 41t28 74q0 69 -51.5 95t-164.5 33l33 161q-198 19 -324.5 119t-164.5 276l224 56q67 -248 356 -248q110 0 191 32.5t125 87t44 120.5q0 80 -56 134.5t-172 81.5l-256 60q-211 50 -309.5 155.5t-98.5 264.5q0 130 73.5 230t201 157t289.5 57q152 0 260 -45.5
t177.5 -127t106.5 -191.5z" />
    <glyph glyph-name="Scaron" unicode="&#x160;" horiz-adv-x="1796" 
d="M1368 1536q-21 153 -147.5 236.5t-312.5 83.5q-204 0 -328 -96.5t-124 -243.5q0 -82 40 -140.5t101 -97t129 -63t126 -39.5l208 -56q65 -16 141.5 -43t153 -69t140 -103.5t102.5 -147.5t39 -201q0 -166 -86.5 -300t-252 -213t-401.5 -79q-220 0 -380.5 71t-251.5 197.5
t-104 295.5h256q12 -116 79.5 -191.5t173 -112t227.5 -36.5q142 0 255 46.5t179 130t66 195.5q0 77 -33 131t-90 93t-130 66.5t-155 49.5l-252 72q-161 46 -277 117.5t-179.5 174t-63.5 240.5q0 172 93.5 300.5t252 200t354.5 71.5q198 0 352 -70.5t243.5 -192t96.5 -277.5
h-240zM688 2664l208 -280l208 280h224v-16l-324 -416h-216l-324 416v16h224z" />
    <glyph glyph-name="scaron" unicode="&#x161;" horiz-adv-x="1472" 
d="M1304 1192l-212 -60q-20 54 -58.5 104t-104.5 83t-169 33q-141 0 -234.5 -64.5t-93.5 -163.5q0 -88 64 -140t200 -84l228 -56q408 -95 408 -416q0 -132 -75.5 -236t-210.5 -164t-314 -60q-235 0 -388 102t-196 298l224 56q67 -248 356 -248q110 0 191 32.5t125 87
t44 120.5q0 80 -56 134.5t-172 81.5l-256 60q-211 50 -309.5 155.5t-98.5 264.5q0 130 73.5 230t201 157t289.5 57q152 0 260 -45.5t177.5 -127t106.5 -191.5zM552 2152l208 -280l208 280h224v-16l-324 -416h-216l-324 416v16h224z" />
    <glyph glyph-name="uni0162" unicode="&#x162;" horiz-adv-x="1808" 
d="M136 1828v220h1536v-220h-644v-1828h-2l-14 -72q53 -8 100 -34t77.5 -75t30.5 -127q0 -86 -47.5 -152t-141 -103t-231.5 -37l-8 156q62 0 111 13t77 41t28 74q0 69 -51.5 95t-164.5 33l38 188h-50v1828h-644z" />
    <glyph glyph-name="uni0163" unicode="&#x163;" horiz-adv-x="1024" 
d="M884 1536v-200h-328v-896q0 -100 29.5 -149.5t76 -66t98.5 -16.5q35 0 58.5 3.5t38.5 7.5q4 0 7 1l48 -212q-39 -18 -137 -27l-11 -53q53 -8 100 -34t77.5 -75t30.5 -127q0 -86 -47.5 -152t-141 -103t-231.5 -37l-8 156q62 0 111 13t77 41t28 74q0 69 -51.5 95t-164.5 33
l39 193q-72 25 -131.5 74t-95.5 123t-36 174v960h-232v200h232v368h236v-368h328z" />
    <glyph glyph-name="Tcaron" unicode="&#x164;" horiz-adv-x="1808" 
d="M136 1828v220h1536v-220h-644v-1828h-248v1828h-644zM696 2664l208 -280l208 280h224v-16l-324 -416h-216l-324 416v16h224z" />
    <glyph glyph-name="tcaron" unicode="&#x165;" horiz-adv-x="1080" 
d="M884 1536v-200h-328v-896q0 -100 29.5 -149.5t76 -66t98.5 -16.5q35 0 58.5 3.5t38.5 7.5q4 0 7 1l48 -212q-24 -10 -67 -19t-109 -9q-75 0 -149 24t-134 73.5t-96.5 124t-36.5 174.5v960h-232v200h232v368h236v-368h328zM968 2304v-124q-3 -136 -42.5 -287.5
t-117.5 -272.5l-200 40q52 123 88 262.5t36 253.5v128h236z" />
    <glyph glyph-name="Tbar" unicode="&#x166;" horiz-adv-x="1808" 
d="M136 1828v220h1536v-220h-644v-680h316v-184h-316v-964h-248v964h-316v184h316v680h-644z" />
    <glyph glyph-name="tbar" unicode="&#x167;" horiz-adv-x="1024" 
d="M88 840v184h232v312h-232v200h232v368h236v-368h328v-200h-328v-312h328v-184h-328v-400q0 -100 29.5 -149.5t76 -66t98.5 -16.5q35 0 58.5 3.5t38.5 7.5q4 0 7 1l48 -212q-24 -10 -67 -19t-109 -9q-75 0 -149 24t-134 73.5t-96.5 124t-36.5 174.5v464h-232z" />
    <glyph glyph-name="Utilde" unicode="&#x168;" horiz-adv-x="2088" 
d="M1592 2048h248v-1356q0 -172 -63 -307.5t-173 -229t-254 -142.5t-306 -49t-306 49t-254 142.5t-173 229t-63 307.5v1356h248v-1356q0 -120 44 -212.5t120.5 -155.5t175.5 -95.5t208 -32.5q110 0 208.5 32.5t175 95.5t120.5 155.5t44 212.5v1356zM736 2232l-184 8
q0 153 87.5 250.5t216.5 97.5q58 0 102.5 -20t84.5 -45t82 -44t95 -19q57 0 96.5 44.5t39.5 107.5l180 -16q0 -104 -40 -180.5t-109 -118t-155 -41.5q-72 0 -118 21t-83 48q-34 23 -71.5 41t-91.5 18q-57 0 -94.5 -44.5t-37.5 -107.5z" />
    <glyph glyph-name="utilde" unicode="&#x169;" horiz-adv-x="1636" 
d="M1184 628v908h236v-1536h-236v260h-16q-36 -79 -98.5 -142t-152 -100.5t-205.5 -37.5q-144 0 -256 63.5t-176 192t-64 324.5v976h236v-960q0 -168 94.5 -268t241.5 -100q66 0 135.5 25t128.5 77t95.5 131t36.5 187zM512 1720l-184 8q0 153 87.5 250.5t216.5 97.5
q58 0 102.5 -20t84.5 -45t82 -44t95 -19q57 0 96.5 44.5t39.5 107.5l180 -16q0 -104 -40 -180.5t-109 -118t-155 -41.5q-72 0 -118 21t-83 48q-34 23 -71.5 41t-91.5 18q-57 0 -94.5 -44.5t-37.5 -107.5z" />
    <glyph glyph-name="Umacron" unicode="&#x16a;" horiz-adv-x="2088" 
d="M1592 2048h248v-1356q0 -172 -63 -307.5t-173 -229t-254 -142.5t-306 -49t-306 49t-254 142.5t-173 229t-63 307.5v1356h248v-1356q0 -120 44 -212.5t120.5 -155.5t175.5 -95.5t208 -32.5q110 0 208.5 32.5t175 95.5t120.5 155.5t44 212.5v1356zM1512 2560v-200h-936v200
h936z" />
    <glyph glyph-name="umacron" unicode="&#x16b;" horiz-adv-x="1636" 
d="M1184 628v908h236v-1536h-236v260h-16q-36 -79 -98.5 -142t-152 -100.5t-205.5 -37.5q-144 0 -256 63.5t-176 192t-64 324.5v976h236v-960q0 -168 94.5 -268t241.5 -100q66 0 135.5 25t128.5 77t95.5 131t36.5 187zM1288 2048v-200h-936v200h936z" />
    <glyph glyph-name="Ubreve" unicode="&#x16c;" horiz-adv-x="2088" 
d="M1592 2048h248v-1356q0 -172 -63 -307.5t-173 -229t-254 -142.5t-306 -49t-306 49t-254 142.5t-173 229t-63 307.5v1356h248v-1356q0 -120 44 -212.5t120.5 -155.5t175.5 -95.5t208 -32.5q110 0 208.5 32.5t175 95.5t120.5 155.5t44 212.5v1356zM1240 2560h220
q0 -162 -112 -265t-304 -103q-189 0 -300.5 103t-111.5 265h220q0 -52 19 -96.5t61 -72t112 -27.5t113 27.5t63 72t20 96.5z" />
    <glyph glyph-name="ubreve" unicode="&#x16d;" horiz-adv-x="1636" 
d="M1184 628v908h236v-1536h-236v260h-16q-36 -79 -98.5 -142t-152 -100.5t-205.5 -37.5q-144 0 -256 63.5t-176 192t-64 324.5v976h236v-960q0 -168 94.5 -268t241.5 -100q66 0 135.5 25t128.5 77t95.5 131t36.5 187zM1016 2048h220q0 -162 -112 -265t-304 -103
q-189 0 -300.5 103t-111.5 265h220q0 -52 19 -96.5t61 -72t112 -27.5t113 27.5t63 72t20 96.5z" />
    <glyph glyph-name="Uring" unicode="&#x16e;" horiz-adv-x="2088" 
d="M1592 2048h248v-1356q0 -172 -63 -307.5t-173 -229t-254 -142.5t-306 -49t-306 49t-254 142.5t-173 229t-63 307.5v1356h248v-1356q0 -120 44 -212.5t120.5 -155.5t175.5 -95.5t208 -32.5q110 0 208.5 32.5t175 95.5t120.5 155.5t44 212.5v1356zM1044 2184
q-137 0 -234.5 91.5t-97.5 220.5t97.5 220.5t234.5 91.5t234.5 -91.5t97.5 -220.5t-97.5 -220.5t-234.5 -91.5zM1044 2336q68 0 116 46.5t48 113.5t-48 113.5t-116 46.5t-116 -46.5t-48 -113.5t48 -113.5t116 -46.5z" />
    <glyph glyph-name="uring" unicode="&#x16f;" horiz-adv-x="1636" 
d="M1184 628v908h236v-1536h-236v260h-16q-36 -79 -98.5 -142t-152 -100.5t-205.5 -37.5q-144 0 -256 63.5t-176 192t-64 324.5v976h236v-960q0 -168 94.5 -268t241.5 -100q66 0 135.5 25t128.5 77t95.5 131t36.5 187zM820 1708q-102 0 -184.5 45t-131 122t-48.5 173
t48.5 176t131 128t184.5 48t183.5 -48t129 -128t47.5 -176q0 -144 -103.5 -242t-256.5 -98zM820 1860q84 0 138 58t54 130q0 50 -24.5 95t-68 73t-99.5 28t-99.5 -28t-68 -73t-24.5 -95q0 -72 54 -130t138 -58z" />
    <glyph glyph-name="Uhungarumlaut" unicode="&#x170;" horiz-adv-x="2088" 
d="M1592 2048h248v-1356q0 -172 -63 -307.5t-173 -229t-254 -142.5t-306 -49t-306 49t-254 142.5t-173 229t-63 307.5v1356h248v-1356q0 -120 44 -212.5t120.5 -155.5t175.5 -95.5t208 -32.5q110 0 208.5 32.5t175 95.5t120.5 155.5t44 212.5v1356zM1104 2216l308 424h264
l-364 -424h-208zM692 2216l224 424h260l-296 -424h-188z" />
    <glyph glyph-name="uhungarumlaut" unicode="&#x171;" horiz-adv-x="1636" 
d="M1184 628v908h236v-1536h-236v260h-16q-36 -79 -98.5 -142t-152 -100.5t-205.5 -37.5q-144 0 -256 63.5t-176 192t-64 324.5v976h236v-960q0 -168 94.5 -268t241.5 -100q66 0 135.5 25t128.5 77t95.5 131t36.5 187zM880 1704l308 424h264l-364 -424h-208zM468 1704
l224 424h260l-296 -424h-188z" />
    <glyph glyph-name="Uogonek" unicode="&#x172;" horiz-adv-x="2088" 
d="M1592 2048h248v-1356q0 -201 -84.5 -351t-228 -242.5t-324.5 -121.5q-53 -40 -97 -83.5t-71 -91.5t-27 -102q0 -45 22 -70.5t82 -25.5q45 0 80 11.5t56 24.5l16 -176q-33 -22 -86.5 -41t-125.5 -19q-82 0 -146 30t-101 89t-37 145q0 77 39 153.5t127 148.5
q-144 16 -268.5 71.5t-218 148t-146.5 219t-53 283.5v1356h248v-1356q0 -120 44 -212.5t120.5 -155.5t175.5 -95.5t208 -32.5q110 0 208.5 32.5t175 95.5t120.5 155.5t44 212.5v1356z" />
    <glyph glyph-name="uogonek" unicode="&#x173;" horiz-adv-x="1636" 
d="M1184 628v908h236v-1536q-61 -44 -113.5 -91.5t-85.5 -100t-33 -112.5q0 -45 22 -70.5t82 -25.5q45 0 80 11.5t56 24.5l16 -176q-33 -22 -86.5 -41t-125.5 -19q-82 0 -146 30t-101 89t-37 145q0 91 55 181t181 171v244h-16q-36 -79 -98.5 -142t-152 -100.5t-205.5 -37.5
q-144 0 -256 63.5t-176 192t-64 324.5v976h236v-960q0 -168 94.5 -268t241.5 -100q66 0 135.5 25t128.5 77t95.5 131t36.5 187z" />
    <glyph glyph-name="Wcircumflex" unicode="&#x174;" horiz-adv-x="2672" 
d="M620 0l-560 2048h252l428 -1668h20l436 1668h280l436 -1668h20l428 1668h252l-560 -2048h-256l-452 1632h-16l-452 -1632h-256zM1128 2232h-224v16l324 416h216l324 -416v-16h-224l-208 280z" />
    <glyph glyph-name="wcircumflex" unicode="&#x175;" horiz-adv-x="2288" 
d="M564 0l-468 1536h248l332 -1176h16l328 1176h252l324 -1172h16l332 1172h248l-468 -1536h-232l-336 1180h-24l-336 -1180h-232zM936 1720h-224v16l324 416h216l324 -416v-16h-224l-208 280z" />
    <glyph glyph-name="Ycircumflex" unicode="&#x176;" horiz-adv-x="1872" 
d="M72 2048h284l568 -956h24l568 956h284l-740 -1204v-844h-248v844zM728 2232h-224v16l324 416h216l324 -416v-16h-224l-208 280z" />
    <glyph glyph-name="ycircumflex" unicode="&#x177;" horiz-adv-x="1568" 
d="M360 -596q-60 0 -106.5 9t-65.5 19l60 208q128 -37 215.5 1.5t148.5 206.5l52 144l-568 1544h256l424 -1224h16l424 1224h256l-660 -1784q-128 -348 -452 -348zM576 1720h-224v16l324 416h216l324 -416v-16h-224l-208 280z" />
    <glyph glyph-name="Ydieresis" unicode="&#x178;" horiz-adv-x="1872" 
d="M72 2048h284l568 -956h24l568 956h284l-740 -1204v-844h-248v844zM648 2304q-63 0 -111.5 48.5t-48.5 111.5q0 69 48.5 114.5t111.5 45.5q69 0 114.5 -45.5t45.5 -114.5q0 -63 -45.5 -111.5t-114.5 -48.5zM1224 2304q-63 0 -111.5 48.5t-48.5 111.5q0 69 48.5 114.5
t111.5 45.5q69 0 114.5 -45.5t45.5 -114.5q0 -63 -45.5 -111.5t-114.5 -48.5z" />
    <glyph glyph-name="Zacute" unicode="&#x179;" horiz-adv-x="1760" 
d="M180 0v180l1104 1648h-1116v220h1412v-180l-1104 -1648h1116v-220h-1412zM772 2256l244 464h276l-312 -464h-208z" />
    <glyph glyph-name="zacute" unicode="&#x17a;" horiz-adv-x="1524" 
d="M172 0v180l872 1120v16h-844v220h1148v-188l-848 -1112v-16h876v-220h-1204zM652 1744l244 464h276l-312 -464h-208z" />
    <glyph glyph-name="Zdotaccent" unicode="&#x17b;" horiz-adv-x="1760" 
d="M180 0v180l1104 1648h-1116v220h1412v-180l-1104 -1648h1116v-220h-1412zM880 2304q-69 0 -118.5 47t-49.5 113t49.5 113t118.5 47t118.5 -47t49.5 -113t-49.5 -113t-118.5 -47z" />
    <glyph glyph-name="zdotaccent" unicode="&#x17c;" horiz-adv-x="1524" 
d="M172 0v180l872 1120v16h-844v220h1148v-188l-848 -1112v-16h876v-220h-1204zM760 1792q-69 0 -118.5 47t-49.5 113t49.5 113t118.5 47t118.5 -47t49.5 -113t-49.5 -113t-118.5 -47z" />
    <glyph glyph-name="Zcaron" unicode="&#x17d;" horiz-adv-x="1760" 
d="M180 0v180l1104 1648h-1116v220h1412v-180l-1104 -1648h1116v-220h-1412zM672 2664l208 -280l208 280h224v-16l-324 -416h-216l-324 416v16h224z" />
    <glyph glyph-name="zcaron" unicode="&#x17e;" horiz-adv-x="1524" 
d="M172 0v180l872 1120v16h-844v220h1148v-188l-848 -1112v-16h876v-220h-1204zM552 2152l208 -280l208 280h224v-16l-324 -416h-216l-324 416v16h224z" />
    <glyph glyph-name="longs" unicode="&#x17f;" horiz-adv-x="752" 
d="M316 0h-276v1640q0 243 127 371.5t349 128.5q96 0 196 -28l-32 -204q-48 12 -120 12q-120 0 -182 -74t-62 -206v-1640z" />
    <glyph glyph-name="uni0180" unicode="&#x180;" horiz-adv-x="1748" 
d="M248 0v1668h-320v184h320v196h236v-196h324v-184h-324v-376h20q6 9 12 19q20 33 51.5 74.5t80.5 80.5t122.5 64.5t177.5 25.5q194 0 342 -97t231 -275t83 -420q0 -244 -83 -422.5t-230 -276t-339 -97.5q-106 0 -181 27.5t-125.5 68.5t-83 84t-51.5 77q-4 6 -7 11h-28
v-236h-228zM480 768q0 -174 51 -306.5t149 -207t240 -74.5q148 0 247.5 78.5t150 212t50.5 297.5q0 162 -49.5 292.5t-149 207t-249.5 76.5q-144 0 -242 -72.5t-148 -202t-50 -301.5z" />
    <glyph glyph-name="uni0181" unicode="&#x181;" horiz-adv-x="2260" 
d="M676 0v1828h-128q-80 0 -118.5 -35.5t-50 -92t-11.5 -120.5v-76h-232v136q0 112 47 204.5t138 148t223 55.5h848q161 0 279 -42.5t195.5 -117t115.5 -173t38 -211.5q0 -132 -46.5 -218t-121.5 -136.5t-164 -73.5v-20q72 -5 144 -39.5t132.5 -99.5t98 -158t37.5 -215
q0 -154 -70 -277t-221 -195t-393 -72h-740zM924 220h492q162 0 260.5 43.5t143 117t44.5 163.5q0 104 -53 192.5t-151 142t-232 53.5h-504v-712zM924 1148h460q112 0 202.5 44t144 124t53.5 188q0 90 -41.5 163.5t-128 117t-222.5 43.5h-468v-680z" />
    <glyph glyph-name="uni0182" unicode="&#x182;" horiz-adv-x="1840" 
d="M248 0v2048h1236v-220h-988v-640h520q220 0 371.5 -72t230 -203t78.5 -309t-78.5 -314t-230 -213t-371.5 -77h-768zM496 216h520q140 0 237.5 56.5t148 146t50.5 189.5q0 98 -50.5 180t-148 131t-237.5 49h-520v-752z" />
    <glyph glyph-name="uni0183" unicode="&#x183;" horiz-adv-x="1748" 
d="M1400 2048v-220h-916v-536h20q6 9 12 19q20 33 51.5 74.5t80.5 80.5t122.5 64.5t177.5 25.5q194 0 342 -97t231 -275t83 -420q0 -244 -83 -422.5t-230 -276t-339 -97.5q-106 0 -181 27.5t-125.5 68.5t-83 84t-51.5 77q-4 6 -7 11h-28v-236h-228v2048h1152zM480 768
q0 -174 51 -306.5t149 -207t240 -74.5q148 0 247.5 78.5t150 212t50.5 297.5q0 162 -49.5 292.5t-149 207t-249.5 76.5q-144 0 -242 -72.5t-148 -202t-50 -301.5z" />
    <glyph glyph-name="uni0184" unicode="&#x184;" horiz-adv-x="2012" 
d="M756 2048v-860h520q220 0 371.5 -72t230 -203t78.5 -309t-78.5 -314t-230 -213t-371.5 -77h-768v1828h-480v220h728zM756 968v-752h520q140 0 237.5 56.5t148 146t50.5 189.5q0 98 -50.5 180t-148 131t-237.5 49h-520z" />
    <glyph glyph-name="uni0185" unicode="&#x185;" horiz-adv-x="1776" 
d="M328 2112h64v-64h192v-756h20q6 9 12 19q20 33 51.5 74.5t80.5 80.5t122.5 64.5t177.5 25.5q194 0 342 -97t231 -275t83 -420q0 -244 -83 -422.5t-230 -276t-339 -97.5q-106 0 -181 27.5t-125.5 68.5t-83 84t-51.5 77q-4 6 -7 11h-28v-236h-228v1440h-20l-224 280v112z
M1468 768q0 162 -49.5 292.5t-149 207t-249.5 76.5q-144 0 -242 -72.5t-148 -202t-50 -301.5q0 -174 51 -306.5t149 -207t240 -74.5q148 0 247.5 78.5t150 212t50.5 297.5z" />
    <glyph glyph-name="uni0186" unicode="&#x186;" horiz-adv-x="2048" 
d="M976 -28q-309 0 -535 175.5t-289 492.5h248q50 -214 211 -325t365 -111q140 0 260.5 53t211 157.5t141.5 257.5t51 352q0 200 -51 352.5t-141.5 257t-211 157.5t-260.5 53q-204 0 -365 -111t-211 -325h-248q63 317 289 492.5t535 175.5q197 0 362 -73t286.5 -210
t188.5 -331.5t67 -437.5t-67 -437.5t-188.5 -331.5t-286.5 -210t-362 -73z" />
    <glyph glyph-name="uni0187" unicode="&#x187;" horiz-adv-x="2172" 
d="M1896 1408h-248q-50 214 -211 325t-365 111q-139 0 -260 -53t-211.5 -157.5t-141.5 -257t-51 -352.5q0 -199 51 -352t141.5 -257.5t211.5 -157.5t260 -53q204 0 365 111t211 325h248q-63 -317 -289 -492.5t-535 -175.5q-196 0 -361.5 73t-287 210t-188.5 331.5t-67 437.5
t67 437.5t188.5 331.5t287 210t361.5 73q184 0 342 -63.5t273 -183.5q45 120 144.5 183.5t228.5 63.5q36 0 72 -1.5t64 -10.5v-200q-34 8 -76 8q-64 0 -114.5 -18.5t-80 -64t-29.5 -125.5v-256z" />
    <glyph glyph-name="uni0188" unicode="&#x188;" horiz-adv-x="1720" 
d="M1444 1076h-236q-18 71 -65 131.5t-123 98.5t-180 38q-207 0 -333.5 -157.5t-126.5 -418.5q0 -267 125 -427.5t335 -160.5q138 0 235.5 70.5t132.5 197.5h236q-21 -137 -99 -245t-206.5 -171.5t-298.5 -63.5q-216 0 -372 102t-240 281t-84 409q0 234 86.5 413.5t242 281
t363.5 101.5q233 0 397 -121q44 123 144.5 188t230.5 65q36 0 72 -1.5t64 -10.5v-200q-34 8 -76 8q-64 0 -114.5 -18.5t-80 -64t-29.5 -125.5v-200z" />
    <glyph glyph-name="uni0189" unicode="&#x189;" horiz-adv-x="2024" 
d="M880 0h-632v964h-316v184h316v900h660q298 0 510 -122.5t325 -351t113 -546.5q0 -320 -114 -550.5t-332 -354t-530 -123.5zM496 220h368q254 0 421 98t249 279t82 431q0 248 -81 427.5t-242 276t-401 96.5h-396v-680h316v-184h-316v-744z" />
    <glyph glyph-name="uni018A" unicode="&#x18a;" horiz-adv-x="2468" 
d="M136 1504v136q0 112 47 204.5t138 148t223 55.5h808q298 0 510 -122.5t325 -351t113 -546.5q0 -320 -114 -550.5t-332 -354t-530 -123.5h-632v1828h-144q-80 0 -118.5 -35.5t-50 -92t-11.5 -120.5v-76h-232zM940 220h368q254 0 421 98t249 279t82 431q0 248 -81 427.5
t-242 276t-401 96.5h-396v-1608z" />
    <glyph glyph-name="uni018B" unicode="&#x18b;" horiz-adv-x="1776" 
d="M1612 0h-764q-220 0 -372.5 77t-232 213t-79.5 314t79.5 311t232 207t372.5 74h480v576h-948v232h1232v-2004zM1328 228v736h-480q-142 0 -229 -48t-127 -129t-40 -179q0 -100 40 -186.5t127 -140t229 -53.5h480z" />
    <glyph glyph-name="uni018C" unicode="&#x18c;" horiz-adv-x="1748" 
d="M348 2048h1152v-2048h-228v236h-28q-3 -5 -7 -11q-19 -34 -51.5 -77t-83 -84t-125.5 -68.5t-181 -27.5q-192 0 -339 97.5t-230 276t-83 422.5q0 242 83 420t231 275t342 97q104 0 177.5 -25.5t122.5 -64.5t80.5 -80.5t51.5 -74.5q6 -10 12 -19h20v536h-916v220zM1268 768
q0 172 -50 301.5t-148 202t-242 72.5q-150 0 -249.5 -76.5t-149 -207t-49.5 -292.5q0 -164 50.5 -297.5t150 -212t247.5 -78.5q142 0 240 74.5t149 207t51 306.5z" />
    <glyph glyph-name="uni018D" unicode="&#x18d;" horiz-adv-x="1520" 
d="M1236 -516h-976v212h608q-29 38 -112.5 117.5t-155.5 138.5q-149 127 -262 253t-177.5 260.5t-64.5 290.5v28q0 208 78.5 373.5t227 262t358.5 96.5t359.5 -96.5t229 -262t79.5 -373.5v-28q0 -246 -162 -428t-458 -224q-14 -2 -20.5 -3t-12 -1h-15.5l135 -122
q190 -164 341 -330v-164zM1152 756v28q0 104 -22.5 196.5t-70 163t-121.5 111.5t-178 41q-102 0 -176 -41t-122 -111.5t-71 -163t-23 -196.5v-28q0 -108 35.5 -198.5t91.5 -159t121 -110.5q48 -16 120 -16q108 0 186.5 39t129.5 107t75.5 155t24.5 183z" />
    <glyph glyph-name="uni018E" unicode="&#x18e;" horiz-adv-x="1668" 
d="M1428 2048v-2048h-1236v220h988v692h-924v220h924v696h-1004v220h1252z" />
    <glyph glyph-name="uni018F" unicode="&#x18f;" horiz-adv-x="2032" 
d="M1016 -28q-274 0 -458 112.5t-277 319t-93 488.5v172h1372q0 154 -36 286.5t-111.5 232.5t-193.5 156.5t-283 56.5q-118 0 -209.5 -17t-160 -40.5t-118.5 -46.5l-68 208q28 19 99 50t185 56.5t272 25.5q221 0 390.5 -71.5t286 -202t176 -309t59.5 -393.5v-116
q0 -214 -65 -392t-178.5 -306.5t-264.5 -199t-324 -70.5zM1557 848h-1085v-44q0 -126 28 -235t91 -191t167.5 -128t257.5 -46q161 0 277 85t183 230t81 329z" />
    <glyph glyph-name="uni0190" unicode="&#x190;" horiz-adv-x="1776" 
d="M1112 1080v-172h-224q-216 0 -326 -84.5t-110 -267.5q0 -120 55.5 -199t158 -118t242.5 -39q130 0 224 48t145 129t51 179h284q0 -153 -61 -263.5t-162 -181.5t-226.5 -105t-254.5 -34q-157 0 -292.5 33t-237 103.5t-158 182.5t-56.5 269q0 172 89.5 289.5t256.5 175.5
q-147 60 -230.5 170.5t-83.5 264.5q0 186 89 313.5t249 193t374 65.5q138 0 260.5 -38.5t215.5 -110t146.5 -173.5t53.5 -230h-284q0 141 -110.5 230.5t-281.5 89.5q-150 0 -244.5 -45t-139 -121t-44.5 -170q0 -96 40.5 -170t130 -116t237.5 -42h224v-56z" />
    <glyph glyph-name="uni0191" unicode="&#x191;" horiz-adv-x="1652" 
d="M248 -160v2208h1228v-220h-980v-692h888v-220h-888v-1080q0 -198 -118.5 -305t-349.5 -107h-10.5t-11 1.5t-19.5 4l-35 6.5v204q34 -8 76 -8q64 0 113.5 18.5t78 64t28.5 125.5z" />
    <glyph glyph-name="florin" unicode="&#x192;" horiz-adv-x="1088" 
d="M912 1488v-204h-280v-1408q0 -231 -113 -353.5t-323 -122.5q-84 0 -156 20l20 216q15 -6 42.5 -9.5t54.5 -5t39 -1.5q81 0 134.5 68t53.5 188v1408h-248v204h248v152q0 162 55.5 273.5t152 169t220.5 57.5q57 0 125.5 -10.5t110.5 -25.5l-60 -216q-21 6 -48.5 11t-63.5 5
q-120 0 -182 -66t-62 -198v-152h280z" />
    <glyph glyph-name="uni0193" unicode="&#x193;" horiz-adv-x="2176" 
d="M1924 1408h-256q-63 204 -219 320t-377 116q-136 0 -256.5 -53t-212 -157.5t-143.5 -257t-52 -352.5q0 -266 89 -449t241 -277t342 -94q178 0 314.5 77t215.5 211.5t86 311.5h-560v220h800v-1024h-208l-30 250h-10q-115 -135 -260 -206.5t-348 -71.5q-272 0 -477.5 128
t-320 364t-114.5 560q0 243 67 437.5t188.5 331.5t287 210t361.5 73q197 0 363.5 -70.5t285.5 -196.5q43 111 134.5 169t232.5 58q36 0 72 -1.5t64 -10.5v-200q-34 8 -76 8q-64 0 -114.5 -18.5t-80 -64t-29.5 -125.5v-216z" />
    <glyph glyph-name="uni0194" unicode="&#x194;" horiz-adv-x="1776" 
d="M28 2048h268l589 -1396l595 1396h268l-734 -1702q70 -161 124 -274q57 -119 89.5 -200t32.5 -144q0 -156 -99 -242t-273 -86t-273 86t-99 242q0 70 33.5 156t94.5 216l116 259zM890 60q-12 -28 -24 -53q-46 -102 -72 -168t-26 -111q0 -42 33 -73t87 -31t87 32.5t33 71.5
q0 48 -27 118t-78 185q-7 14 -13 29z" />
    <glyph glyph-name="uni0195" unicode="&#x195;" horiz-adv-x="2664" 
d="M216 0v2048h236v-752h20q53 121 162 190.5t290 69.5q157 0 275 -62.5t183.5 -191t65.5 -326.5v-368q0 -135 28.5 -219t73 -130t95 -62.5t95.5 -16.5q93 0 178 60.5t151 195t104.5 354.5t38.5 538v208h236v-208q0 -360 -55.5 -617.5t-153.5 -421t-230 -240.5t-285 -77
q-142 0 -258.5 66.5t-185 207.5t-68.5 362v352q0 183 -94.5 283.5t-261.5 100.5q-116 0 -207.5 -49t-144 -143t-52.5 -228v-924h-236z" />
    <glyph glyph-name="uni0196" unicode="&#x196;" horiz-adv-x="1008" 
d="M444 2112v-1640q0 -129 62 -204.5t182 -75.5q36 0 66 5t54 11l32 -208q-100 -28 -196 -28q-222 0 -349 130t-127 370v1640h276z" />
    <glyph glyph-name="uni0197" unicode="&#x197;" horiz-adv-x="1248" 
d="M136 1828v220h976v-220h-364v-680h316v-184h-316v-744h364v-220h-976v220h364v744h-316v184h316v680h-364z" />
    <glyph glyph-name="uni0198" unicode="&#x198;" horiz-adv-x="1892" 
d="M248 0v2048h248v-1016h24l812 896q123 131 266.5 143.5t269.5 -75.5l-100 -184q-66 43 -135 32t-145 -92l-584 -628l860 -1124h-300l-712 952l-256 -288v-664h-248z" />
    <glyph glyph-name="uni0199" unicode="&#x199;" horiz-adv-x="1500" 
d="M1176 0l-540 708l-184 -200v-508h-236v1664q0 132 53.5 224t144 140t202.5 48q36 0 72 -1.5t64 -10.5v-200q-34 8 -76 8q-64 0 -114.5 -18.5t-80 -64t-29.5 -125.5v-820h20l624 692h300l-604 -656l668 -880h-284z" />
    <glyph glyph-name="uni019A" unicode="&#x19a;" horiz-adv-x="728" 
d="M216 2048h236v-900h324v-184h-324v-564q0 -112 26 -157.5t102 -42.5q39 2 60.5 6t36.5 9q2 1 3 1l48 -204q-32 -9 -78.5 -16.5t-97.5 -7.5q-168 0 -252 92t-84 256v628h-320v184h320v900z" />
    <glyph glyph-name="uni019B" unicode="&#x19b;" horiz-adv-x="1776" 
d="M944 1952v-236l-66 -25l530 -1367q26 -65 54.5 -88.5t73.5 -23.5h48l8 -220q-16 -6 -45.5 -11t-62.5 -5q-82 0 -142 17.5t-109.5 77t-96.5 181.5l-306 787l-374 -1039h-304l535 1407l-75 183l-344 -130v232l259 100q-26 43 -58 59.5t-73 16.5q-12 0 -31.5 -0.5
t-32.5 -3.5v208q21 6 63.5 11t72.5 5q140 0 214.5 -50t114.5 -143z" />
    <glyph glyph-name="uni019C" unicode="&#x19c;" horiz-adv-x="2544" 
d="M1193 240q-66 -126 -183.5 -197t-293.5 -71q-148 0 -257.5 60t-170 199t-60.5 377v1396h276v-1396q0 -123 22 -202.5t58.5 -124.5t82 -63t93.5 -18q112 0 188.5 38t123.5 105.5t68 157.5q-4 50 -4 107v1396h272v-1396q0 -123 22.5 -202.5t59.5 -124.5t83.5 -63t94.5 -18
q111 0 187 38t122 105t67 157v1504h272v-2004h-260l-7 162q-68 -90 -173.5 -140t-251.5 -50q-99 0 -182 26t-146 85t-103 157z" />
    <glyph glyph-name="uni019D" unicode="&#x19d;" horiz-adv-x="2132" 
d="M1884 2048v-2048h-240l-1116 1608h-20v-1772q0 -132 -55.5 -224t-148 -140t-204.5 -48q-36 0 -72 1.5t-64 10.5v204q34 -8 76 -8q64 0 113.5 18.5t78 64t28.5 125.5v2208h240l1120 -1612h20v1612h244z" />
    <glyph glyph-name="uni019E" unicode="&#x19e;" horiz-adv-x="1648" 
d="M452 924v-924h-236v1536h228v-240h20q54 119 164 189.5t284 70.5q156 0 273 -63.5t182 -192t65 -324.5v-1552h-236v1536q0 180 -93.5 282t-258.5 102q-112 0 -200.5 -49t-140 -143t-51.5 -228z" />
    <glyph glyph-name="uni019F" unicode="&#x19f;" horiz-adv-x="2144" 
d="M1976 1024q0 -243 -67 -437.5t-188.5 -331.5t-286.5 -210t-362 -73q-196 0 -361.5 73t-287 210t-188.5 331.5t-67 437.5t67 437.5t188.5 331.5t287 210t361.5 73q197 0 362 -73t286.5 -210t188.5 -331.5t67 -437.5zM1730 896q-135 -54 -250 -60.5t-219 15.5t-204 54
q-142 48 -298 68.5t-348 -41.5q18 -237 108 -399t234 -245.5t319 -83.5q171 0 312 79.5t232 233.5t114 379zM1733 1120q-18 235 -108.5 396.5t-234 244.5t-318.5 83q-170 0 -311 -79t-232 -232t-115 -377q134 52 249 58t218 -16t203 -54q143 -47 299 -67.5t350 43.5z" />
    <glyph glyph-name="Ohorn" unicode="&#x1a0;" horiz-adv-x="2180" 
d="M1904 2196h236q0 -210 -81.5 -346t-242.5 -188q77 -127 118.5 -287.5t41.5 -350.5q0 -243 -67 -437.5t-188.5 -331.5t-286.5 -210t-362 -73q-196 0 -361.5 73t-287 210t-188.5 331.5t-67 437.5t67 437.5t188.5 331.5t287 210t361.5 73q362 0 609 -241q115 24 169 117
t54 244zM1736 1024q0 200 -51 352.5t-141.5 257t-211 157.5t-260.5 53q-139 0 -260 -53t-211.5 -157.5t-141.5 -257t-51 -352.5q0 -199 51 -352t141.5 -257.5t211.5 -157.5t260 -53q140 0 260.5 53t211 157.5t141.5 257.5t51 352z" />
    <glyph glyph-name="ohorn" unicode="&#x1a1;" horiz-adv-x="1684" 
d="M1464 1652h220q0 -172 -55.5 -291.5t-185.5 -170.5q93 -182 93 -430q0 -238 -87.5 -416t-244 -277t-364.5 -99t-364.5 99t-244 277t-87.5 416q0 240 87.5 419t244 278t364.5 99q155 0 282 -56t219 -159q52 21 79 64.5t35.5 106.5t8.5 140zM840 180q119 0 205.5 47
t143 127.5t84 185.5t27.5 220q0 116 -27.5 221t-84 186.5t-143 129t-205.5 47.5q-118 0 -205 -47.5t-143.5 -129t-84 -186.5t-27.5 -221q0 -115 27.5 -220t84 -185.5t143.5 -127.5t205 -47z" />
    <glyph glyph-name="uni01A2" unicode="&#x1a2;" horiz-adv-x="2288" 
d="M2152 2004v-2576h-276v2304l-196 -71v-1389q-26 -43 -76 -94t-132 -98t-203.5 -77.5t-292.5 -30.5q-181 0 -334.5 62t-267 184t-176 301t-62.5 413v140q0 302 108.5 517t298 329t433.5 114q155 0 269 -25.5t194.5 -65.5t133.5 -86l367 149h212zM420 1064v-132
q0 -220 63.5 -384.5t190 -256t314.5 -91.5q138 0 220.5 24.5t128.5 57.5t71 62v1312q-25 31 -71.5 64t-131.5 56.5t-229 23.5q-168 0 -293 -85.5t-194 -248t-69 -394.5v-8z" />
    <glyph glyph-name="uni01A3" unicode="&#x1a3;" horiz-adv-x="1776" 
d="M1680 1488v-2060h-272v1704l-168 -99v-845q-83 -97 -207.5 -156.5t-268.5 -59.5q-171 0 -297 60t-208 163.5t-122.5 238t-40.5 282.5v56q0 149 41 283t123.5 237.5t208.5 163.5t295 60q137 0 246.5 -43t187.5 -122l266 137h216zM764 192q57 0 107.5 16.5t92.5 43.5v980
q-80 64 -200 64q-115 0 -191 -46t-120.5 -121.5t-62.5 -168.5t-18 -188v-56q0 -249 103 -386.5t289 -137.5z" />
    <glyph glyph-name="uni01A4" unicode="&#x1a4;" horiz-adv-x="2216" 
d="M368 1504h-232v136q0 112 47 204.5t138 148t223 55.5h824q180 0 311.5 -50t217 -138.5t126.5 -206t41 -253.5t-41 -254.5t-126 -207.5t-215.5 -139.5t-309.5 -50.5h-448v-748h-248v1828h-128q-80 0 -118.5 -35.5t-50 -92t-11.5 -120.5v-76zM924 968h440q165 0 265 57
t145.5 154.5t45.5 220.5t-45.5 220t-146.5 152.5t-268 55.5h-436v-860z" />
    <glyph glyph-name="uni01A5" unicode="&#x1a5;" horiz-adv-x="1716" 
d="M444 1536v-244h28q6 9 12 19q20 33 51.5 74.5t80.5 80.5t122.5 64.5t177.5 25.5q194 0 342 -97t231 -275t83 -420q0 -244 -83 -422.5t-230 -276t-339 -97.5q-106 0 -181 27.5t-125.5 68.5t-83 84t-51.5 77q-4 6 -7 11h-20v-812h-236v2112q0 175 104.5 269.5t287.5 94.5
q93 0 136 -12v-200q-43 8 -76 8q-106 0 -165 -41t-59 -119zM448 768q0 -174 51 -306.5t149 -207t240 -74.5q148 0 247.5 78.5t150 212t50.5 297.5q0 162 -49.5 292.5t-149 207t-249.5 76.5q-144 0 -242 -72.5t-148 -202t-50 -301.5z" />
    <glyph glyph-name="uni01A6" unicode="&#x1a6;" horiz-adv-x="2032" 
d="M1576 -496l-693 1304h-443v-808h-288v2144h288v-140h380q342 0 523 -155t181 -449q0 -184 -97 -322t-275 -211l728 -1347v-16h-304zM440 1036h380q140 0 233.5 48.5t140 131t46.5 184.5q0 112 -42.5 195.5t-135 130t-242.5 46.5h-380v-736z" />
    <glyph glyph-name="uni01A7" unicode="&#x1a7;" horiz-adv-x="1796" 
d="M428 1536h-240q7 156 96.5 277.5t243.5 192t352 70.5q196 0 354.5 -71.5t252 -200t93.5 -300.5q0 -138 -63.5 -240.5t-179.5 -174t-277 -117.5l-252 -72q-82 -22 -155 -49.5t-130 -66.5t-90 -93t-33 -131q0 -112 66 -195.5t179 -130t255 -46.5q122 0 227.5 36.5t173 112
t79.5 191.5h256q-13 -169 -104 -295.5t-251.5 -197.5t-380.5 -71q-236 0 -401.5 79t-252 213t-86.5 300q0 115 39 201t102.5 147.5t140 103.5t153 69t141.5 43l208 56q58 15 126 39.5t129 63t101 97t40 140.5q0 147 -124 243.5t-328 96.5q-186 0 -312.5 -83.5t-147.5 -236.5
z" />
    <glyph glyph-name="uni01A8" unicode="&#x1a8;" horiz-adv-x="1472" 
d="M168 1192q37 110 106.5 191.5t177.5 127t260 45.5q162 0 289.5 -57t201 -157t73.5 -230q0 -159 -98.5 -264.5t-309.5 -155.5l-256 -60q-116 -27 -172 -81.5t-56 -134.5q0 -66 44 -120.5t125 -87t191 -32.5q290 0 356 248l224 -56q-43 -196 -195.5 -298t-388.5 -102
q-178 0 -313.5 60t-211 164t-75.5 236q0 321 408 416l228 56q136 32 200 84t64 140q0 99 -93.5 163.5t-234.5 64.5q-103 0 -169 -33t-104.5 -83t-58.5 -104z" />
    <glyph glyph-name="uni01A9" unicode="&#x1a9;" horiz-adv-x="1776" 
d="M1576 232v-232h-1408v208l652 788l-652 796v212h1344v-232h-989l601 -760v-28l-599 -752h1051z" />
    <glyph glyph-name="uni01AA" unicode="&#x1aa;" horiz-adv-x="1520" 
d="M156 1676q0 130 63 236t169 169t236 63q128 0 234.5 -63t170 -169t63.5 -236v-1756q0 -94 21 -149t62 -79t101 -24q18 0 42 3t46 9v-216q-32 -12 -78 -18t-82 -6q-195 0 -291.5 123t-96.5 357v1330q-90 -42 -192 -42q-130 0 -236 63.5t-169 170t-63 234.5zM624 1460
q58 0 105 24t75 73t28 123q0 72 -28 121t-75 74t-105 25q-90 0 -151 -56t-61 -164q0 -74 28 -123t76 -73t108 -24z" />
    <glyph glyph-name="uni01AB" unicode="&#x1ab;" horiz-adv-x="1032" 
d="M884 1536v-200h-328v-896q0 -100 29.5 -149.5t76 -66t98.5 -16.5q39 0 64 5l96 19v-396q0 -132 -53.5 -224t-144 -140t-202.5 -48q-36 0 -72 1.5t-64 10.5v200q34 -8 76 -8q64 0 114.5 18.5t80 64t29.5 125.5v147q-94 10 -176.5 56.5t-135 130.5t-52.5 206v960h-232v200
h232v368h236v-368h328z" />
    <glyph glyph-name="uni01AC" unicode="&#x1ac;" horiz-adv-x="1920" 
d="M1784 2048v-220h-644v-1828h-248v1828h-348q-70 0 -110 -33t-57 -85t-17 -110v-76h-224v120q0 180 109.5 292t298.5 112h1240z" />
    <glyph glyph-name="uni01AD" unicode="&#x1ad;" horiz-adv-x="1008" 
d="M908 1488v-204h-272v-872q0 -82 22.5 -127t58 -63t75.5 -18q26 0 53.5 4.5t48.5 8.5q11 2 18 3v-220q-30 -10 -81 -19t-123 -9q-94 0 -173 44t-127 141t-48 255v872h-268v204h268v248q0 132 58.5 223t155 138t210.5 47q30 0 67.5 -5.5t68.5 -14.5v-184q-19 6 -40 9t-36 3
q-64 0 -110.5 -20.5t-72 -68t-25.5 -127.5v-248h272z" />
    <glyph glyph-name="uni01AE" unicode="&#x1ae;" horiz-adv-x="1808" 
d="M136 1828v220h1536v-220h-644v-1992q0 -80 33.5 -121.5t88 -56t118.5 -14.5h76v-220h-136q-112 0 -209.5 47t-158 138t-60.5 223v1996h-644z" />
    <glyph glyph-name="Uhorn" unicode="&#x1af;" horiz-adv-x="2436" 
d="M2068 2172h232q0 -175 -46.5 -300.5t-148 -199t-265.5 -93.5v-887q0 -172 -63 -307.5t-173 -229t-254 -142.5t-306 -49t-306 49t-254 142.5t-173 229t-63 307.5v1356h248v-1356q0 -120 44 -212.5t120.5 -155.5t175.5 -95.5t208 -32.5q110 0 208.5 32.5t175 95.5
t120.5 155.5t44 212.5v1356h248v-267q87 20 137 70.5t70.5 131t20.5 189.5z" />
    <glyph glyph-name="uhorn" unicode="&#x1b0;" horiz-adv-x="1752" 
d="M1600 1604h208q0 -141 -34 -239.5t-119 -153t-235 -65.5v-1146h-236v260h-16q-36 -79 -98.5 -142t-152 -100.5t-205.5 -37.5q-144 0 -256 63.5t-176 192t-64 324.5v976h236v-960q0 -168 94.5 -268t241.5 -100q66 0 135.5 25t128.5 77t95.5 131t36.5 187v908h236v-225
q87 8 125.5 42t46.5 96t8 155z" />
    <glyph glyph-name="uni01B1" unicode="&#x1b1;" horiz-adv-x="2144" 
d="M168 968q0 194 52 353t147.5 282t228.5 209v16h-428v220h728v-280q-134 -57 -244 -172t-177 -275.5t-67 -352.5q0 -214 85 -387t235 -275t344 -102t344 102t235 275t85 387q0 192 -67 352.5t-177 275.5t-244 172v280h728v-220h-428v-16q133 -84 228.5 -207t147.5 -283
t52 -354q0 -292 -116 -516.5t-320 -352t-468 -127.5t-468 127.5t-320 352t-116 516.5z" />
    <glyph glyph-name="uni01B2" unicode="&#x1b2;" horiz-adv-x="1776" 
d="M888 -28q-154 0 -287 42t-231.5 126.5t-154 211.5t-55.5 296v1356h284v-1356q0 -154 55 -253t155 -147t234 -48t234 48t155 147t55 253v904q0 135 -58.5 189.5t-169.5 54.5q-18 0 -43.5 -1t-44.5 -7v220q32 9 77.5 16.5t78.5 7.5q132 0 233 -56t158 -163t57 -261v-904
q0 -169 -59 -296t-161.5 -211.5t-234 -126.5t-277.5 -42z" />
    <glyph glyph-name="uni01B3" unicode="&#x1b3;" horiz-adv-x="1988" 
d="M1572 1672l-508 -828v-844h-248v844l-740 1204h284l568 -956h24l404 680l44 72q102 165 242.5 211t289.5 -23l-64 -200q-73 32 -138.5 14t-117.5 -106z" />
    <glyph glyph-name="uni01B4" unicode="&#x1b4;" horiz-adv-x="1716" 
d="M1344 1304l-540 -1532q-65 -178 -194.5 -275t-297.5 -97q-20 0 -57.5 3.5t-72.5 8t-50 8.5v220q14 -8 116 -8q86 0 151.5 19.5t113 70.5t79.5 142l48 136l-544 1536h256l408 -1188l360 1040l20 56q30 85 69 165t92 145t123.5 103.5t163.5 38.5q78 0 147 -26.5t121 -69.5
l-64 -164q-39 22 -82.5 37t-85.5 15q-93 0 -148 -80t-112 -248z" />
    <glyph glyph-name="uni01B5" unicode="&#x1b5;" horiz-adv-x="1760" 
d="M180 0v180l525 784h-245v184h368l456 680h-1116v220h1412v-180l-482 -720h242v-184h-366l-498 -744h1116v-220h-1412z" />
    <glyph glyph-name="uni01B6" unicode="&#x1b6;" horiz-adv-x="1524" 
d="M172 0v180l386 496h-238v184h381l343 440v16h-844v220h1148v-188l-372 -488h224v-184h-364l-336 -440v-16h876v-220h-1204z" />
    <glyph glyph-name="uni01B7" unicode="&#x1b7;" horiz-adv-x="1920" 
d="M136 108h252q20 -205 180 -332.5t380 -127.5q174 0 301.5 81.5t197 221.5t69.5 317q0 195 -87.5 340.5t-241.5 226.5t-355 81h-152v208l684 684v16h-1112v224h1456v-180l-724 -736v-20q229 -12 403.5 -120.5t273.5 -295.5t99 -428q0 -243 -102 -433.5t-285.5 -300.5
t-428.5 -110q-219 0 -398 87.5t-287.5 241t-122.5 355.5z" />
    <glyph glyph-name="uni01B8" unicode="&#x1b8;" horiz-adv-x="1920" 
d="M1784 108q-14 -202 -122.5 -355.5t-287 -241t-398.5 -87.5q-244 0 -428 110t-286 300.5t-102 433.5q0 241 99 428t273.5 295.5t403.5 120.5v20l-724 736v180h1456v-224h-1112v-16l684 -684v-208h-152q-200 0 -354.5 -81t-242 -226.5t-87.5 -340.5q0 -177 69.5 -317
t197 -221.5t301.5 -81.5q221 0 380.5 127.5t179.5 332.5h252z" />
    <glyph glyph-name="uni01B9" unicode="&#x1b9;" horiz-adv-x="1768" 
d="M1588 0q-14 -171 -109 -291.5t-247.5 -184.5t-335.5 -64q-205 0 -363 78t-247.5 214.5t-89.5 311.5q0 171 83.5 306t225 216t319.5 90v16l-548 664v180h1212v-220h-872v-16l512 -616v-200h-164q-142 0 -242 -34t-162 -93t-91 -134.5t-29 -158.5q0 -127 60 -212.5
t162.5 -128.5t229.5 -43q178 0 301 82t143 238h252z" />
    <glyph glyph-name="uni01BA" unicode="&#x1ba;" horiz-adv-x="1520" 
d="M200 1488h1196v-168l-487 -440q171 -39 267 -137.5t96 -238.5q0 -132 -68 -216t-190.5 -136.5t-289.5 -87.5q-131 -28 -201.5 -63t-96.5 -79t-26 -98q0 -90 79 -147t229 -57q76 0 152 24.5t128 84.5t60 163h272q0 -93 -40 -181t-117.5 -158t-191.5 -111.5t-263 -41.5
q-264 0 -422 123t-158 321q0 180 141 284.5t415 159.5q121 25 189.5 53.5t95.5 68.5t27 102q0 78 -65.5 123t-218.5 45h-240v172l532 416h-804v220z" />
    <glyph glyph-name="uni01BB" unicode="&#x1bb;" horiz-adv-x="1704" 
d="M212 0v180l676 740l21 24q10 10 19 20h-200v184h357q76 97 113.5 181.5t37.5 178.5q0 108 -51.5 187t-140.5 122t-200 43q-178 0 -283 -106.5t-105 -281.5h-236q0 180 83 316t226.5 212t322.5 76q180 0 319 -76t218 -205t79 -287q0 -91 -25.5 -177t-86.5 -183h252v-184
h-387q-85 -104 -209 -236l-460 -492v-16h952v-220h-1292z" />
    <glyph glyph-name="uni01BC" unicode="&#x1bc;" horiz-adv-x="1680" 
d="M852 -28q-176 0 -317 70t-225.5 191.5t-93.5 278.5h240q18 -141 128.5 -230.5t267.5 -89.5q126 0 224.5 59t155 162.5t56.5 234.5q0 134 -58.5 239.5t-160 166t-233.5 62.5q-97 0 -193.5 -28.5t-162.5 -75.5l-232 28l97 788h-253v220h1344v-220h-856l-72 -604h12
q64 51 158.5 83.5t197.5 32.5q188 0 335.5 -89.5t232 -244.5t84.5 -354q0 -196 -87.5 -349.5t-240.5 -242t-348 -88.5z" />
    <glyph glyph-name="uni01BD" unicode="&#x1bd;" horiz-adv-x="1520" 
d="M524 648l-236 20l68 584h-228v236h1188v-236h-700l-40 -324q48 31 127.5 55.5t160.5 28.5q251 4 389.5 -131.5t138.5 -384.5q0 -146 -59.5 -264t-189 -187t-339.5 -69q-96 0 -196.5 27t-185.5 82.5t-137.5 139t-52.5 195.5l264 24q0 -111 86.5 -177.5t221.5 -66.5
q110 0 180 38t103 105t33 153q0 88 -34.5 154.5t-103 104t-170.5 37.5q-78 0 -132.5 -20t-92 -52.5t-63.5 -71.5z" />
    <glyph glyph-name="uni01BE" unicode="&#x1be;" horiz-adv-x="1520" 
d="M1084 396q0 59 -28.5 101.5t-74 76t-100.5 65.5q-53 32 -105 69t-95.5 86.5t-70 118t-26.5 163.5v208h-268v204h268v356h276v-356h272v-204h-272v-200q0 -81 33.5 -133.5t86 -90.5t112.5 -71q67 -36 127.5 -81t100.5 -112.5t40 -175.5q0 -132 -72.5 -233t-203 -158
t-304.5 -57q-150 0 -265 41.5t-193 112t-118 159.5t-40 183h276q6 -103 57 -164t128 -86.5t155 -25.5q147 0 225.5 58.5t78.5 145.5z" />
    <glyph glyph-name="uni01BF" unicode="&#x1bf;" horiz-adv-x="1776" 
d="M517 1335q75 88 180.5 134.5t242.5 46.5q190 0 320 -96t197 -267t67 -397v-28q0 -205 -68.5 -354t-198.5 -257.5t-313.5 -190t-415.5 -149.5v-349h-276v2060h252zM528 -5q158 43 289.5 105t228 149.5t149.5 205t53 273.5v28q0 108 -23 204t-71 170t-122 116t-176 42
q-118 0 -199 -53.5t-129 -139.5v-1100z" />
    <glyph glyph-name="uni01C0" unicode="&#x1c0;" horiz-adv-x="748" 
d="M484 2048v-2048h-220v2048h220z" />
    <glyph glyph-name="uni01C1" unicode="&#x1c1;" horiz-adv-x="1008" 
d="M408 2048v-2048h-220v2048h220zM780 2048v-2048h-220v2048h220z" />
    <glyph glyph-name="uni01C2" unicode="&#x1c2;" horiz-adv-x="752" 
d="M484 2048v-584h332v-184h-332v-496h332v-184h-332v-600h-220v600h-328v184h328v496h-328v184h328v584h220z" />
    <glyph glyph-name="uni01C3" unicode="&#x1c3;" horiz-adv-x="784" 
d="M528 2048l-20 -1472h-232l-20 1472h272zM392 -16q-74 0 -127 53t-53 127t53 127t127 53t127 -53t53 -127t-53 -127t-127 -53z" />
    <glyph glyph-name="uni01C5" unicode="&#x1c5;" horiz-adv-x="3548" 
d="M880 0h-632v2048h660q298 0 510 -122.5t325 -351t113 -546.5q0 -320 -114 -550.5t-332 -354t-530 -123.5zM496 220h368q254 0 421 98t249 279t82 431q0 248 -81 427.5t-242 276t-401 96.5h-396v-1608zM2196 0v180l872 1120v16h-844v220h1148v-188l-848 -1112v-16h876
v-220h-1204zM2576 2152l208 -280l208 280h224v-16l-324 -416h-216l-324 416v16h224z" />
    <glyph glyph-name="uni01C6" unicode="&#x1c6;" horiz-adv-x="2980" 
d="M796 -32q-192 0 -339 97.5t-230 276t-83 422.5q0 242 83 420t231 275t342 97q104 0 177.5 -25.5t122.5 -64.5t80.5 -80.5t51.5 -74.5q6 -10 12 -19h20v756h236v-2048h-228v236h-28q-3 -5 -7 -11q-19 -34 -51.5 -77t-83 -84t-125.5 -68.5t-181 -27.5zM828 180
q142 0 240 74.5t149 207t51 306.5q0 172 -50 301.5t-148 202t-242 72.5q-150 0 -249.5 -76.5t-149 -207t-49.5 -292.5q0 -164 50.5 -297.5t150 -212t247.5 -78.5zM1628 0v180l872 1120v16h-844v220h1148v-188l-848 -1112v-16h876v-220h-1204zM2008 2152l208 -280l208 280
h224v-16l-324 -416h-216l-324 416v16h224z" />
    <glyph glyph-name="uni01C7" unicode="&#x1c7;" horiz-adv-x="3112" 
d="M248 0v2048h248v-1828h952v-220h-1200zM2616 2048h248v-1464q0 -196 -72 -333t-203 -208t-309 -71q-168 0 -299 61.5t-206 175.5t-75 271h244q0 -130 95 -209t241 -79q161 0 248.5 100.5t87.5 291.5v1464z" />
    <glyph glyph-name="uni01C8" unicode="&#x1c8;" horiz-adv-x="2252" 
d="M248 0v2048h248v-1828h952v-220h-1200zM1800 1536h236v-1648q0 -142 -48.5 -246t-146 -161t-245.5 -57h-48v220h44q108 0 158 63.5t50 180.5v1648zM1916 1792q-69 0 -118.5 47t-49.5 113t49.5 113t118.5 47t118.5 -47t49.5 -113t-49.5 -113t-118.5 -47z" />
    <glyph glyph-name="uni01C9" unicode="&#x1c9;" horiz-adv-x="1396" 
d="M216 2048h236v-1648q0 -112 26 -157.5t102 -42.5q39 2 60.5 6t36.5 9q2 1 3 1l48 -204q-32 -9 -78.5 -16.5t-97.5 -7.5q-168 0 -252 92t-84 256v1712zM944 1536h236v-1648q0 -142 -48.5 -246t-146 -161t-245.5 -57h-48v220h44q108 0 158 63.5t50 180.5v1648zM1060 1792
q-69 0 -118.5 47t-49.5 113t49.5 113t118.5 47t118.5 -47t49.5 -113t-49.5 -113t-118.5 -47z" />
    <glyph glyph-name="uni01CA" unicode="&#x1ca;" horiz-adv-x="3648" 
d="M1872 2048v-2048h-240l-1116 1608h-20v-1608h-248v2048h240l1120 -1612h20v1612h244zM3152 2048h248v-1464q0 -196 -72 -333t-203 -208t-309 -71q-168 0 -299 61.5t-206 175.5t-75 271h244q0 -130 95 -209t241 -79q161 0 248.5 100.5t87.5 291.5v1464z" />
    <glyph glyph-name="uni01CB" unicode="&#x1cb;" horiz-adv-x="2748" 
d="M1872 2048v-2048h-240l-1116 1608h-20v-1608h-248v2048h240l1120 -1612h20v1612h244zM2296 1536h236v-1648q0 -142 -48.5 -246t-146 -161t-245.5 -57h-48v220h44q108 0 158 63.5t50 180.5v1648zM2412 1792q-69 0 -118.5 47t-49.5 113t49.5 113t118.5 47t118.5 -47
t49.5 -113t-49.5 -113t-118.5 -47z" />
    <glyph glyph-name="uni01CC" unicode="&#x1cc;" horiz-adv-x="2316" 
d="M452 924v-924h-236v1536h228v-240h20q54 119 164 189.5t284 70.5q156 0 273 -63.5t182 -192t65 -324.5v-976h-236v960q0 181 -94 282.5t-258 101.5q-113 0 -201.5 -49t-139.5 -143t-51 -228zM1864 1536h236v-1648q0 -142 -48.5 -246t-146 -161t-245.5 -57h-48v220h44
q108 0 158 63.5t50 180.5v1648zM1980 1792q-69 0 -118.5 47t-49.5 113t49.5 113t118.5 47t118.5 -47t49.5 -113t-49.5 -113t-118.5 -47z" />
    <glyph glyph-name="uni01CD" unicode="&#x1cd;" horiz-adv-x="1904" 
d="M332 0h-260l752 2048h256l752 -2048h-260l-206 580h-828zM616 800h672l-328 924h-16zM744 2664l208 -280l208 280h224v-16l-324 -416h-216l-324 416v16h224z" />
    <glyph glyph-name="uni01CE" unicode="&#x1ce;" horiz-adv-x="1588" 
d="M668 -36q-146 0 -265 55.5t-189 161t-70 255.5q0 132 52.5 214.5t138.5 129.5t191.5 71t213.5 37q70 9 127 15q94 10 153.5 21t87.5 34t28 70v8q0 148 -80.5 230t-243.5 82q-112 0 -192 -34.5t-131 -87.5t-77 -110l-224 80q62 139 161.5 218t219 110.5t235.5 31.5
q59 0 134 -10t150.5 -41t140 -91t104 -158t39.5 -244v-1012h-236v208h-12q-18 -38 -54 -80t-91.5 -79.5t-132.5 -61t-178 -23.5zM704 176q140 0 236.5 55t146 142t49.5 183v216q-21 -22 -90.5 -39t-151.5 -28t-141 -18q-14 -2 -25 -3q-93 -11 -172 -38t-127.5 -79.5
t-48.5 -142.5q0 -82 42 -137t115 -83t167 -28zM612 2152l208 -280l208 280h224v-16l-324 -416h-216l-324 416v16h224z" />
    <glyph glyph-name="uni01CF" unicode="&#x1cf;" horiz-adv-x="1248" 
d="M136 1828v220h976v-220h-364v-1608h364v-220h-976v220h364v1608h-364zM416 2664l208 -280l208 280h224v-16l-324 -416h-216l-324 416v16h224z" />
    <glyph glyph-name="uni01D0" unicode="&#x1d0;" horiz-adv-x="668" 
d="M216 0v1536h236v-1536h-236zM128 2152l208 -280l208 280h224v-16l-324 -416h-216l-324 416v16h224z" />
    <glyph glyph-name="uni01D1" unicode="&#x1d1;" horiz-adv-x="2144" 
d="M1976 1024q0 -243 -67 -437.5t-188.5 -331.5t-286.5 -210t-362 -73q-196 0 -361.5 73t-287 210t-188.5 331.5t-67 437.5t67 437.5t188.5 331.5t287 210t361.5 73q197 0 362 -73t286.5 -210t188.5 -331.5t67 -437.5zM1736 1024q0 200 -51 352.5t-141.5 257t-211 157.5
t-260.5 53q-139 0 -260 -53t-211.5 -157.5t-141.5 -257t-51 -352.5q0 -199 51 -352t141.5 -257.5t211.5 -157.5t260 -53q140 0 260.5 53t211 157.5t141.5 257.5t51 352zM864 2664l208 -280l208 280h224v-16l-324 -416h-216l-324 416v16h224z" />
    <glyph glyph-name="uni01D2" unicode="&#x1d2;" horiz-adv-x="1680" 
d="M840 -32q-208 0 -364.5 99t-244 277t-87.5 416q0 240 87.5 419t244 278t364.5 99t364.5 -99t244 -278t87.5 -419q0 -238 -87.5 -416t-244 -277t-364.5 -99zM840 180q119 0 205.5 47t143 127.5t84 185.5t27.5 220q0 116 -27.5 221t-84 186.5t-143 129t-205.5 47.5
q-118 0 -205 -47.5t-143.5 -129t-84 -186.5t-27.5 -221q0 -115 27.5 -220t84 -185.5t143.5 -127.5t205 -47zM632 2152l208 -280l208 280h224v-16l-324 -416h-216l-324 416v16h224z" />
    <glyph glyph-name="uni01D3" unicode="&#x1d3;" horiz-adv-x="2088" 
d="M1592 2048h248v-1356q0 -172 -63 -307.5t-173 -229t-254 -142.5t-306 -49t-306 49t-254 142.5t-173 229t-63 307.5v1356h248v-1356q0 -120 44 -212.5t120.5 -155.5t175.5 -95.5t208 -32.5q110 0 208.5 32.5t175 95.5t120.5 155.5t44 212.5v1356zM836 2664l208 -280
l208 280h224v-16l-324 -416h-216l-324 416v16h224z" />
    <glyph glyph-name="uni01D4" unicode="&#x1d4;" horiz-adv-x="1636" 
d="M1184 628v908h236v-1536h-236v260h-16q-36 -79 -98.5 -142t-152 -100.5t-205.5 -37.5q-144 0 -256 63.5t-176 192t-64 324.5v976h236v-960q0 -168 94.5 -268t241.5 -100q66 0 135.5 25t128.5 77t95.5 131t36.5 187zM612 2152l208 -280l208 280h224v-16l-324 -416h-216
l-324 416v16h224z" />
    <glyph glyph-name="uni01D5" unicode="&#x1d5;" horiz-adv-x="2088" 
d="M1592 2048h248v-1356q0 -172 -63 -307.5t-173 -229t-254 -142.5t-306 -49t-306 49t-254 142.5t-173 229t-63 307.5v1356h248v-1356q0 -120 44 -212.5t120.5 -155.5t175.5 -95.5t208 -32.5q110 0 208.5 32.5t175 95.5t120.5 155.5t44 212.5v1356zM1512 3072v-200h-936v200
h936zM756 2304q-63 0 -111.5 48.5t-48.5 111.5q0 69 48.5 114.5t111.5 45.5q69 0 114.5 -45.5t45.5 -114.5q0 -63 -45.5 -111.5t-114.5 -48.5zM1332 2304q-63 0 -111.5 48.5t-48.5 111.5q0 69 48.5 114.5t111.5 45.5q69 0 114.5 -45.5t45.5 -114.5q0 -63 -45.5 -111.5
t-114.5 -48.5z" />
    <glyph glyph-name="uni01D6" unicode="&#x1d6;" horiz-adv-x="1636" 
d="M1184 628v908h236v-1536h-236v260h-16q-36 -79 -98.5 -142t-152 -100.5t-205.5 -37.5q-144 0 -256 63.5t-176 192t-64 324.5v976h236v-960q0 -168 94.5 -268t241.5 -100q66 0 135.5 25t128.5 77t95.5 131t36.5 187zM1288 2560v-200h-936v200h936zM532 1792
q-63 0 -111.5 48.5t-48.5 111.5q0 69 48.5 114.5t111.5 45.5q69 0 114.5 -45.5t45.5 -114.5q0 -63 -45.5 -111.5t-114.5 -48.5zM1108 1792q-63 0 -111.5 48.5t-48.5 111.5q0 69 48.5 114.5t111.5 45.5q69 0 114.5 -45.5t45.5 -114.5q0 -63 -45.5 -111.5t-114.5 -48.5z" />
    <glyph glyph-name="uni01D7" unicode="&#x1d7;" horiz-adv-x="2088" 
d="M1592 2048h248v-1356q0 -172 -63 -307.5t-173 -229t-254 -142.5t-306 -49t-306 49t-254 142.5t-173 229t-63 307.5v1356h248v-1356q0 -120 44 -212.5t120.5 -155.5t175.5 -95.5t208 -32.5q110 0 208.5 32.5t175 95.5t120.5 155.5t44 212.5v1356zM756 2208
q-63 0 -111.5 48.5t-48.5 111.5q0 69 48.5 114.5t111.5 45.5q69 0 114.5 -45.5t45.5 -114.5q0 -63 -45.5 -111.5t-114.5 -48.5zM1332 2208q-63 0 -111.5 48.5t-48.5 111.5q0 69 48.5 114.5t111.5 45.5q69 0 114.5 -45.5t45.5 -114.5q0 -63 -45.5 -111.5t-114.5 -48.5z
M940 2672l292 304h276l-360 -304h-208z" />
    <glyph glyph-name="uni01D8" unicode="&#x1d8;" horiz-adv-x="1636" 
d="M1184 628v908h236v-1536h-236v260h-16q-36 -79 -98.5 -142t-152 -100.5t-205.5 -37.5q-144 0 -256 63.5t-176 192t-64 324.5v976h236v-960q0 -168 94.5 -268t241.5 -100q66 0 135.5 25t128.5 77t95.5 131t36.5 187zM712 2256l244 464h276l-312 -464h-208zM532 1792
q-63 0 -111.5 48.5t-48.5 111.5q0 69 48.5 114.5t111.5 45.5q69 0 114.5 -45.5t45.5 -114.5q0 -63 -45.5 -111.5t-114.5 -48.5zM1108 1792q-63 0 -111.5 48.5t-48.5 111.5q0 69 48.5 114.5t111.5 45.5q69 0 114.5 -45.5t45.5 -114.5q0 -63 -45.5 -111.5t-114.5 -48.5z" />
    <glyph glyph-name="uni01D9" unicode="&#x1d9;" horiz-adv-x="2088" 
d="M1592 2048h248v-1356q0 -172 -63 -307.5t-173 -229t-254 -142.5t-306 -49t-306 49t-254 142.5t-173 229t-63 307.5v1356h248v-1356q0 -120 44 -212.5t120.5 -155.5t175.5 -95.5t208 -32.5q110 0 208.5 32.5t175 95.5t120.5 155.5t44 212.5v1356zM840 2876l200 -172
l200 172h236v-24l-352 -300h-168l-348 296v28h232zM564 2417q0 65 40.5 110t115.5 45q78 0 119 -45t41 -111q0 -63 -40.5 -105.5t-117.5 -42.5q-79 0 -118.5 44t-39.5 105zM1208 2415q0 64 41 108.5t119 44.5q75 0 115.5 -44.5t40.5 -107.5q0 -40 -17.5 -74.5t-52 -56
t-86.5 -21.5q-78 0 -119 44.5t-41 106.5z" />
    <glyph glyph-name="uni01DA" unicode="&#x1da;" horiz-adv-x="1636" 
d="M1184 628v908h236v-1536h-236v260h-16q-36 -79 -98.5 -142t-152 -100.5t-205.5 -37.5q-144 0 -256 63.5t-176 192t-64 324.5v976h236v-960q0 -168 94.5 -268t241.5 -100q66 0 135.5 25t128.5 77t95.5 131t36.5 187zM620 2532l200 -232l200 232h236v-16l-352 -380h-168
l-348 380v16h232zM960 1892q0 63 41 109.5t119 46.5t119 -46.5t41 -109.5q0 -60 -41 -104t-119 -44t-119 44t-41 104zM372 1896q0 40 17.5 74.5t52 56t86.5 21.5q78 0 119 -44.5t41 -107.5t-41 -105.5t-119 -42.5q-75 0 -115.5 42.5t-40.5 105.5z" />
    <glyph glyph-name="uni01DB" unicode="&#x1db;" horiz-adv-x="2088" 
d="M1592 2048h248v-1356q0 -172 -63 -307.5t-173 -229t-254 -142.5t-306 -49t-306 49t-254 142.5t-173 229t-63 307.5v1356h248v-1356q0 -120 44 -212.5t120.5 -155.5t175.5 -95.5t208 -32.5q110 0 208.5 32.5t175 95.5t120.5 155.5t44 212.5v1356zM564 2417q0 65 40.5 110
t115.5 45q78 0 119 -45t41 -111q0 -63 -40.5 -105.5t-117.5 -42.5q-79 0 -118.5 44t-39.5 105zM1208 2415q0 64 41 108.5t119 44.5q75 0 115.5 -44.5t40.5 -107.5q0 -40 -17.5 -74.5t-52 -56t-86.5 -21.5q-78 0 -119 44.5t-41 106.5zM972 2808l176 -312h-176l-252 312h252z
" />
    <glyph glyph-name="uni01DC" unicode="&#x1dc;" horiz-adv-x="1636" 
d="M1184 628v908h236v-1536h-236v260h-16q-36 -79 -98.5 -142t-152 -100.5t-205.5 -37.5q-144 0 -256 63.5t-176 192t-64 324.5v976h236v-960q0 -168 94.5 -268t241.5 -100q66 0 135.5 25t128.5 77t95.5 131t36.5 187zM708 2528l268 -408h-236l-364 408h332zM960 1892
q0 63 41 109.5t119 46.5t119 -46.5t41 -109.5q0 -60 -41 -104t-119 -44t-119 44t-41 104zM372 1896q0 40 17.5 74.5t52 56t86.5 21.5q78 0 119 -44.5t41 -107.5t-41 -105.5t-119 -42.5q-75 0 -115.5 42.5t-40.5 105.5z" />
    <glyph glyph-name="uni01DD" unicode="&#x1dd;" horiz-adv-x="1640" 
d="M780 1568q222 0 382.5 -98.5t247 -276t86.5 -413.5t-86.5 -416.5t-242 -282t-363.5 -101.5q-120 0 -237.5 40t-212.5 129.5t-152.5 237t-57.5 361.5v100h1115q-11 248 -141 378t-338 130q-139 0 -238.5 -60t-145.5 -180l-228 64q56 177 217 282.5t395 105.5zM1259 644
h-875q0 -130 51.5 -232t146 -161t222.5 -59q135 0 234 63t156 165.5t65 223.5z" />
    <glyph glyph-name="uni01DE" unicode="&#x1de;" horiz-adv-x="1904" 
d="M332 0h-260l752 2048h256l752 -2048h-260l-206 580h-828zM616 800h672l-328 924h-16zM1420 3072v-200h-936v200h936zM664 2304q-63 0 -111.5 48.5t-48.5 111.5q0 69 48.5 114.5t111.5 45.5q69 0 114.5 -45.5t45.5 -114.5q0 -63 -45.5 -111.5t-114.5 -48.5zM1240 2304
q-63 0 -111.5 48.5t-48.5 111.5q0 69 48.5 114.5t111.5 45.5q69 0 114.5 -45.5t45.5 -114.5q0 -63 -45.5 -111.5t-114.5 -48.5z" />
    <glyph glyph-name="uni01DF" unicode="&#x1df;" horiz-adv-x="1588" 
d="M668 -36q-146 0 -265 55.5t-189 161t-70 255.5q0 132 52.5 214.5t138.5 129.5t191.5 71t213.5 37q70 9 127 15q94 10 153.5 21t87.5 34t28 70v8q0 148 -80.5 230t-243.5 82q-112 0 -192 -34.5t-131 -87.5t-77 -110l-224 80q62 139 161.5 218t219 110.5t235.5 31.5
q59 0 134 -10t150.5 -41t140 -91t104 -158t39.5 -244v-1012h-236v208h-12q-18 -38 -54 -80t-91.5 -79.5t-132.5 -61t-178 -23.5zM704 176q140 0 236.5 55t146 142t49.5 183v216q-21 -22 -90.5 -39t-151.5 -28t-141 -18q-14 -2 -25 -3q-93 -11 -172 -38t-127.5 -79.5
t-48.5 -142.5q0 -82 42 -137t115 -83t167 -28zM1288 2560v-200h-936v200h936zM532 1792q-63 0 -111.5 48.5t-48.5 111.5q0 69 48.5 114.5t111.5 45.5q69 0 114.5 -45.5t45.5 -114.5q0 -63 -45.5 -111.5t-114.5 -48.5zM1108 1792q-63 0 -111.5 48.5t-48.5 111.5
q0 69 48.5 114.5t111.5 45.5q69 0 114.5 -45.5t45.5 -114.5q0 -63 -45.5 -111.5t-114.5 -48.5z" />
    <glyph glyph-name="uni01E0" unicode="&#x1e0;" horiz-adv-x="1904" 
d="M332 0h-260l752 2048h256l752 -2048h-260l-206 580h-828zM616 800h672l-328 924h-16zM1420 2960v-200h-936v200h936zM952 2224q-69 0 -118.5 47t-49.5 113t49.5 113t118.5 47t118.5 -47t49.5 -113t-49.5 -113t-118.5 -47z" />
    <glyph glyph-name="uni01E1" unicode="&#x1e1;" horiz-adv-x="1588" 
d="M668 -36q-146 0 -265 55.5t-189 161t-70 255.5q0 132 52.5 214.5t138.5 129.5t191.5 71t213.5 37q70 9 127 15q94 10 153.5 21t87.5 34t28 70v8q0 148 -80.5 230t-243.5 82q-112 0 -192 -34.5t-131 -87.5t-77 -110l-224 80q62 139 161.5 218t219 110.5t235.5 31.5
q59 0 134 -10t150.5 -41t140 -91t104 -158t39.5 -244v-1012h-236v208h-12q-18 -38 -54 -80t-91.5 -79.5t-132.5 -61t-178 -23.5zM704 176q140 0 236.5 55t146 142t49.5 183v216q-21 -22 -90.5 -39t-151.5 -28t-141 -18q-14 -2 -25 -3q-93 -11 -172 -38t-127.5 -79.5
t-48.5 -142.5q0 -82 42 -137t115 -83t167 -28zM1292 2444v-200h-936v200h936zM824 1708q-69 0 -118.5 47t-49.5 113t49.5 113t118.5 47t118.5 -47t49.5 -113t-49.5 -113t-118.5 -47z" />
    <glyph glyph-name="uni01E2" unicode="&#x1e2;" horiz-adv-x="2788" 
d="M72 0l992 2048h1524v-220h-988v-692h924v-220h-924v-696h1004v-220h-1252v580h-735l-273 -580h-272zM720 800h632v1028h-148zM2288 2560v-200h-936v200h936z" />
    <glyph glyph-name="uni01E3" unicode="&#x1e3;" horiz-adv-x="2604" 
d="M1824 -32q-208 0 -359 84t-225 228h-8q-31 -87 -113 -158.5t-199.5 -114.5t-251.5 -43q-146 0 -265 55.5t-189 161t-70 255.5q0 132 52.5 214.5t139 130t191.5 71.5t213 36l122 15q96 10 156.5 21t89 34t28.5 70v8q0 147 -81 229.5t-243 82.5q-112 0 -192 -34.5
t-131 -87.5t-77 -110l-224 80q62 139 161.5 218t219 110.5t235.5 31.5q73 0 168.5 -17t184.5 -70t149 -158q82 117 206.5 181t287.5 64q120 0 237.5 -40t212.5 -129.5t152.5 -236.5t57.5 -362v-100h-1115q11 -247 142 -377.5t337 -130.5q139 0 238.5 60t145.5 180l228 -64
q-56 -176 -217 -282t-395 -106zM704 176q140 0 236.5 55t146 142t49.5 183v216q-21 -22 -90.5 -39t-151.5 -28t-141 -18q-14 -2 -25 -3q-93 -11 -172 -38t-127.5 -79.5t-48.5 -142.5q0 -82 42 -137t115 -83t167 -28zM1345 892h875q0 130 -51.5 232t-146 161t-222.5 59
q-134 0 -233.5 -63.5t-156 -165.5t-65.5 -223zM1752 2048v-200h-936v200h936z" />
    <glyph glyph-name="uni01E4" unicode="&#x1e4;" horiz-adv-x="2112" 
d="M2076 624v-200h-140v-424h-208l-30 250h-10q-115 -135 -260 -206.5t-348 -71.5q-272 0 -477.5 128t-320 364t-114.5 560q0 243 67 437.5t188.5 331.5t287 210t361.5 73q216 0 395 -84.5t298 -234.5t159 -349h-256q-63 204 -219 320t-377 116q-136 0 -256.5 -53
t-212 -157.5t-143.5 -257t-52 -352.5q0 -266 89 -449t241 -277t342 -94q154 0 277.5 58t205.5 162h-427v200h531q25 84 29 180h-560v220h800v-400h140z" />
    <glyph glyph-name="uni01E5" unicode="&#x1e5;" horiz-adv-x="1716" 
d="M836 -608q-171 0 -294 43.5t-205 113t-129 151.5l188 132q3 -5 7 -9q23 -33 56.5 -71t83 -72.5t121 -57t172.5 -22.5q124 0 220.5 39.5t152 122t55.5 210.5v312h-20l-6 -10q-20 -34 -51.5 -76t-81.5 -81.5t-125.5 -66t-183.5 -26.5q-186 0 -333.5 88t-233 256t-85.5 408
q0 236 83 411.5t231 272t342 96.5q105 0 179.5 -26t124.5 -65.5t82 -81t51 -75.5q6 -8 11 -16h24v244h228v-668h328v-184h-328v-728q0 -148 -51.5 -255t-142.5 -175.5t-211.5 -101t-258.5 -32.5zM828 236q192 0 303 117.5t133 330.5h-316v184h316q-13 143 -66 249.5
t-146 166.5t-224 60q-150 0 -249.5 -76t-149 -204t-49.5 -284q0 -160 50.5 -282.5t150 -192t247.5 -69.5z" />
    <glyph glyph-name="Gcaron" unicode="&#x1e6;" horiz-adv-x="2112" 
d="M1080 -28q-272 0 -477.5 128t-320 364t-114.5 560q0 243 67 437.5t188.5 331.5t287 210t361.5 73q216 0 395 -84.5t298 -234.5t159 -349h-256q-63 204 -219 320t-377 116q-136 0 -256.5 -53t-212 -157.5t-143.5 -257t-52 -352.5q0 -266 89 -449t241 -277t342 -94
q178 0 314.5 77t215.5 211.5t86 311.5h-560v220h800v-1024h-208l-30 250h-10q-115 -135 -260 -206.5t-348 -71.5zM856 2664l208 -280l208 280h224v-16l-324 -416h-216l-324 416v16h224z" />
    <glyph glyph-name="gcaron" unicode="&#x1e7;" horiz-adv-x="1716" 
d="M836 -608q-171 0 -294 43.5t-205 113t-129 151.5l188 132q3 -5 7 -9q23 -33 56.5 -71t83 -72.5t121 -57t172.5 -22.5q124 0 220.5 39.5t152 122t55.5 210.5v312h-20l-6 -10q-20 -34 -51.5 -76t-81.5 -81.5t-125.5 -66t-183.5 -26.5q-186 0 -333.5 88t-233 256t-85.5 408
q0 236 83 411.5t231 272t342 96.5q105 0 179.5 -26t124.5 -65.5t82 -81t51 -75.5q6 -8 11 -16h24v244h228v-1580q0 -148 -51.5 -255t-142.5 -175.5t-211.5 -101t-258.5 -32.5zM828 236q213 0 326.5 144.5t113.5 399.5q0 166 -50 293t-148 199t-242 72q-150 0 -249.5 -76
t-149 -204t-49.5 -284q0 -160 50.5 -282.5t150 -192t247.5 -69.5zM652 2152l208 -280l208 280h224v-16l-324 -416h-216l-324 416v16h224z" />
    <glyph glyph-name="uni01E8" unicode="&#x1e8;" horiz-adv-x="1836" 
d="M248 0v2048h248v-1016h24l920 1016h324l-860 -924l860 -1124h-300l-712 952l-256 -288v-664h-248zM720 2664l208 -280l208 280h224v-16l-324 -416h-216l-324 416v16h224z" />
    <glyph glyph-name="uni01E9" unicode="&#x1e9;" horiz-adv-x="1532" 
d="M216 0v2048h236v-1196h28l672 684h292l-649 -656l697 -880h-300l-575 728l-165 -153v-575h-236zM128 2664l208 -280l208 280h224v-16l-324 -416h-216l-324 416v16h224z" />
    <glyph glyph-name="uni01EA" unicode="&#x1ea;" horiz-adv-x="2144" 
d="M1976 1024q0 -282 -89.5 -498t-248.5 -352.5t-370 -181.5q-61 -44 -113.5 -91.5t-85.5 -100t-33 -112.5q0 -45 22 -70.5t82 -25.5q45 0 80 11.5t56 24.5l16 -176q-33 -22 -86.5 -41t-125.5 -19q-82 0 -146 30t-101 89t-37 145q0 82 44.5 163.5t144.5 156.5
q-241 22 -424.5 154.5t-288 360t-104.5 533.5q0 243 67 437.5t188.5 331.5t287 210t361.5 73q197 0 362 -73t286.5 -210t188.5 -331.5t67 -437.5zM1736 1024q0 200 -51 352.5t-141.5 257t-211 157.5t-260.5 53q-139 0 -260 -53t-211.5 -157.5t-141.5 -257t-51 -352.5
q0 -199 51 -352t141.5 -257.5t211.5 -157.5t260 -53q140 0 260.5 53t211 157.5t141.5 257.5t51 352z" />
    <glyph glyph-name="uni01EB" unicode="&#x1eb;" horiz-adv-x="1680" 
d="M868 -600q-82 0 -146 30t-101 89t-37 145q0 79 41 157.5t133 150.5q-186 21 -323.5 123t-214 272.5t-76.5 392.5q0 240 87.5 419t244 278t364.5 99t364.5 -99t244 -278t87.5 -419q0 -292 -129 -491t-352 -270q-61 -44 -113 -91t-85 -99.5t-33 -112.5q0 -45 22 -70.5
t82 -25.5q45 0 80 11.5t56 24.5l16 -176q-33 -22 -86.5 -41t-125.5 -19zM840 180q119 0 205.5 47t143 127.5t84 185.5t27.5 220q0 116 -27.5 221t-84 186.5t-143 129t-205.5 47.5q-118 0 -205 -47.5t-143.5 -129t-84 -186.5t-27.5 -221q0 -115 27.5 -220t84 -185.5
t143.5 -127.5t205 -47z" />
    <glyph glyph-name="uni01EC" unicode="&#x1ec;" horiz-adv-x="2144" 
d="M1976 1024q0 -282 -89.5 -498t-248.5 -352.5t-370 -181.5q-61 -44 -113.5 -91.5t-85.5 -100t-33 -112.5q0 -45 22 -70.5t82 -25.5q45 0 80 11.5t56 24.5l16 -176q-33 -22 -86.5 -41t-125.5 -19q-82 0 -146 30t-101 89t-37 145q0 82 44.5 163.5t144.5 156.5
q-241 22 -424.5 154.5t-288 360t-104.5 533.5q0 243 67 437.5t188.5 331.5t287 210t361.5 73q197 0 362 -73t286.5 -210t188.5 -331.5t67 -437.5zM1736 1024q0 200 -51 352.5t-141.5 257t-211 157.5t-260.5 53q-139 0 -260 -53t-211.5 -157.5t-141.5 -257t-51 -352.5
q0 -199 51 -352t141.5 -257.5t211.5 -157.5t260 -53q140 0 260.5 53t211 157.5t141.5 257.5t51 352zM1540 2560v-200h-936v200h936z" />
    <glyph glyph-name="uni01ED" unicode="&#x1ed;" horiz-adv-x="1680" 
d="M868 -600q-82 0 -146 30t-101 89t-37 145q0 79 41 157.5t133 150.5q-186 21 -323.5 123t-214 272.5t-76.5 392.5q0 240 87.5 419t244 278t364.5 99t364.5 -99t244 -278t87.5 -419q0 -292 -129 -491t-352 -270q-61 -44 -113 -91t-85 -99.5t-33 -112.5q0 -45 22 -70.5
t82 -25.5q45 0 80 11.5t56 24.5l16 -176q-33 -22 -86.5 -41t-125.5 -19zM840 180q119 0 205.5 47t143 127.5t84 185.5t27.5 220q0 116 -27.5 221t-84 186.5t-143 129t-205.5 47.5q-118 0 -205 -47.5t-143.5 -129t-84 -186.5t-27.5 -221q0 -115 27.5 -220t84 -185.5
t143.5 -127.5t205 -47zM1308 2048v-200h-936v200h936z" />
    <glyph glyph-name="uni01EE" unicode="&#x1ee;" horiz-adv-x="1920" 
d="M136 108h252q20 -205 180 -332.5t380 -127.5q174 0 301.5 81.5t197 221.5t69.5 317q0 195 -87.5 340.5t-241.5 226.5t-355 81h-152v208l684 684v16h-1112v224h1456v-180l-724 -736v-20q229 -12 403.5 -120.5t273.5 -295.5t99 -428q0 -243 -102 -433.5t-285.5 -300.5
t-428.5 -110q-219 0 -398 87.5t-287.5 241t-122.5 355.5zM752 2664l208 -280l208 280h224v-16l-324 -416h-216l-324 416v16h224z" />
    <glyph glyph-name="uni01EF" unicode="&#x1ef;" horiz-adv-x="1768" 
d="M180 0h252q20 -156 143 -238t301 -82q128 0 230 43t162 128.5t60 212.5q0 83 -29 158.5t-91 134.5t-162 93t-242 34h-164v200l512 616v16h-872v220h1212v-180l-548 -664v-16q178 -9 319.5 -90t225 -216t83.5 -306q0 -175 -89.5 -311.5t-247 -214.5t-363.5 -78
q-182 0 -335 64t-248 184.5t-109 291.5zM676 2152l208 -280l208 280h224v-16l-324 -416h-216l-324 416v16h224z" />
    <glyph glyph-name="uni01F0" unicode="&#x1f0;" horiz-adv-x="668" 
d="M216 1536h236v-1648q0 -142 -48.5 -246t-146 -161t-245.5 -57h-48v220h44q108 0 158 63.5t50 180.5v1648zM124 2152l208 -280l208 280h224v-16l-324 -416h-216l-324 416v16h224z" />
    <glyph glyph-name="uni01F1" unicode="&#x1f1;" horiz-adv-x="3784" 
d="M880 0h-632v2048h660q298 0 510 -122.5t325 -351t113 -546.5q0 -320 -114 -550.5t-332 -354t-530 -123.5zM496 220h368q254 0 421 98t249 279t82 431q0 248 -81 427.5t-242 276t-401 96.5h-396v-1608zM2204 0v180l1104 1648h-1116v220h1412v-180l-1104 -1648h1116v-220
h-1412z" />
    <glyph glyph-name="uni01F2" unicode="&#x1f2;" horiz-adv-x="3548" 
d="M880 0h-632v2048h660q298 0 510 -122.5t325 -351t113 -546.5q0 -320 -114 -550.5t-332 -354t-530 -123.5zM496 220h368q254 0 421 98t249 279t82 431q0 248 -81 427.5t-242 276t-401 96.5h-396v-1608zM2196 0v180l872 1120v16h-844v220h1148v-188l-848 -1112v-16h876
v-220h-1204z" />
    <glyph glyph-name="uni01F4" unicode="&#x1f4;" horiz-adv-x="2112" 
d="M1080 -28q-272 0 -477.5 128t-320 364t-114.5 560q0 243 67 437.5t188.5 331.5t287 210t361.5 73q216 0 395 -84.5t298 -234.5t159 -349h-256q-63 204 -219 320t-377 116q-136 0 -256.5 -53t-212 -157.5t-143.5 -257t-52 -352.5q0 -266 89 -449t241 -277t342 -94
q178 0 314.5 77t215.5 211.5t86 311.5h-560v220h800v-1024h-208l-30 250h-10q-115 -135 -260 -206.5t-348 -71.5zM956 2256l244 464h276l-312 -464h-208z" />
    <glyph glyph-name="uni01F5" unicode="&#x1f5;" horiz-adv-x="1716" 
d="M836 -608q-171 0 -294 43.5t-205 113t-129 151.5l188 132q3 -5 7 -9q23 -33 56.5 -71t83 -72.5t121 -57t172.5 -22.5q124 0 220.5 39.5t152 122t55.5 210.5v312h-20l-6 -10q-20 -34 -51.5 -76t-81.5 -81.5t-125.5 -66t-183.5 -26.5q-186 0 -333.5 88t-233 256t-85.5 408
q0 236 83 411.5t231 272t342 96.5q105 0 179.5 -26t124.5 -65.5t82 -81t51 -75.5q6 -8 11 -16h24v244h228v-1580q0 -148 -51.5 -255t-142.5 -175.5t-211.5 -101t-258.5 -32.5zM828 236q213 0 326.5 144.5t113.5 399.5q0 166 -50 293t-148 199t-242 72q-150 0 -249.5 -76
t-149 -204t-49.5 -284q0 -160 50.5 -282.5t150 -192t247.5 -69.5zM752 1744l244 464h276l-312 -464h-208z" />
    <glyph glyph-name="uni01F6" unicode="&#x1f6;" horiz-adv-x="3136" 
d="M2260 -28q-200 0 -351.5 76.5t-236 227t-84.5 372.5v268h-1092v-916h-248v2048h248v-912h1092v912h248v-1400q0 -231 111.5 -339.5t312.5 -108.5t306.5 108.5t105.5 339.5v888h248v-888q0 -226 -84 -376t-233 -225t-343 -75z" />
    <glyph glyph-name="uni01F7" unicode="&#x1f7;" horiz-adv-x="1776" 
d="M444 2004v-52q75 38 166 59t198 21q250 0 432 -92.5t281 -278t99 -465.5v-72q0 -244 -88.5 -464.5t-247 -399.5t-372.5 -303.5t-468 -179.5v-349h-288v2576h288zM444 12q306 85 504 264t293 405t95 443v76q0 312 -130.5 456t-397.5 144q-135 0 -223.5 -44t-140.5 -125
v-1619z" />
    <glyph glyph-name="uni01F8" unicode="&#x1f8;" horiz-adv-x="2120" 
d="M1872 2048v-2048h-240l-1116 1608h-20v-1608h-248v2048h240l1120 -1612h20v1612h244zM1168 2256h-208l-312 464h276z" />
    <glyph glyph-name="uni01F9" unicode="&#x1f9;" horiz-adv-x="1648" 
d="M452 924v-924h-236v1536h228v-240h20q54 119 164 189.5t284 70.5q156 0 273 -63.5t182 -192t65 -324.5v-976h-236v960q0 181 -94 282.5t-258 101.5q-113 0 -201.5 -49t-139.5 -143t-51 -228zM932 1744h-208l-312 464h276z" />
    <glyph glyph-name="Aringacute" unicode="&#x1fa;" horiz-adv-x="1904" 
d="M332 0h-260l752 2048h256l752 -2048h-260l-206 580h-828zM616 800h672l-328 924h-16zM952 2160q-96 0 -166 68t-70 164t70 164t166 68q99 0 167.5 -68t68.5 -164t-68.5 -164t-167.5 -68zM852 2688l200 248h272l-304 -248h-168zM952 2296q42 0 69 28.5t27 67.5
q0 36 -27 64t-69 28q-39 0 -67.5 -28t-28.5 -64q0 -39 28.5 -67.5t67.5 -28.5z" />
    <glyph glyph-name="aringacute" unicode="&#x1fb;" horiz-adv-x="1588" 
d="M668 -36q-146 0 -265 55.5t-189 161t-70 255.5q0 132 52.5 214.5t138.5 129.5t191.5 71t213.5 37q70 9 127 15q94 10 153.5 21t87.5 34t28 70v8q0 148 -80.5 230t-243.5 82q-112 0 -192 -34.5t-131 -87.5t-77 -110l-224 80q62 139 161.5 218t219 110.5t235.5 31.5
q59 0 134 -10t150.5 -41t140 -91t104 -158t39.5 -244v-1012h-236v208h-12q-18 -38 -54 -80t-91.5 -79.5t-132.5 -61t-178 -23.5zM704 176q140 0 236.5 55t146 142t49.5 183v216q-21 -22 -90.5 -39t-151.5 -28t-141 -18q-14 -2 -25 -3q-93 -11 -172 -38t-127.5 -79.5
t-48.5 -142.5q0 -82 42 -137t115 -83t167 -28zM820 1648q-96 0 -166 68t-70 164t70 164t166 68q99 0 167.5 -68t68.5 -164t-68.5 -164t-167.5 -68zM720 2176l200 248h272l-304 -248h-168zM820 1784q42 0 69 28.5t27 67.5q0 36 -27 64t-69 28q-39 0 -67.5 -28t-28.5 -64
q0 -39 28.5 -67.5t67.5 -28.5z" />
    <glyph glyph-name="AEacute" unicode="&#x1fc;" horiz-adv-x="2788" 
d="M72 0l992 2048h1524v-220h-988v-692h924v-220h-924v-696h1004v-220h-1252v580h-735l-273 -580h-272zM720 800h632v1028h-148zM1712 2256l244 464h276l-312 -464h-208z" />
    <glyph glyph-name="aeacute" unicode="&#x1fd;" horiz-adv-x="2604" 
d="M1824 -32q-208 0 -359 84t-225 228h-8q-31 -87 -113 -158.5t-199.5 -114.5t-251.5 -43q-146 0 -265 55.5t-189 161t-70 255.5q0 132 52.5 214.5t139 130t191.5 71.5t213 36l122 15q96 10 156.5 21t89 34t28.5 70v8q0 147 -81 229.5t-243 82.5q-112 0 -192 -34.5
t-131 -87.5t-77 -110l-224 80q62 139 161.5 218t219 110.5t235.5 31.5q73 0 168.5 -17t184.5 -70t149 -158q82 117 206.5 181t287.5 64q120 0 237.5 -40t212.5 -129.5t152.5 -236.5t57.5 -362v-100h-1115q11 -247 142 -377.5t337 -130.5q139 0 238.5 60t145.5 180l228 -64
q-56 -176 -217 -282t-395 -106zM704 176q140 0 236.5 55t146 142t49.5 183v216q-21 -22 -90.5 -39t-151.5 -28t-141 -18q-14 -2 -25 -3q-93 -11 -172 -38t-127.5 -79.5t-48.5 -142.5q0 -82 42 -137t115 -83t167 -28zM1345 892h875q0 130 -51.5 232t-146 161t-222.5 59
q-134 0 -233.5 -63.5t-156 -165.5t-65.5 -223zM1176 1744l244 464h276l-312 -464h-208z" />
    <glyph glyph-name="Oslashacute" unicode="&#x1fe;" horiz-adv-x="2144" 
d="M432 -84l-152 104l152 225q-125 138 -194.5 335t-69.5 444q0 243 67 437.5t188.5 331.5t287 210t361.5 73q282 0 497 -148l135 200l152 -104l-147 -218q126 -137 196.5 -335t70.5 -447q0 -243 -67 -437.5t-188.5 -331.5t-286.5 -210t-362 -73q-283 0 -500 151zM1736 1024
q0 185 -43.5 329t-122.5 248l-866 -1282q163 -115 368 -115q140 0 260.5 53t211 157.5t141.5 257.5t51 352zM571 451l865 1281q-161 112 -364 112q-139 0 -260 -53t-211.5 -157.5t-141.5 -257t-51 -352.5q0 -183 43 -326.5t120 -246.5zM964 2256l244 464h276l-312 -464h-208
z" />
    <glyph glyph-name="oslashacute" unicode="&#x1ff;" horiz-adv-x="1680" 
d="M380 -84l-152 104l110 163q-93 105 -143.5 251.5t-50.5 325.5q0 240 87.5 419t244 278t364.5 99q204 0 360 -96l100 148l152 -104l-110 -163q93 -105 143.5 -252t50.5 -329q0 -238 -87.5 -416t-244 -277t-364.5 -99q-204 0 -360 96zM840 180q119 0 205.5 47t143 127.5
t84 185.5t27.5 220q0 106 -23 203.5t-71 176.5l-603 -894q96 -66 237 -66zM473 383l604 894q-96 67 -237 67q-118 0 -205 -47.5t-143.5 -129t-84 -186.5t-27.5 -221q0 -106 23 -202.5t70 -174.5zM732 1744l244 464h276l-312 -464h-208z" />
    <glyph glyph-name="uni0200" unicode="&#x200;" horiz-adv-x="1904" 
d="M332 0h-260l752 2048h256l752 -2048h-260l-206 580h-828zM616 800h672l-328 924h-16zM912 2248h-248l-420 364h332zM1276 2248h-220l-336 364h304z" />
    <glyph glyph-name="uni0201" unicode="&#x201;" horiz-adv-x="1588" 
d="M668 -36q-146 0 -265 55.5t-189 161t-70 255.5q0 132 52.5 214.5t138.5 129.5t191.5 71t213.5 37q70 9 127 15q94 10 153.5 21t87.5 34t28 70v8q0 148 -80.5 230t-243.5 82q-112 0 -192 -34.5t-131 -87.5t-77 -110l-224 80q62 139 161.5 218t219 110.5t235.5 31.5
q59 0 134 -10t150.5 -41t140 -91t104 -158t39.5 -244v-1012h-236v208h-12q-18 -38 -54 -80t-91.5 -79.5t-132.5 -61t-178 -23.5zM704 176q140 0 236.5 55t146 142t49.5 183v216q-21 -22 -90.5 -39t-151.5 -28t-141 -18q-14 -2 -25 -3q-93 -11 -172 -38t-127.5 -79.5
t-48.5 -142.5q0 -82 42 -137t115 -83t167 -28zM780 1736h-248l-420 364h332zM1144 1736h-220l-336 364h304z" />
    <glyph glyph-name="uni0202" unicode="&#x202;" horiz-adv-x="1904" 
d="M332 0h-260l752 2048h256l752 -2048h-260l-206 580h-828zM616 800h672l-328 924h-16zM540 2288q0 108 50.5 192t144 132t221.5 48t220.5 -48t142 -132t49.5 -192h-220q0 54 -19.5 99.5t-62 73t-110.5 27.5q-72 0 -115 -28.5t-62 -74t-19 -97.5h-220z" />
    <glyph glyph-name="uni0203" unicode="&#x203;" horiz-adv-x="1588" 
d="M668 -36q-146 0 -265 55.5t-189 161t-70 255.5q0 132 52.5 214.5t138.5 129.5t191.5 71t213.5 37q70 9 127 15q94 10 153.5 21t87.5 34t28 70v8q0 148 -80.5 230t-243.5 82q-112 0 -192 -34.5t-131 -87.5t-77 -110l-224 80q62 139 161.5 218t219 110.5t235.5 31.5
q59 0 134 -10t150.5 -41t140 -91t104 -158t39.5 -244v-1012h-236v208h-12q-18 -38 -54 -80t-91.5 -79.5t-132.5 -61t-178 -23.5zM704 176q140 0 236.5 55t146 142t49.5 183v216q-21 -22 -90.5 -39t-151.5 -28t-141 -18q-14 -2 -25 -3q-93 -11 -172 -38t-127.5 -79.5
t-48.5 -142.5q0 -82 42 -137t115 -83t167 -28zM408 1776q0 108 50.5 192t144 132t221.5 48t220.5 -48t142 -132t49.5 -192h-220q0 54 -19.5 99.5t-62 73t-110.5 27.5q-72 0 -115 -28.5t-62 -74t-19 -97.5h-220z" />
    <glyph glyph-name="uni0204" unicode="&#x204;" horiz-adv-x="1684" 
d="M248 0v2048h1236v-220h-988v-692h924v-220h-924v-696h1004v-220h-1252zM824 2248h-248l-420 364h332zM1188 2248h-220l-336 364h304z" />
    <glyph glyph-name="uni0205" unicode="&#x205;" horiz-adv-x="1640" 
d="M860 -32q-222 0 -382.5 98.5t-247 276t-86.5 413.5t86.5 416.5t242 282t363.5 101.5q120 0 237.5 -40t212.5 -129.5t152.5 -236.5t57.5 -362v-100h-1115q11 -248 141 -378t338 -130q139 0 238.5 60t145.5 180l228 -64q-56 -176 -217 -282t-395 -106zM381 892h875
q0 130 -51.5 232t-146 161t-222.5 59q-135 0 -234 -63t-156 -165.5t-65 -223.5zM784 1736h-248l-420 364h332zM1148 1736h-220l-336 364h304z" />
    <glyph glyph-name="uni0206" unicode="&#x206;" horiz-adv-x="1684" 
d="M248 0v2048h1236v-220h-988v-692h924v-220h-924v-696h1004v-220h-1252zM452 2288q0 108 50.5 192t144 132t221.5 48t220.5 -48t142 -132t49.5 -192h-220q0 54 -19.5 99.5t-62 73t-110.5 27.5q-72 0 -115 -28.5t-62 -74t-19 -97.5h-220z" />
    <glyph glyph-name="uni0207" unicode="&#x207;" horiz-adv-x="1640" 
d="M860 -32q-222 0 -382.5 98.5t-247 276t-86.5 413.5t86.5 416.5t242 282t363.5 101.5q120 0 237.5 -40t212.5 -129.5t152.5 -236.5t57.5 -362v-100h-1115q11 -248 141 -378t338 -130q139 0 238.5 60t145.5 180l228 -64q-56 -176 -217 -282t-395 -106zM381 892h875
q0 130 -51.5 232t-146 161t-222.5 59q-135 0 -234 -63t-156 -165.5t-65 -223.5zM412 1776q0 108 50.5 192t144 132t221.5 48t220.5 -48t142 -132t49.5 -192h-220q0 54 -19.5 99.5t-62 73t-110.5 27.5q-72 0 -115 -28.5t-62 -74t-19 -97.5h-220z" />
    <glyph glyph-name="uni0208" unicode="&#x208;" horiz-adv-x="1248" 
d="M136 1828v220h976v-220h-364v-1608h364v-220h-976v220h364v1608h-364zM584 2248h-248l-420 364h332zM948 2248h-220l-336 364h304z" />
    <glyph glyph-name="uni0209" unicode="&#x209;" horiz-adv-x="668" 
d="M216 0v1536h236v-1536h-236zM296 1736h-248l-420 364h332zM660 1736h-220l-336 364h304z" />
    <glyph glyph-name="uni020A" unicode="&#x20a;" horiz-adv-x="1248" 
d="M136 1828v220h976v-220h-364v-1608h364v-220h-976v220h364v1608h-364zM212 2288q0 108 50.5 192t144 132t221.5 48t220.5 -48t142 -132t49.5 -192h-220q0 54 -19.5 99.5t-62 73t-110.5 27.5q-72 0 -115 -28.5t-62 -74t-19 -97.5h-220z" />
    <glyph glyph-name="uni020B" unicode="&#x20b;" horiz-adv-x="668" 
d="M216 0v1536h236v-1536h-236zM-76 1776q0 108 50.5 192t144 132t221.5 48t220.5 -48t142 -132t49.5 -192h-220q0 54 -19.5 99.5t-62 73t-110.5 27.5q-72 0 -115 -28.5t-62 -74t-19 -97.5h-220z" />
    <glyph glyph-name="uni020C" unicode="&#x20c;" horiz-adv-x="2144" 
d="M1976 1024q0 -243 -67 -437.5t-188.5 -331.5t-286.5 -210t-362 -73q-196 0 -361.5 73t-287 210t-188.5 331.5t-67 437.5t67 437.5t188.5 331.5t287 210t361.5 73q197 0 362 -73t286.5 -210t188.5 -331.5t67 -437.5zM1736 1024q0 200 -51 352.5t-141.5 257t-211 157.5
t-260.5 53q-139 0 -260 -53t-211.5 -157.5t-141.5 -257t-51 -352.5q0 -199 51 -352t141.5 -257.5t211.5 -157.5t260 -53q140 0 260.5 53t211 157.5t141.5 257.5t51 352zM1032 2248h-248l-420 364h332zM1396 2248h-220l-336 364h304z" />
    <glyph glyph-name="uni020D" unicode="&#x20d;" horiz-adv-x="1680" 
d="M840 -32q-208 0 -364.5 99t-244 277t-87.5 416q0 240 87.5 419t244 278t364.5 99t364.5 -99t244 -278t87.5 -419q0 -238 -87.5 -416t-244 -277t-364.5 -99zM840 180q119 0 205.5 47t143 127.5t84 185.5t27.5 220q0 116 -27.5 221t-84 186.5t-143 129t-205.5 47.5
q-118 0 -205 -47.5t-143.5 -129t-84 -186.5t-27.5 -221q0 -115 27.5 -220t84 -185.5t143.5 -127.5t205 -47zM800 1736h-248l-420 364h332zM1164 1736h-220l-336 364h304z" />
    <glyph glyph-name="uni020E" unicode="&#x20e;" horiz-adv-x="2144" 
d="M1976 1024q0 -243 -67 -437.5t-188.5 -331.5t-286.5 -210t-362 -73q-196 0 -361.5 73t-287 210t-188.5 331.5t-67 437.5t67 437.5t188.5 331.5t287 210t361.5 73q197 0 362 -73t286.5 -210t188.5 -331.5t67 -437.5zM1736 1024q0 200 -51 352.5t-141.5 257t-211 157.5
t-260.5 53q-139 0 -260 -53t-211.5 -157.5t-141.5 -257t-51 -352.5q0 -199 51 -352t141.5 -257.5t211.5 -157.5t260 -53q140 0 260.5 53t211 157.5t141.5 257.5t51 352zM660 2288q0 108 50.5 192t144 132t221.5 48t220.5 -48t142 -132t49.5 -192h-220q0 54 -19.5 99.5
t-62 73t-110.5 27.5q-72 0 -115 -28.5t-62 -74t-19 -97.5h-220z" />
    <glyph glyph-name="uni020F" unicode="&#x20f;" horiz-adv-x="1680" 
d="M840 -32q-208 0 -364.5 99t-244 277t-87.5 416q0 240 87.5 419t244 278t364.5 99t364.5 -99t244 -278t87.5 -419q0 -238 -87.5 -416t-244 -277t-364.5 -99zM840 180q119 0 205.5 47t143 127.5t84 185.5t27.5 220q0 116 -27.5 221t-84 186.5t-143 129t-205.5 47.5
q-118 0 -205 -47.5t-143.5 -129t-84 -186.5t-27.5 -221q0 -115 27.5 -220t84 -185.5t143.5 -127.5t205 -47zM428 1776q0 108 50.5 192t144 132t221.5 48t220.5 -48t142 -132t49.5 -192h-220q0 54 -19.5 99.5t-62 73t-110.5 27.5q-72 0 -115 -28.5t-62 -74t-19 -97.5h-220z
" />
    <glyph glyph-name="uni0210" unicode="&#x210;" horiz-adv-x="1800" 
d="M248 0v2048h692q240 0 394 -81.5t228 -223.5t74 -323q0 -204 -94 -354.5t-289 -219.5l463 -846h-288l-432 801q-25 -1 -52 -1h-448v-800h-248zM496 1024h440q164 0 264.5 48t146 136.5t45.5 211.5t-46 215t-147 142.5t-267 50.5h-436v-804zM848 2248h-248l-420 364h332z
M1212 2248h-220l-336 364h304z" />
    <glyph glyph-name="uni0211" unicode="&#x211;" horiz-adv-x="1048" 
d="M216 0v1536h228v-232h16q45 116 153.5 186t246.5 70q26 0 64 -1t60 -3v-240q-14 4 -55.5 10t-88.5 6q-168 0 -278 -102t-110 -258v-972h-236zM540 1736h-248l-420 364h332zM904 1736h-220l-336 364h304z" />
    <glyph glyph-name="uni0212" unicode="&#x212;" horiz-adv-x="1800" 
d="M248 0v2048h692q240 0 394 -81.5t228 -223.5t74 -323q0 -204 -94 -354.5t-289 -219.5l463 -846h-288l-432 801q-25 -1 -52 -1h-448v-800h-248zM496 1024h440q164 0 264.5 48t146 136.5t45.5 211.5t-46 215t-147 142.5t-267 50.5h-436v-804zM476 2288q0 108 50.5 192
t144 132t221.5 48t220.5 -48t142 -132t49.5 -192h-220q0 54 -19.5 99.5t-62 73t-110.5 27.5q-72 0 -115 -28.5t-62 -74t-19 -97.5h-220z" />
    <glyph glyph-name="uni0213" unicode="&#x213;" horiz-adv-x="1048" 
d="M216 0v1536h228v-232h16q45 116 153.5 186t246.5 70q26 0 64 -1t60 -3v-240q-14 4 -55.5 10t-88.5 6q-168 0 -278 -102t-110 -258v-972h-236zM200 1776q0 108 50.5 192t144 132t221.5 48t220.5 -48t142 -132t49.5 -192h-220q0 54 -19.5 99.5t-62 73t-110.5 27.5
q-72 0 -115 -28.5t-62 -74t-19 -97.5h-220z" />
    <glyph glyph-name="uni0214" unicode="&#x214;" horiz-adv-x="2088" 
d="M1592 2048h248v-1356q0 -172 -63 -307.5t-173 -229t-254 -142.5t-306 -49t-306 49t-254 142.5t-173 229t-63 307.5v1356h248v-1356q0 -120 44 -212.5t120.5 -155.5t175.5 -95.5t208 -32.5q110 0 208.5 32.5t175 95.5t120.5 155.5t44 212.5v1356zM1004 2248h-248l-420 364
h332zM1368 2248h-220l-336 364h304z" />
    <glyph glyph-name="uni0215" unicode="&#x215;" horiz-adv-x="1636" 
d="M1184 628v908h236v-1536h-236v260h-16q-36 -79 -98.5 -142t-152 -100.5t-205.5 -37.5q-144 0 -256 63.5t-176 192t-64 324.5v976h236v-960q0 -168 94.5 -268t241.5 -100q66 0 135.5 25t128.5 77t95.5 131t36.5 187zM780 1736h-248l-420 364h332zM1144 1736h-220l-336 364
h304z" />
    <glyph glyph-name="uni0216" unicode="&#x216;" horiz-adv-x="2088" 
d="M1592 2048h248v-1356q0 -172 -63 -307.5t-173 -229t-254 -142.5t-306 -49t-306 49t-254 142.5t-173 229t-63 307.5v1356h248v-1356q0 -120 44 -212.5t120.5 -155.5t175.5 -95.5t208 -32.5q110 0 208.5 32.5t175 95.5t120.5 155.5t44 212.5v1356zM632 2288q0 108 50.5 192
t144 132t221.5 48t220.5 -48t142 -132t49.5 -192h-220q0 54 -19.5 99.5t-62 73t-110.5 27.5q-72 0 -115 -28.5t-62 -74t-19 -97.5h-220z" />
    <glyph glyph-name="uni0217" unicode="&#x217;" horiz-adv-x="1636" 
d="M1184 628v908h236v-1536h-236v260h-16q-36 -79 -98.5 -142t-152 -100.5t-205.5 -37.5q-144 0 -256 63.5t-176 192t-64 324.5v976h236v-960q0 -168 94.5 -268t241.5 -100q66 0 135.5 25t128.5 77t95.5 131t36.5 187zM408 1776q0 108 50.5 192t144 132t221.5 48t220.5 -48
t142 -132t49.5 -192h-220q0 54 -19.5 99.5t-62 73t-110.5 27.5q-72 0 -115 -28.5t-62 -74t-19 -97.5h-220z" />
    <glyph glyph-name="uni0218" unicode="&#x218;" horiz-adv-x="1796" 
d="M1368 1536q-21 153 -147.5 236.5t-312.5 83.5q-204 0 -328 -96.5t-124 -243.5q0 -82 40 -140.5t101 -97t129 -63t126 -39.5l208 -56q65 -16 141.5 -43t153 -69t140 -103.5t102.5 -147.5t39 -201q0 -166 -86.5 -300t-252 -213t-401.5 -79q-220 0 -380.5 71t-251.5 197.5
t-104 295.5h256q12 -116 79.5 -191.5t173 -112t227.5 -36.5q142 0 255 46.5t179 130t66 195.5q0 77 -33 131t-90 93t-130 66.5t-155 49.5l-252 72q-161 46 -277 117.5t-179.5 174t-63.5 240.5q0 172 93.5 300.5t252 200t354.5 71.5q198 0 352 -70.5t243.5 -192t96.5 -277.5
h-240zM1020 -164v-124q-3 -136 -42.5 -287.5t-117.5 -272.5l-200 40q52 123 88 262.5t36 253.5v128h236z" />
    <glyph glyph-name="uni0219" unicode="&#x219;" horiz-adv-x="1472" 
d="M1304 1192l-212 -60q-20 54 -58.5 104t-104.5 83t-169 33q-141 0 -234.5 -64.5t-93.5 -163.5q0 -88 64 -140t200 -84l228 -56q408 -95 408 -416q0 -132 -75.5 -236t-210.5 -164t-314 -60q-235 0 -388 102t-196 298l224 56q67 -248 356 -248q110 0 191 32.5t125 87
t44 120.5q0 80 -56 134.5t-172 81.5l-256 60q-211 50 -309.5 155.5t-98.5 264.5q0 130 73.5 230t201 157t289.5 57q152 0 260 -45.5t177.5 -127t106.5 -191.5zM872 -128v-124q-3 -136 -42.5 -287.5t-117.5 -272.5l-200 40q52 123 88 262.5t36 253.5v128h236z" />
    <glyph glyph-name="uni021A" unicode="&#x21a;" horiz-adv-x="1808" 
d="M136 1828v220h1536v-220h-644v-1828h-248v1828h-644zM1024 -128v-124q-3 -136 -42.5 -287.5t-117.5 -272.5l-200 40q52 123 88 262.5t36 253.5v128h236z" />
    <glyph glyph-name="uni021B" unicode="&#x21b;" horiz-adv-x="1024" 
d="M884 1536v-200h-328v-896q0 -100 29.5 -149.5t76 -66t98.5 -16.5q35 0 58.5 3.5t38.5 7.5q4 0 7 1l48 -212q-24 -10 -67 -19t-109 -9q-75 0 -149 24t-134 73.5t-96.5 124t-36.5 174.5v960h-232v200h232v368h236v-368h328zM656 -128v-124q-3 -136 -42.5 -287.5
t-117.5 -272.5l-200 40q52 123 88 262.5t36 253.5v128h236z" />
    <glyph glyph-name="uni021C" unicode="&#x21c;" horiz-adv-x="1776" 
d="M304 444v208q315 92 533.5 200t332.5 254t114 358q0 90 -44.5 166.5t-139 123t-244.5 46.5q-106 0 -195 -41t-143 -114t-54 -169h-284q0 128 53.5 230.5t146.5 175t215.5 111.5t260.5 39q218 0 378 -65.5t247 -193t87 -313.5q0 -136 -55 -258.5t-157 -229.5
q118 -74 181 -203.5t63 -320.5q0 -244 -96.5 -418t-271 -293.5t-410.5 -200t-518 -136.5v228q319 62 544 162t344.5 259t119.5 403q0 282 -125 372q-348 -250 -883 -380z" />
    <glyph glyph-name="uni021D" unicode="&#x21d;" horiz-adv-x="1520" 
d="M300 288v204q102 24 205.5 58.5t198.5 82.5t169.5 112.5t118.5 147.5t44 187q0 54 -27.5 103.5t-89 81t-163.5 31.5q-126 0 -213 -65.5t-87 -158.5h-272q0 136 78 235.5t208 154t286 54.5q172 0 296.5 -50t192 -147t67.5 -239q0 -107 -43 -202.5t-120 -178.5
q94 -76 142.5 -189.5t48.5 -249.5q0 -260 -120 -435t-351.5 -278.5t-568.5 -146.5v216q172 37 312 87.5t241 123.5t156 179t55 254q0 89 -21.5 165t-64.5 128q-293 -193 -678 -265z" />
    <glyph glyph-name="uni021E" unicode="&#x21e;" horiz-adv-x="2084" 
d="M248 0v2048h248v-912h1092v912h248v-2048h-248v916h-1092v-916h-248zM844 2668l208 -280l208 280h224v-16l-324 -416h-216l-324 416v16h224z" />
    <glyph glyph-name="uni021F" unicode="&#x21f;" horiz-adv-x="1664" 
d="M452 924v-924h-236v2048h236v-752h20q53 121 162 190.5t290 69.5q157 0 275 -62.5t183.5 -191t65.5 -326.5v-976h-236v960q0 183 -94.5 283.5t-261.5 100.5q-116 0 -207.5 -49t-144 -143t-52.5 -228zM128 2664l208 -280l208 280h224v-16l-324 -416h-216l-324 416v16h224z
" />
    <glyph glyph-name="uni0220" unicode="&#x220;" horiz-adv-x="1776" 
d="M1616 -572h-276v1928q0 156 -56.5 255t-158 146t-237.5 47q-142 0 -253.5 -27t-198.5 -75v-1702h-272v2004h272v-83q90 49 205 80t247 31q143 0 273.5 -42t233 -126.5t162 -211t59.5 -296.5v-1928z" />
    <glyph glyph-name="uni0221" unicode="&#x221;" horiz-adv-x="2024" 
d="M796 -32q-192 0 -339 97.5t-230 276t-83 422.5q0 242 83 420t231 275t342 97q104 0 177.5 -25.5t122.5 -64.5t80.5 -80.5t51.5 -74.5q6 -10 12 -19h20v756h236v-1938q108 42 208 42q110 0 197 -45t137 -127t50 -192q0 -162 -109 -263t-295 -101q-107 0 -184.5 33.5
t-128.5 89.5t-77 125l-194 -196l-152 156l312 320v284h-20q-3 -5 -7 -11q-19 -34 -51.5 -77t-83 -84t-125.5 -68.5t-181 -27.5zM828 180q142 0 240 74.5t149 207t51 306.5q0 172 -50 301.5t-148 202t-242 72.5q-150 0 -249.5 -76.5t-149 -207t-49.5 -292.5
q0 -164 50.5 -297.5t150 -212t247.5 -78.5zM1500 -125v-39q0 -68 26 -114.5t69 -70t93 -23.5q72 0 116 45.5t44 114.5q0 63 -36 104.5t-100 51.5t-116.5 -10.5t-95.5 -58.5z" />
    <glyph glyph-name="uni0222" unicode="&#x222;" horiz-adv-x="1776" 
d="M860 1232h56q95 0 178.5 13.5t148 46.5t101 91.5t36.5 148.5q0 129 -65.5 191.5t-194.5 92.5v216q154 -8 276.5 -63t195 -163t72.5 -274q0 -109 -35.5 -192t-99 -142.5t-149.5 -97.5q133 -76 208.5 -201t75.5 -299q0 -159 -58 -277t-161.5 -196t-241.5 -116.5t-299 -38.5
h-32q-160 0 -298.5 38.5t-242 116t-161.5 195t-58 274.5q0 176 76 302t208 202q-86 38 -149.5 97.5t-99 142.5t-35.5 192q0 125 42.5 216.5t117 152t173 93t211.5 38.5v-216q-129 -30 -194.5 -92.5t-65.5 -191.5q0 -90 37.5 -148.5t101.5 -91.5t148 -46.5t177 -13.5z
M904 996h-32q-144 0 -251 -43.5t-166 -132t-59 -224.5t59 -221.5t166 -126t251 -40.5h32q144 0 251 40.5t166 127t59 224.5q0 134 -59 222t-166 131t-251 43z" />
    <glyph glyph-name="uni0223" unicode="&#x223;" horiz-adv-x="1776" 
d="M916 1220q95 0 179.5 16t149 55t102 107.5t37.5 173.5q0 150 -67.5 232.5t-196.5 131.5v204q152 -6 273.5 -73.5t194 -192t72.5 -302.5q0 -119 -36 -209t-101 -154.5t-153 -106.5q135 -74 212.5 -199.5t77.5 -302.5q0 -159 -57.5 -277t-160 -196t-240 -116.5
t-298.5 -38.5h-32q-160 0 -298 38.5t-240.5 116t-160 195t-57.5 274.5q0 179 77.5 305.5t213.5 200.5q-88 41 -153 105.5t-101.5 155t-36.5 209.5q0 178 72.5 302.5t194 192t273.5 73.5v-204q-129 -49 -196.5 -131.5t-67.5 -232.5q0 -105 38 -173.5t103 -107.5t149.5 -55
t177.5 -16h56zM904 1000h-32q-144 0 -252 -44.5t-168 -134t-60 -225.5t60 -225.5t168 -134t252 -44.5h32q142 0 250 44.5t169 135t61 228.5q0 134 -61 223t-169 133t-250 44z" />
    <glyph glyph-name="uni0224" unicode="&#x224;" horiz-adv-x="1760" 
d="M1200 0h-1020v180l1104 1648h-1116v220h1412v-180l-1104 -1648h724q189 0 298.5 -112t109.5 -292v-120h-224v76q0 58 -17 110t-57 85t-110 33z" />
    <glyph glyph-name="uni0225" unicode="&#x225;" horiz-adv-x="1520" 
d="M1192 -320v76q0 64 -15.5 119.5t-58 90t-122.5 34.5h-820v200l864 1116h-880v220h1184v-188l-860 -1128h512q130 0 221 -53.5t139 -145t48 -205.5v-136h-212z" />
    <glyph glyph-name="uni0226" unicode="&#x226;" horiz-adv-x="1904" 
d="M332 0h-260l752 2048h256l752 -2048h-260l-206 580h-828zM616 800h672l-328 924h-16zM952 2304q-69 0 -118.5 47t-49.5 113t49.5 113t118.5 47t118.5 -47t49.5 -113t-49.5 -113t-118.5 -47z" />
    <glyph glyph-name="uni0227" unicode="&#x227;" horiz-adv-x="1588" 
d="M668 -36q-146 0 -265 55.5t-189 161t-70 255.5q0 132 52.5 214.5t138.5 129.5t191.5 71t213.5 37q70 9 127 15q94 10 153.5 21t87.5 34t28 70v8q0 148 -80.5 230t-243.5 82q-112 0 -192 -34.5t-131 -87.5t-77 -110l-224 80q62 139 161.5 218t219 110.5t235.5 31.5
q59 0 134 -10t150.5 -41t140 -91t104 -158t39.5 -244v-1012h-236v208h-12q-18 -38 -54 -80t-91.5 -79.5t-132.5 -61t-178 -23.5zM704 176q140 0 236.5 55t146 142t49.5 183v216q-21 -22 -90.5 -39t-151.5 -28t-141 -18q-14 -2 -25 -3q-93 -11 -172 -38t-127.5 -79.5
t-48.5 -142.5q0 -82 42 -137t115 -83t167 -28zM820 1792q-69 0 -118.5 47t-49.5 113t49.5 113t118.5 47t118.5 -47t49.5 -113t-49.5 -113t-118.5 -47z" />
    <glyph glyph-name="uni0228" unicode="&#x228;" horiz-adv-x="1684" 
d="M248 0v2048h1236v-220h-988v-692h924v-220h-924v-696h1004v-220h-562l-14 -72q53 -8 100 -34t77.5 -75t30.5 -127q0 -86 -47.5 -152t-141 -103t-231.5 -37l-8 156q62 0 111 13t77 41t28 74q0 69 -51.5 95t-164.5 33l38 188h-494z" />
    <glyph glyph-name="uni0229" unicode="&#x229;" horiz-adv-x="1640" 
d="M912 -31l-8 -41q53 -8 100 -34t77.5 -75t30.5 -127q0 -86 -47.5 -152t-141 -103t-231.5 -37l-8 156q62 0 111 13t77 41t28 74q0 69 -51.5 95t-164.5 33l34 168q-271 49 -422.5 255.5t-151.5 520.5q0 236 86.5 416.5t242 282t363.5 101.5q120 0 237.5 -40t212.5 -129.5
t152.5 -236.5t57.5 -362v-100h-1115q11 -248 141 -378t338 -130q139 0 238.5 60t145.5 180l228 -64q-53 -166 -198.5 -269t-361.5 -118zM381 892h875q0 130 -51.5 232t-146 161t-222.5 59q-135 0 -234 -63t-156 -165.5t-65 -223.5z" />
    <glyph glyph-name="uni022A" unicode="&#x22a;" horiz-adv-x="2144" 
d="M1976 1024q0 -243 -67 -437.5t-188.5 -331.5t-286.5 -210t-362 -73q-196 0 -361.5 73t-287 210t-188.5 331.5t-67 437.5t67 437.5t188.5 331.5t287 210t361.5 73q197 0 362 -73t286.5 -210t188.5 -331.5t67 -437.5zM1736 1024q0 200 -51 352.5t-141.5 257t-211 157.5
t-260.5 53q-139 0 -260 -53t-211.5 -157.5t-141.5 -257t-51 -352.5q0 -199 51 -352t141.5 -257.5t211.5 -157.5t260 -53q140 0 260.5 53t211 157.5t141.5 257.5t51 352zM1540 3072v-200h-936v200h936zM784 2304q-63 0 -111.5 48.5t-48.5 111.5q0 69 48.5 114.5t111.5 45.5
q69 0 114.5 -45.5t45.5 -114.5q0 -63 -45.5 -111.5t-114.5 -48.5zM1360 2304q-63 0 -111.5 48.5t-48.5 111.5q0 69 48.5 114.5t111.5 45.5q69 0 114.5 -45.5t45.5 -114.5q0 -63 -45.5 -111.5t-114.5 -48.5z" />
    <glyph glyph-name="uni022B" unicode="&#x22b;" horiz-adv-x="1680" 
d="M840 -32q-208 0 -364.5 99t-244 277t-87.5 416q0 240 87.5 419t244 278t364.5 99t364.5 -99t244 -278t87.5 -419q0 -238 -87.5 -416t-244 -277t-364.5 -99zM840 180q119 0 205.5 47t143 127.5t84 185.5t27.5 220q0 116 -27.5 221t-84 186.5t-143 129t-205.5 47.5
q-118 0 -205 -47.5t-143.5 -129t-84 -186.5t-27.5 -221q0 -115 27.5 -220t84 -185.5t143.5 -127.5t205 -47zM1308 2560v-200h-936v200h936zM552 1792q-63 0 -111.5 48.5t-48.5 111.5q0 69 48.5 114.5t111.5 45.5q69 0 114.5 -45.5t45.5 -114.5q0 -63 -45.5 -111.5
t-114.5 -48.5zM1128 1792q-63 0 -111.5 48.5t-48.5 111.5q0 69 48.5 114.5t111.5 45.5q69 0 114.5 -45.5t45.5 -114.5q0 -63 -45.5 -111.5t-114.5 -48.5z" />
    <glyph glyph-name="uni022C" unicode="&#x22c;" horiz-adv-x="2144" 
d="M1976 1024q0 -243 -67 -437.5t-188.5 -331.5t-286.5 -210t-362 -73q-196 0 -361.5 73t-287 210t-188.5 331.5t-67 437.5t67 437.5t188.5 331.5t287 210t361.5 73q197 0 362 -73t286.5 -210t188.5 -331.5t67 -437.5zM1736 1024q0 200 -51 352.5t-141.5 257t-211 157.5
t-260.5 53q-139 0 -260 -53t-211.5 -157.5t-141.5 -257t-51 -352.5q0 -199 51 -352t141.5 -257.5t211.5 -157.5t260 -53q140 0 260.5 53t211 157.5t141.5 257.5t51 352zM1544 2888v-208h-940v208h940zM1336 2540l120 -32q0 -68 -29.5 -125.5t-82 -92t-120.5 -34.5
q-58 0 -97.5 17.5t-71.5 38.5q-29 19 -60.5 33.5t-74.5 14.5q-45 0 -76.5 -38t-31.5 -86l-120 32q0 66 29.5 124.5t81 95t117.5 36.5q47 0 85 -15.5t72 -35.5q34 -19 69 -34t78 -15q45 0 78.5 32.5t33.5 83.5z" />
    <glyph glyph-name="uni022D" unicode="&#x22d;" horiz-adv-x="1680" 
d="M840 -32q-208 0 -364.5 99t-244 277t-87.5 416q0 240 87.5 419t244 278t364.5 99t364.5 -99t244 -278t87.5 -419q0 -238 -87.5 -416t-244 -277t-364.5 -99zM840 180q119 0 205.5 47t143 127.5t84 185.5t27.5 220q0 116 -27.5 221t-84 186.5t-143 129t-205.5 47.5
q-118 0 -205 -47.5t-143.5 -129t-84 -186.5t-27.5 -221q0 -115 27.5 -220t84 -185.5t143.5 -127.5t205 -47zM1152 2104l184 -16q0 -104 -41 -180.5t-110 -118t-153 -41.5q-72 0 -118.5 21t-84.5 48q-35 23 -73 41t-92 18t-93 -46t-39 -106l-180 8q0 153 87 250.5t213 97.5
q58 0 102.5 -20t84.5 -45t82 -44t95 -19q57 0 96.5 44.5t39.5 107.5zM1320 2456v-208h-940v208h940z" />
    <glyph glyph-name="uni022E" unicode="&#x22e;" horiz-adv-x="2144" 
d="M1976 1024q0 -243 -67 -437.5t-188.5 -331.5t-286.5 -210t-362 -73q-196 0 -361.5 73t-287 210t-188.5 331.5t-67 437.5t67 437.5t188.5 331.5t287 210t361.5 73q197 0 362 -73t286.5 -210t188.5 -331.5t67 -437.5zM1736 1024q0 200 -51 352.5t-141.5 257t-211 157.5
t-260.5 53q-139 0 -260 -53t-211.5 -157.5t-141.5 -257t-51 -352.5q0 -199 51 -352t141.5 -257.5t211.5 -157.5t260 -53q140 0 260.5 53t211 157.5t141.5 257.5t51 352zM1072 2304q-69 0 -118.5 47t-49.5 113t49.5 113t118.5 47t118.5 -47t49.5 -113t-49.5 -113t-118.5 -47z
" />
    <glyph glyph-name="uni022F" unicode="&#x22f;" horiz-adv-x="1680" 
d="M840 -32q-208 0 -364.5 99t-244 277t-87.5 416q0 240 87.5 419t244 278t364.5 99t364.5 -99t244 -278t87.5 -419q0 -238 -87.5 -416t-244 -277t-364.5 -99zM840 180q119 0 205.5 47t143 127.5t84 185.5t27.5 220q0 116 -27.5 221t-84 186.5t-143 129t-205.5 47.5
q-118 0 -205 -47.5t-143.5 -129t-84 -186.5t-27.5 -221q0 -115 27.5 -220t84 -185.5t143.5 -127.5t205 -47zM840 1792q-69 0 -118.5 47t-49.5 113t49.5 113t118.5 47t118.5 -47t49.5 -113t-49.5 -113t-118.5 -47z" />
    <glyph glyph-name="uni0230" unicode="&#x230;" horiz-adv-x="2144" 
d="M1976 1024q0 -243 -67 -437.5t-188.5 -331.5t-286.5 -210t-362 -73q-196 0 -361.5 73t-287 210t-188.5 331.5t-67 437.5t67 437.5t188.5 331.5t287 210t361.5 73q197 0 362 -73t286.5 -210t188.5 -331.5t67 -437.5zM1736 1024q0 200 -51 352.5t-141.5 257t-211 157.5
t-260.5 53q-139 0 -260 -53t-211.5 -157.5t-141.5 -257t-51 -352.5q0 -199 51 -352t141.5 -257.5t211.5 -157.5t260 -53q140 0 260.5 53t211 157.5t141.5 257.5t51 352zM1540 2960v-200h-936v200h936zM1072 2224q-69 0 -118.5 47t-49.5 113t49.5 113t118.5 47t118.5 -47
t49.5 -113t-49.5 -113t-118.5 -47z" />
    <glyph glyph-name="uni0231" unicode="&#x231;" horiz-adv-x="1680" 
d="M840 -32q-208 0 -364.5 99t-244 277t-87.5 416q0 240 87.5 419t244 278t364.5 99t364.5 -99t244 -278t87.5 -419q0 -238 -87.5 -416t-244 -277t-364.5 -99zM840 180q119 0 205.5 47t143 127.5t84 185.5t27.5 220q0 116 -27.5 221t-84 186.5t-143 129t-205.5 47.5
q-118 0 -205 -47.5t-143.5 -129t-84 -186.5t-27.5 -221q0 -115 27.5 -220t84 -185.5t143.5 -127.5t205 -47zM1312 2444v-200h-936v200h936zM844 1708q-69 0 -118.5 47t-49.5 113t49.5 113t118.5 47t118.5 -47t49.5 -113t-49.5 -113t-118.5 -47z" />
    <glyph glyph-name="uni0232" unicode="&#x232;" horiz-adv-x="1872" 
d="M72 2048h284l568 -956h24l568 956h284l-740 -1204v-844h-248v844zM1404 2560v-200h-936v200h936z" />
    <glyph glyph-name="uni0233" unicode="&#x233;" horiz-adv-x="1568" 
d="M360 -596q-60 0 -106.5 9t-65.5 19l60 208q128 -37 215.5 1.5t148.5 206.5l52 144l-568 1544h256l424 -1224h16l424 1224h256l-660 -1784q-128 -348 -452 -348zM1252 2048v-200h-936v200h936z" />
    <glyph glyph-name="uni0234" unicode="&#x234;" horiz-adv-x="964" 
d="M452 2048v-1938q108 42 208 42q110 0 197 -45t137 -127t50 -192q0 -162 -109 -263t-295 -101q-108 0 -186 34.5t-129 91t-77 126.5l-192 -200l-152 156l312 320v2096h236zM452 -123v-81q0 -69 56.5 -118.5t131.5 -49.5q72 0 116 45.5t44 114.5q0 72 -47 112t-125 40
q-52 0 -95.5 -17t-80.5 -46z" />
    <glyph glyph-name="uni0235" unicode="&#x235;" horiz-adv-x="2152" 
d="M452 924v-924h-236v1536h228v-240h20q54 119 164 189.5t284 70.5q156 0 273 -63.5t182 -192t65 -324.5v-633q106 41 208 41q110 0 197 -45t137 -127t50 -192q0 -162 -109 -263t-295 -101q-108 0 -186 34.5t-129 91t-77 126.5l-192 -200l-152 156l312 320v776
q0 181 -94 282.5t-258 101.5q-113 0 -201.5 -49t-139.5 -143t-51 -228zM1432 28q0 -69 56.5 -118.5t131.5 -49.5q72 0 116 45.5t44 114.5q0 72 -47 112t-125 40q-52 0 -95.5 -17t-80.5 -46v-81z" />
    <glyph glyph-name="uni0236" unicode="&#x236;" horiz-adv-x="1364" 
d="M400 1904h236v-368h328v-200h-328v-681q94 41 208 41q129 0 216.5 -46.5t131.5 -126t44 -179.5q0 -110 -50 -195t-142.5 -133t-219.5 -48q-108 0 -186 34t-128.5 90.5t-77.5 126.5l-192 -199l-152 156q182 198 312 317v843h-232v200h232v368zM636 403v-63
q0 -69 54 -118.5t134 -49.5q45 0 83 17.5t61.5 53.5t23.5 89q0 41 -16 75.5t-55.5 55.5t-108.5 21q-70 0 -176 -81z" />
    <glyph glyph-name="uni0237" unicode="&#x237;" horiz-adv-x="668" 
d="M216 1536h236v-1648q0 -142 -48.5 -246t-146 -161t-245.5 -57h-48v220h44q108 0 158 63.5t50 180.5v1648z" />
    <glyph glyph-name="uni0238" unicode="&#x238;" horiz-adv-x="2544" 
d="M2408 756v-28q0 -216 -68.5 -387t-198 -270t-313.5 -99q-138 0 -242.5 46t-177.5 133v-151h-252l-12 149q-73 -86 -176.5 -131.5t-239.5 -45.5q-174 0 -306.5 99t-207 270t-74.5 387v28q0 226 74 397t207 267t311 96q129 0 228.5 -42t171.5 -122v760h276v-774
q73 87 176.5 132.5t239.5 45.5q188 0 318.5 -96t198 -267t67.5 -397zM2132 728v28q0 108 -19.5 204t-64 170t-117 116t-179.5 42q-86 0 -152 -28t-113.5 -77t-78.5 -113v-643q31 -64 79 -115t114.5 -81.5t154.5 -30.5q101 0 172 41.5t116.5 114.5t66.5 168.5t21 203.5z
M416 756v-28q0 -108 22 -203.5t67.5 -168.5t118 -114.5t172.5 -41.5q86 0 149.5 26.5t109 73t77.5 107.5v686q-48 87 -129 141t-203 54q-102 0 -175 -42t-119 -116t-68 -170t-22 -204z" />
    <glyph glyph-name="uni0239" unicode="&#x239;" horiz-adv-x="2544" 
d="M1132 -572v696q-73 -74 -172 -113t-224 -39q-186 0 -319.5 99t-205 270t-71.5 387v28q0 226 70.5 397t204 267t321.5 96q131 0 233 -42t175 -123l12 137h228l13 -153q75 88 180.5 134.5t242.5 46.5q190 0 320 -96t197 -267t67 -397v-28q0 -216 -67.5 -387t-197 -270
t-315.5 -99q-134 0 -237.5 42t-178.5 122v-708h-276zM416 756v-28q0 -108 23 -205t70.5 -171t121 -117t173.5 -43q119 0 198.5 52t129.5 136v738q-51 79 -131 128.5t-193 49.5q-102 0 -176 -43.5t-122 -118.5t-71 -172.5t-23 -205.5zM2128 728v28q0 108 -22.5 204t-70 170
t-121.5 116t-178 42q-118 0 -199 -53.5t-129 -139.5v-710q32 -56 78 -99.5t108.5 -68.5t145.5 -25q102 0 175.5 43t120.5 117t69.5 171t22.5 205z" />
    <glyph glyph-name="uni023A" unicode="&#x23a;" horiz-adv-x="1904" 
d="M1572 2308l-289 -813l549 -1495h-260l-206 580h-408l-298 -840h-228l298 840h-192l-206 -580h-260l752 2048h256l87 -238l177 498h228zM808 800l240 675l-88 249h-16l-328 -924h192zM1162 1154l-126 -354h252z" />
    <glyph glyph-name="uni023B" unicode="&#x23b;" horiz-adv-x="2048" 
d="M464 -260l130 367q-198 129 -312 363.5t-114 553.5q0 243 67 437.5t188.5 331.5t287 210t361.5 73q111 0 213 -23l91 255h228l-117 -329q158 -82 265 -227t144 -344h-248q-26 118 -88.5 204.5t-152.5 141.5l-539 -1518q98 -32 204 -32q204 0 365 111t211 325h248
q-63 -317 -289 -492.5t-535 -175.5q-150 0 -282 43l-98 -275h-228zM677 340l530 1491q-66 13 -135 13q-139 0 -260 -53t-211.5 -157.5t-141.5 -257t-51 -352.5q0 -239 72.5 -411t196.5 -273z" />
    <glyph glyph-name="uni023C" unicode="&#x23c;" horiz-adv-x="1572" 
d="M1424 2048l-234 -585q213 -130 254 -387h-236q-24 99 -103 173l-417 -1043q70 -26 152 -26q138 0 235.5 70.5t132.5 197.5h236q-21 -137 -99 -245t-206.5 -171.5t-298.5 -63.5q-126 0 -232 36l-232 -580h-192l265 660q-147 103 -226 278t-79 398q0 234 86.5 413.5
t242 281t363.5 101.5q102 0 193 -25l207 517h188zM949 1331q-50 13 -109 13q-207 0 -333.5 -157.5t-126.5 -418.5q0 -300 157 -464z" />
    <glyph glyph-name="uni023D" unicode="&#x23d;" horiz-adv-x="1584" 
d="M248 0v964h-316v184h316v900h248v-900h316v-184h-316v-744h952v-220h-1200z" />
    <glyph glyph-name="uni023E" unicode="&#x23e;" horiz-adv-x="1808" 
d="M360 -260l420 1183v905h-644v220h1044l92 260h228l-92 -260h264v-220h-342l-302 -849v-979h-248v281l-192 -541h-228zM1028 1621l74 207h-74v-207z" />
    <glyph glyph-name="uni023F" unicode="&#x23f;" horiz-adv-x="1472" 
d="M1304 1192l-212 -60q-20 54 -58.5 104t-104.5 83t-169 33q-141 0 -234.5 -64.5t-93.5 -163.5q0 -88 64 -140t200 -84l228 -56q408 -95 408 -416q0 -132 -75.5 -236t-210.5 -164t-314 -60q-73 0 -140 10q117 -211 174.5 -282.5t117.5 -71.5q36 0 71 15.5t65 37.5t52 43
l92 -160q-31 -31 -75.5 -62t-97.5 -52.5t-107 -21.5q-88 0 -157.5 37.5t-129 109t-117.5 173.5l-249 433q-59 81 -83 191l224 56q67 -248 356 -248q110 0 191 32.5t125 87t44 120.5q0 80 -56 134.5t-172 81.5l-256 60q-211 50 -309.5 155.5t-98.5 264.5q0 130 73.5 230
t201 157t289.5 57q152 0 260 -45.5t177.5 -127t106.5 -191.5z" />
    <glyph glyph-name="uni0240" unicode="&#x240;" horiz-adv-x="1516" 
d="M484 220h60q114 0 200.5 -35t153 -91t117.5 -121.5t94 -129.5q37 -55 72 -100t71.5 -72t79.5 -27q57 0 102.5 21t81.5 55l92 -160q-30 -31 -73 -62t-98 -52.5t-121 -21.5q-85 0 -147 38t-112 98.5t-96 129.5q-39 58 -81 112.5t-94 99t-117.5 71.5t-152.5 27h-340v200
l864 1116h-880v220h1184v-188z" />
    <glyph glyph-name="uni0241" unicode="&#x241;" horiz-adv-x="1520" 
d="M664 624h60q117 0 193 43t120 114.5t61.5 162t17.5 184.5v160q0 93 -18 183t-62.5 162t-120 115.5t-191.5 43.5q-150 0 -238 -87t-98 -233h-268q7 161 83 287t209.5 199.5t311.5 73.5q171 0 298 -60t211 -163.5t125.5 -237.5t41.5 -283v-160q0 -174 -57 -327t-172.5 -259
t-290.5 -143v-399h-288v624h72z" />
    <glyph glyph-name="uni0242" unicode="&#x242;" horiz-adv-x="1520" 
d="M192 964q0 170 74 294t199 191t279 67q282 0 433 -146.5t151 -425.5q0 -120 -40.5 -222.5t-131.5 -172t-240 -94.5v-455h-276v616h128q106 0 169 43t91 118t28 171q0 94 -29.5 173t-98 127t-184.5 48q-84 0 -146 -44t-96 -119t-34 -169h-276z" />
    <glyph glyph-name="uni0243" unicode="&#x243;" horiz-adv-x="1988" 
d="M404 0v484h-316v184h316v1380h716q161 0 279 -42.5t195.5 -117t115.5 -173t38 -211.5q0 -132 -46.5 -218t-121.5 -136.5t-164 -73.5v-20q72 -5 144 -39.5t132.5 -99.5t98 -158t37.5 -215q0 -154 -70 -277t-221 -195t-393 -72h-740zM652 220h492q162 0 260.5 43.5t143 117
t44.5 163.5q0 104 -53 192.5t-151 142t-232 53.5h-504v-264h316v-184h-316v-264zM652 1148h460q112 0 202.5 44t144 124t53.5 188q0 90 -41.5 163.5t-128 117t-222.5 43.5h-468v-680z" />
    <glyph glyph-name="uni0244" unicode="&#x244;" horiz-adv-x="2088" 
d="M2096 1188v-164h-256v-332q0 -172 -63 -307.5t-173 -229t-254 -142.5t-306 -49t-306 49t-254 142.5t-173 229t-63 307.5v332h-256v164h256v860h248v-860h1096v860h248v-860h256zM1592 1024h-1096v-332q0 -120 44 -212.5t120.5 -155.5t175.5 -95.5t208 -32.5
q110 0 208.5 32.5t175 95.5t120.5 155.5t44 212.5v332z" />
    <glyph glyph-name="uni0245" unicode="&#x245;" horiz-adv-x="2032" 
d="M1572 0l-558 1624l-550 -1624h-312l740 2004h248l744 -2004h-312z" />
    <glyph glyph-name="uni0246" unicode="&#x246;" horiz-adv-x="1684" 
d="M1412 2308l-75 -260h147v-220h-210l-200 -692h346v-220h-409l-201 -696h690v-220h-753l-75 -260h-228l75 260h-271v2048h861l75 260h228zM1046 1828h-550v-692h350zM783 916h-287v-696h86z" />
    <glyph glyph-name="uni0247" unicode="&#x247;" horiz-adv-x="1640" 
d="M1424 2048l-234 -587q88 -54 157 -144t109 -220.5t40 -308.5v-100h-615l-193 -482q79 -26 172 -26q139 0 238.5 60t145.5 180l228 -64q-56 -176 -217 -282t-395 -106q-136 0 -251 39l-233 -583h-192l265 661q-147 101 -226 273t-79 398q0 236 86.5 416.5t242 282
t363.5 101.5q96 0 193 -25l207 517h188zM773 892l175 439q-52 13 -112 13q-135 0 -234 -63t-156 -165.5t-65 -223.5h392zM691 688h-310q12 -261 153 -390zM1106 1251l-144 -359h294q0 225 -150 359z" />
    <glyph glyph-name="uni0248" unicode="&#x248;" horiz-adv-x="1528" 
d="M1032 2048h248v-740h316v-184h-316v-540q0 -196 -72 -333t-203 -208t-309 -71q-168 0 -299 61.5t-206 175.5t-75 271h244q0 -130 95 -209t241 -79q161 0 248.5 100.5t87.5 291.5v540h-316v184h316v740z" />
    <glyph glyph-name="uni0249" unicode="&#x249;" horiz-adv-x="668" 
d="M216 1536h236v-552h320v-184h-320v-912q0 -142 -48.5 -246t-146 -161t-245.5 -57h-48v220h44q108 0 158 63.5t50 180.5v912h-324v184h324v552zM332 1792q-69 0 -118.5 47t-49.5 113t49.5 113t118.5 47t118.5 -47t49.5 -113t-49.5 -113t-118.5 -47z" />
    <glyph glyph-name="uni024A" unicode="&#x24a;" horiz-adv-x="2196" 
d="M1896 2048v-2212q0 -80 29.5 -125.5t80 -64t114.5 -18.5q42 0 76 8v-200q-28 -9 -64 -10.5t-72 -1.5q-112 0 -202.5 48t-144 140t-53.5 224v488h-16q-80 -172 -240.5 -264t-367.5 -92q-256 0 -451.5 135t-306 375t-110.5 554q0 304 109.5 539.5t305 370t453.5 134.5
q210 0 370.5 -90.5t237.5 -253.5h24v316h228zM1036 204q169 0 288.5 63.5t194.5 175.5t110 262t35 323q0 169 -37.5 318.5t-114.5 262.5t-194.5 178t-277.5 65q-190 0 -331 -107t-219 -293t-78 -424q0 -254 80 -439t221 -285t323 -100z" />
    <glyph glyph-name="uni024B" unicode="&#x24b;" horiz-adv-x="1800" 
d="M1664 -576q-112 0 -202.5 48t-144 140t-53.5 224v400h-20q-3 -5 -7 -11q-19 -34 -51.5 -77t-83 -84t-125.5 -68.5t-181 -27.5q-192 0 -339 97.5t-230 276t-83 422.5q0 242 83 420t231 275t342 97q104 0 177.5 -25.5t122.5 -64.5t80.5 -80.5t51.5 -74.5q6 -10 12 -19h28
v244h228v-1700q0 -80 29.5 -125.5t80 -64t114.5 -18.5q42 0 76 8v-200q-28 -9 -64 -10.5t-72 -1.5zM828 180q142 0 240 74.5t149 207t51 306.5q0 172 -50 301.5t-148 202t-242 72.5q-150 0 -249.5 -76.5t-149 -207t-49.5 -292.5q0 -164 50.5 -297.5t150 -212t247.5 -78.5z
" />
    <glyph glyph-name="uni024C" unicode="&#x24c;" horiz-adv-x="1824" 
d="M272 0v800h-240v224h240v1024h692q240 0 394 -81.5t228 -223.5t74 -323q0 -204 -94 -354.5t-289 -219.5l463 -846h-288l-432 801q-25 -1 -52 -1h-448v-800h-248zM520 1024h440q164 0 264.5 48t146 136.5t45.5 211.5t-46 215t-147 142.5t-267 50.5h-436v-804z" />
    <glyph glyph-name="uni024D" unicode="&#x24d;" horiz-adv-x="1048" 
d="M216 0v644h-320v184h320v708h228v-232h16q45 116 153.5 186t246.5 70q26 0 64 -1t60 -3v-240q-14 4 -55.5 10t-88.5 6q-168 0 -278 -102t-110 -258v-144h324v-184h-324v-644h-236z" />
    <glyph glyph-name="uni024E" unicode="&#x24e;" horiz-adv-x="1880" 
d="M1872 1628v-164h-431l-381 -620v-844h-248v844l-381 620h-423v164h322l-258 420h284l250 -420h660l250 420h284l-258 -420h330zM703 1464l221 -372h24l221 372h-466z" />
    <glyph glyph-name="uni024F" unicode="&#x24f;" horiz-adv-x="1568" 
d="M1452 1096v-184h-211l-429 -1160q-128 -348 -452 -348q-60 0 -106.5 9t-65.5 19l60 208q128 -37 215.5 1.5t148.5 206.5l52 144l-338 920h-218v184h150l-162 440h256l152 -440h560l152 440h256l-163 -440h143zM1000 912h-432l208 -600h16z" />
    <glyph glyph-name="uni0250" unicode="&#x250;" horiz-adv-x="1588" 
d="M920 1572q146 0 265 -55.5t189 -161t70 -255.5q0 -132 -52.5 -214.5t-138.5 -129.5t-191.5 -71t-213.5 -37q-70 -9 -127 -15q-94 -10 -153.5 -21t-87.5 -34t-28 -70v-8q0 -148 80.5 -230t243.5 -82q113 0 192.5 34.5t130.5 87.5t77 110l224 -80q-62 -139 -161.5 -218
t-219 -110.5t-235.5 -31.5q-59 0 -134 10t-150.5 41t-140 91t-104 158t-39.5 244v1012h236v-208h12q18 38 54 80t91.5 79.5t133 61t177.5 23.5zM884 1360q-140 0 -236.5 -55t-146 -142t-49.5 -183v-216q21 22 90.5 39t151.5 28t141 18q14 2 25 3q93 11 172 38t127.5 79.5
t48.5 142.5q0 82 -42 137t-115 83t-167 28z" />
    </font>
</defs>
</svg>
