<?xml version="1.0" encoding="UTF-8"?>
<svg width="18px" height="25px" viewBox="0 0 18 25" version="1.1" xmlns="http://www.w3.org/2000/svg" xmlns:xlink="http://www.w3.org/1999/xlink">
    <!-- Generator: Sketch 55.2 (78181) - https://sketchapp.com -->
    <title>bell-2 copy 2</title>
    <desc>Created with Sketch.</desc>
    <g id="Page-1" stroke="none" stroke-width="1" fill="none" fill-rule="evenodd">
        <g id="Desktop-HD-Copy-2" transform="translate(-156.000000, -42.000000)" fill="#000000">
            <g id="Group-2" transform="translate(33.000000, 42.000000)">
                <g id="bell-2-copy-2" transform="translate(132.000000, 12.500000) scale(-1, 1) translate(-132.000000, -12.500000) translate(123.000000, 0.000000)">
                    <circle id="Oval-Copy-3" fill-rule="nonzero" cx="9" cy="22.5" r="2"></circle>
                    <path d="M9.04563024,22.9977298 L18,22.9977298 C18,22.9977298 17.2459716,20.393309 17.104563,18.8763338 C16.9631545,17.3593586 14.4191557,17.3625369 14.4670448,11.0667038 C14.4946037,7.39436155 13.053411,2.96920727 11.2629888,1.88039956 C10.3680036,1.33554166 9.00135535,1 9.00135535,1 C9.00135535,1 7.63470709,1.33554166 6.7397219,1.88039956 C4.94839616,2.96693703 3.50720345,7.3920913 3.53385874,11.0667038 C3.5790372,17.3648071 1.03684554,17.3648071 0.895436976,18.8804202 C0.754028412,20.3960333 0,23 0,23 L9.04563024,22.9977298 Z" id="Shape" fill-rule="nonzero"></path>
                    <rect id="Rectangle" x="8" y="0" width="2" height="2" rx="1"></rect>
                </g>
            </g>
        </g>
    </g>
</svg>