<?xml version="1.0" encoding="UTF-8"?>
<svg width="264px" height="40px" viewBox="0 0 264 40" version="1.1" xmlns="http://www.w3.org/2000/svg" xmlns:xlink="http://www.w3.org/1999/xlink">
    <!-- Generator: Sketch 55.2 (78181) - https://sketchapp.com -->
    <title>Group 2</title>
    <desc>Created with Sketch.</desc>
    <g id="Page-1" stroke="none" stroke-width="1" fill="none" fill-rule="evenodd">
        <g id="Desktop-HD-Copy-2" transform="translate(-33.000000, -42.000000)" fill="#000000">
            <g id="Group-2" transform="translate(33.000000, 42.000000)">
                <g id="Group-4" transform="translate(255.000000, 12.000000) scale(-1, 1) translate(-255.000000, -12.000000) translate(246.000000, 0.000000)">
                    <path d="M8.71428571,22 L18,22 C18,22 17.4104762,20.724678 16.497619,18.5914121 C15.4090476,16.0477244 16.1804762,8.20333481 15.7833333,6.30194566 C15.3861905,4.4005565 11.3204762,4.8907439 10.7428571,4.30780581 C9.86952381,3.42667426 10.0542857,0.00417378107 10.0542857,0.00417378107 L8.71428571,0 L9.28571429,0 L7.94714286,0.00417378107 C7.94714286,0.00417378107 8.13190476,3.42667426 7.25857143,4.30780581 C6.68095238,4.8907439 2.6147619,4.4005565 2.21809524,6.30194566 C1.82142857,8.20333481 2.59238095,16.0477244 1.50380952,18.5914121 C0.58952381,20.724678 0,22 0,22 L9.28571429,22" id="Shape" fill-rule="nonzero"></path>
                    <rect id="Rectangle" x="7" y="20" width="3" height="4"></rect>
                </g>
                <g id="bell-2" transform="translate(9.000000, 12.500000) scale(-1, 1) translate(-9.000000, -12.500000) ">
                    <g id="Group-5">
                        <circle id="Oval" fill-rule="nonzero" cx="9" cy="23" r="2"></circle>
                        <path d="M9.04563024,22.9977298 L18,22.9977298 C18,22.9977298 17.2459716,20.393309 17.104563,18.8763338 C16.9631545,17.3593586 14.4191557,17.3625369 14.4670448,11.0667038 C14.4946037,7.39436155 13.053411,2.96920727 11.2629888,1.88039956 C10.3680036,1.33554166 9.00135535,1 9.00135535,1 C9.00135535,1 7.63470709,1.33554166 6.7397219,1.88039956 C4.94839616,2.96693703 3.50720345,7.3920913 3.53385874,11.0667038 C3.5790372,17.3648071 1.03684554,17.3648071 0.895436976,18.8804202 C0.754028412,20.3960333 0,23 0,23 L9.04563024,22.9977298 Z" id="Shape" fill-rule="nonzero"></path>
                        <circle id="Oval" transform="translate(9.000000, 1.000000) scale(-1, 1) translate(-9.000000, -1.000000) " cx="9" cy="1" r="1"></circle>
                    </g>
                </g>
                <g id="bell-2-copy-2" transform="translate(132.000000, 12.500000) scale(-1, 1) translate(-132.000000, -12.500000) translate(123.000000, 0.000000)">
                    <circle id="Oval-Copy-3" fill-rule="nonzero" cx="9" cy="22.5" r="2"></circle>
                    <path d="M9.04563024,22.9977298 L18,22.9977298 C18,22.9977298 17.2459716,20.393309 17.104563,18.8763338 C16.9631545,17.3593586 14.4191557,17.3625369 14.4670448,11.0667038 C14.4946037,7.39436155 13.053411,2.96920727 11.2629888,1.88039956 C10.3680036,1.33554166 9.00135535,1 9.00135535,1 C9.00135535,1 7.63470709,1.33554166 6.7397219,1.88039956 C4.94839616,2.96693703 3.50720345,7.3920913 3.53385874,11.0667038 C3.5790372,17.3648071 1.03684554,17.3648071 0.895436976,18.8804202 C0.754028412,20.3960333 0,23 0,23 L9.04563024,22.9977298 Z" id="Shape" fill-rule="nonzero"></path>
                    <rect id="Rectangle" x="8" y="0" width="2" height="2" rx="1"></rect>
                </g>
                <g id="bell-7" transform="translate(50.000000, 20.000000) scale(-1, 1) translate(-50.000000, -20.000000) translate(41.000000, 0.000000)">
                    <g id="Group-6">
                        <circle id="Oval" fill-rule="nonzero" cx="9.5" cy="37.5" r="2.5"></circle>
                        <rect id="Rectangle" x="8" y="0" width="2" height="3" rx="1"></rect>
                        <path d="M8.88105727,38 L18,38 C16.4140969,37.0204082 12.7760352,29.6734694 12.3700441,22.8163265 C11.9735683,16.122449 13.7973568,7.30612245 13.7973568,4.93877551 C13.7973568,2.57142857 10.3876652,2 8.96035242,2 C7.53303965,2 4.20264317,2.57142857 4.20264317,4.93877551 C4.20264317,7.30612245 6.02643172,16.122449 5.62995595,22.8163265 C5.22396476,29.6734694 1.58590308,37.0204082 0,38 L8.96035242,38" id="Shape" fill-rule="nonzero"></path>
                    </g>
                </g>
                <g id="Group-7" transform="translate(82.000000, 0.000000)">
                    <g id="bell-4" transform="translate(9.000000, 16.000000) scale(-1, 1) translate(-9.000000, -16.000000) translate(0.000000, 1.000000)">
                        <rect id="Rectangle-Copy" x="7" y="25" width="4" height="5"></rect>
                        <path d="M9.0156872,0 C10.6959609,0 17.7935487,0.954811715 17.9364765,12.1460251 C18.0794044,23.3372385 17.9364765,28 17.9364765,28 L0.0635234878,28 C0.0635234878,28 -0.0794043597,23.3372385 0.0635234878,12.1460251 C0.206451335,0.954811715 7.33599449,0 9.0156872,0 Z" id="Shape" fill-rule="nonzero"></path>
                    </g>
                    <circle id="Oval" cx="9" cy="1" r="1"></circle>
                </g>
                <g id="Group-3" transform="translate(173.000000, 10.500000) scale(-1, 1) translate(-173.000000, -10.500000) translate(164.000000, 0.000000)" fill-rule="nonzero">
                    <circle id="Oval-Copy-2" cx="8.5" cy="19.5" r="1.5"></circle>
                    <path d="M15.1257082,5.57379107 C15.23074,10.3388458 14.9502748,15.9782847 15.7916702,17.4645872 C16.6330655,18.9508896 18,20 18,20 L0,20 C0,20 1.36693446,18.9508896 2.20718816,17.4645872 C3.04744186,15.9782847 2.76811839,10.3388458 2.87315011,5.57379107 C2.97818182,0.80873631 15.020296,0.80873631 15.1257082,5.57379107 Z" id="Shape"></path>
                    <rect id="Rectangle" x="8" y="0" width="2" height="2"></rect>
                </g>
                <g id="bell-6" transform="translate(214.000000, 10.000000) scale(-1, 1) translate(-214.000000, -10.000000) translate(205.000000, 0.000000)" fill-rule="nonzero">
                    <circle id="Oval" cx="9" cy="1" r="1"></circle>
                    <circle id="Oval-Copy" cx="9.5" cy="18.5" r="1.5"></circle>
                    <path d="M9.13396482,2 C9.13396482,2 16.3924222,2.18625544 16.3924222,6.61354734 C16.3924222,11.0408392 15.3207037,8.75874442 15.3207037,12.2184393 C15.3207037,15.6781342 18,19 18,19 L9.08525034,18.9534361 L0,18.9576269 C0,18.9576269 2.67929635,15.6362267 2.67929635,12.1765318 C2.67929635,8.71683694 1.55886333,10.999863 1.55886333,6.57117423 C1.55886333,2.14248541 9.13396482,2 9.13396482,2 Z" id="Shape"></path>
                </g>
            </g>
        </g>
    </g>
</svg>